<svg width="276" height="52" viewBox="0 0 276 52" fill="none" xmlns="http://www.w3.org/2000/svg">
<g clip-path="url(#clip0_1861_39270)">
<path d="M189.527 14.3816V9.78479H199.02C199.043 9.96667 199.087 10.1651 199.087 10.3635C199.087 19.0048 199.093 27.6462 199.087 36.2875C199.087 38.2254 198.831 40.1303 198.284 41.9954C197.045 46.2053 194.313 48.9965 190.203 50.4979C187.767 51.3875 185.231 51.7645 182.662 51.8868C179.48 52.039 176.301 51.8934 173.136 51.5859C169.341 51.2155 165.582 50.6202 161.863 49.7703C161.402 49.6645 160.938 49.5785 160.378 49.4628C160.746 46.9957 161.104 44.5849 161.468 42.1244C162.788 42.3691 164.024 42.6271 165.27 42.8222C167.65 43.1926 170.03 43.5465 172.417 43.8639C174.863 44.1913 177.326 44.2806 179.792 44.2012C181.595 44.1417 183.378 43.9334 185.082 43.2786C187.565 42.3261 188.92 40.4841 189.365 37.9179C189.444 37.4516 189.51 36.9753 189.524 36.5024C189.547 35.5798 189.53 34.6571 189.53 33.6187C189.351 33.7708 189.229 33.8469 189.139 33.9527C187.121 36.3801 184.509 37.8451 181.479 38.6189C177.965 39.5152 174.425 39.6276 170.852 38.9629C168.263 38.4834 165.85 37.6037 163.719 36.0527C160.616 33.7973 158.919 30.6886 158.366 26.9451C158.014 24.5739 158.057 22.2028 158.614 19.8581C159.712 15.2117 162.565 12.07 166.938 10.2511C169.132 9.33833 171.426 8.8985 173.802 8.7596C176.716 8.59094 179.563 8.84889 182.351 9.71865C185.069 10.5686 187.406 11.9939 189.209 14.2228C189.272 14.2989 189.272 14.4279 189.302 14.5304C189.378 14.4808 189.457 14.4345 189.534 14.3849L189.527 14.3816ZM178.811 31.3434C180.627 31.317 182.417 31.2078 184.164 30.7085C185.556 30.3083 186.852 29.723 187.863 28.6581C189.497 26.9351 189.772 24.8286 189.424 22.6029C189.126 20.6815 188.079 19.2132 186.368 18.3071C185.47 17.8308 184.485 17.4472 183.491 17.2223C180.432 16.5279 177.342 16.5312 174.28 17.2157C173.361 17.4208 172.443 17.7449 171.608 18.1748C168.84 19.6001 167.895 22.1961 168.27 25.1758C168.565 27.5238 169.874 29.1376 171.999 30.1264C172.334 30.2819 172.682 30.4109 173.03 30.5332C174.906 31.1781 176.855 31.3071 178.807 31.3434H178.811Z" fill="#F28520"/>
<path d="M36.4051 39.0421H26.8423C26.8423 38.6981 26.8423 38.3873 26.8423 38.0797C26.8423 33.5061 26.8423 28.9357 26.8423 24.3621C26.8423 23.2741 26.7793 22.1993 26.4876 21.1443C25.9075 19.0543 24.5684 17.7182 22.4669 17.1759C19.4704 16.4053 16.5237 16.5343 13.7095 17.8736C11.2069 19.0642 9.891 21.1311 9.61588 23.8627C9.56616 24.3621 9.57279 24.8647 9.56948 25.3674C9.56948 29.5971 9.56948 33.8269 9.56948 38.0533C9.56948 38.3641 9.56948 38.675 9.56948 39.0321H0V9.77468H9.56285V14.9998C9.93741 14.603 10.1694 14.3649 10.3915 14.1168C12.3969 11.9243 14.7868 10.3237 17.6473 9.46051C19.8218 8.80572 22.0426 8.58415 24.3198 8.74619C26.0534 8.86855 27.7306 9.18934 29.325 9.8739C31.9734 11.0115 33.8661 12.923 35.0527 15.5389C35.1488 15.7538 35.245 15.9721 35.3444 16.1871C35.3544 16.2069 35.3842 16.2201 35.4538 16.2796C35.593 16.1143 35.7422 15.9489 35.8748 15.7737C37.784 13.2339 40.101 11.1934 43.0776 9.97311C44.831 9.25217 46.6541 8.87517 48.5468 8.74619C50.4693 8.61722 52.3553 8.74288 54.2182 9.2191C58.6168 10.3501 61.3481 13.1677 62.5745 17.4867C63.0684 19.2262 63.254 21.0087 63.254 22.8144C63.254 27.9932 63.254 33.1754 63.254 38.3542C63.254 38.5625 63.2308 38.7676 63.2175 39.0255H53.7309C53.7243 38.7378 53.7077 38.4336 53.7077 38.126C53.7077 33.5524 53.7044 28.982 53.7077 24.4084C53.7077 23.3204 53.6448 22.2423 53.3597 21.1873C52.7829 19.0642 51.4372 17.7116 49.2959 17.1626C46.2961 16.3954 43.3494 16.5343 40.5451 17.8869C38.1155 19.0576 36.7863 21.0616 36.4913 23.7337C36.4283 24.3092 36.4151 24.8945 36.4117 25.4766C36.4051 29.6534 36.4084 33.8302 36.4084 38.0037C36.4084 38.3178 36.4084 38.6353 36.4084 39.0355L36.4051 39.0421Z" fill="#111212"/>
<path d="M229.158 7.78479C229.423 5.3508 228.969 2.99949 228.479 0.552277C229.738 0.367082 230.951 0.188502 232.248 0C232.417 2.72501 232.304 5.34419 231.734 7.91377C232.148 8.24117 232.383 8.0229 232.625 7.73519C233.262 6.97787 234.031 6.37599 234.903 5.90639C236.016 5.30781 237.21 5.00026 238.479 4.99034C241.307 4.96719 243.865 5.89978 246.481 7.15315C244.323 9.08116 242.046 10.5925 239.288 11.3895C239.387 11.5151 239.44 11.6044 239.513 11.6739C242.271 14.3956 243.633 17.7622 244.101 21.5355C244.535 25.0542 243.68 28.2455 241.575 31.0962C240.01 33.216 237.992 34.8298 235.721 36.1328C232.065 38.2361 228.121 39.5589 223.994 40.3725C221.409 40.8817 218.813 41.0967 216.178 40.852C210.079 40.2898 205.538 36.9298 203.542 30.8019C202.694 28.1959 202.389 25.537 202.946 22.8319C203.552 19.882 205.11 17.4678 207.301 15.4406C209.565 13.3506 212.214 11.8789 215.048 10.7215C218.144 9.45816 221.346 8.55203 224.657 8.08904C225.936 7.91046 227.242 7.91046 228.535 7.82779C228.717 7.81456 228.903 7.80464 229.152 7.79141L229.158 7.78479ZM223.397 17.114C221.289 17.1007 219.131 17.2595 217.053 17.9738C214.597 18.8237 212.797 20.3251 212.34 23.0204C212.214 23.7645 212.204 24.5515 212.273 25.3055C212.429 27.0417 213.201 28.477 214.613 29.5419C215.512 30.2198 216.519 30.6795 217.597 30.9771C220.232 31.7014 222.923 31.7675 225.628 31.5823C227.163 31.4765 228.678 31.245 230.123 30.696C232.672 29.7238 234.352 28.0272 234.621 25.2096C234.859 22.6996 234.167 20.5368 231.989 19.0651C231.3 18.5988 230.511 18.245 229.722 17.9606C227.703 17.2363 225.592 17.1074 223.394 17.114H223.397Z" fill="#F28520"/>
<path d="M107.583 39.2321H97.9335V34.2649C97.8506 34.2153 97.7678 34.169 97.6882 34.1194C97.6385 34.2385 97.6153 34.3774 97.539 34.4733C95.4442 37.1123 92.6333 38.5806 89.4214 39.3975C86.9586 40.0225 84.4494 40.1647 81.9335 40.0192C79.1094 39.8538 76.3881 39.2123 73.8789 37.8597C70.3255 35.9416 68.055 33.0049 67.0937 29.1092C66.2949 25.8749 66.3048 22.6175 67.1733 19.3898C68.3533 15.008 71.1244 12.0052 75.281 10.2491C77.4189 9.34631 79.663 8.90647 81.9833 8.76426C84.9201 8.58568 87.7939 8.84363 90.608 9.72C93.4089 10.5931 95.7955 12.0746 97.6252 14.3929C97.6716 14.4491 97.7379 14.4888 97.907 14.6343C97.9633 13.0271 97.897 11.5157 97.9467 9.9548H107.5C107.679 10.5137 107.762 37.3603 107.583 39.2354V39.2321ZM87.2105 31.9897C89.196 32.0492 91.1649 31.8309 93.0576 31.1662C95.295 30.3758 97.012 28.9968 97.6352 26.6124C97.8572 25.7559 97.9302 24.8365 97.907 23.9502C97.8307 21.1128 96.4187 19.1219 93.8432 17.9446C92.3317 17.2535 90.7241 16.9691 89.08 16.8268C86.4382 16.5954 83.8428 16.7541 81.3269 17.647C78.6089 18.6093 76.9582 20.4745 76.6466 23.3748C76.2588 26.963 77.6775 29.8798 81.4065 31.1827C83.2793 31.8375 85.2184 32.0459 87.2105 31.9897Z" fill="#111212"/>
<path d="M122.1 39.0438H112.57V9.86574C113.114 9.69377 120.29 9.62102 122.08 9.78637C122.087 10.8149 122.093 11.8599 122.097 12.9049C122.097 13.9599 122.097 15.0115 122.097 16.1161C122.458 16.0896 122.557 15.8118 122.713 15.6332C125.01 12.9744 127.801 11.0331 131.146 9.91535C133.035 9.2837 134.978 8.93315 136.97 8.78433C138.591 8.66197 140.198 8.68182 141.812 8.81741C144.454 9.03898 146.987 9.67393 149.247 11.1059C151.829 12.7429 153.374 15.1438 154.193 18.0474C154.713 19.8927 154.902 21.7843 154.909 23.6892C154.925 28.577 154.915 33.4682 154.912 38.356C154.912 38.5643 154.886 38.7727 154.869 39.0306H145.343C145.343 38.7164 145.343 38.432 145.343 38.1476C145.343 34.447 145.343 30.7464 145.343 27.0492C145.343 25.5114 145.243 23.9901 144.832 22.4954C144.05 19.6513 142.174 17.8953 139.346 17.2372C135.574 16.3575 131.815 16.5063 128.186 17.925C124.632 19.314 122.687 22.0026 122.223 25.7594C122.12 26.5961 122.1 27.446 122.097 28.2893C122.083 31.5666 122.09 34.8439 122.09 38.1212V39.0471L122.1 39.0438Z" fill="#111212"/>
<path d="M251.811 11.8039C252.825 11.8039 253.803 11.8039 254.781 11.8039C256.236 11.8039 257.695 11.7775 259.15 11.8271C259.72 11.8469 260.32 11.9527 260.84 12.1743C262.733 12.9845 263.008 15.6335 261.364 16.8769C261.261 16.953 261.162 17.0324 261.013 17.1481C262.08 17.4524 262.411 18.1766 262.365 19.1588C262.338 19.6813 262.362 20.2104 262.362 20.8222C261.487 20.8851 260.651 20.8454 259.707 20.8487C259.7 20.3262 259.7 19.8367 259.69 19.3473C259.67 18.5106 259.488 18.3089 258.662 18.2957C257.393 18.2791 256.12 18.2924 254.851 18.2957C254.748 18.2957 254.642 18.3155 254.446 18.3387V20.7991H251.851C251.705 20.2501 251.662 12.9812 251.814 11.8072L251.811 11.8039ZM254.436 16.0237C254.559 16.07 254.605 16.1031 254.655 16.1031C255.689 16.113 256.72 16.1196 257.754 16.1196C258.099 16.1196 258.447 16.1262 258.785 16.07C259.342 15.9774 259.604 15.6434 259.62 15.0845C259.64 14.4231 259.312 14.023 258.639 14.0097C257.317 13.9833 255.991 13.9998 254.668 14.0064C254.599 14.0064 254.532 14.0659 254.44 14.1089V16.0237H254.436Z" fill="#F28520"/>
<path d="M271.462 16.3207C273.007 17.8155 274.498 19.2574 275.993 20.6992C275.973 20.7455 275.954 20.7951 275.937 20.8414C274.863 20.8414 273.789 20.8547 272.715 20.8282C272.539 20.8249 272.337 20.6596 272.198 20.5207C271.479 19.8196 270.776 19.1019 270.063 18.3909C269.937 18.2619 269.798 18.1462 269.609 17.9775C268.791 18.8109 267.982 19.6079 267.206 20.4347C266.931 20.729 266.653 20.8679 266.242 20.858C265.29 20.8315 264.336 20.8481 263.195 20.8481C264.75 19.2375 266.314 17.8486 267.826 16.3174C266.308 14.8491 264.813 13.4039 263.238 11.8826C263.699 11.7438 264.09 11.8066 264.465 11.8033C265.231 11.8033 266.082 11.6181 266.742 11.8926C267.402 12.1637 267.872 12.8946 268.416 13.4337C268.81 13.8239 269.195 14.224 269.632 14.6672C270.345 13.9595 271.084 13.3146 271.714 12.5771C272.248 11.9488 272.838 11.7206 273.647 11.7901C274.402 11.8562 275.165 11.8033 276 11.9521C274.512 13.3907 273.02 14.8292 271.465 16.3306L271.462 16.3207Z" fill="#F28520"/>
</g>
<defs>
<clipPath id="clip0_1861_39270">
<rect width="276" height="51.9438" fill="white"/>
</clipPath>
</defs>
</svg>
