<svg width="20" height="20" viewBox="0 0 20 20" fill="none" xmlns="http://www.w3.org/2000/svg">
<path d="M7.02969 10.1438C6.69832 10.1438 6.42969 10.4124 6.42969 10.7438C6.42969 11.0751 6.69832 11.3438 7.02969 11.3438H7.03632C7.36769 11.3438 7.63632 11.0751 7.63632 10.7438C7.63632 10.4124 7.36769 10.1438 7.03632 10.1438H7.02969Z" fill="#AFB9BB"/>
<path d="M9.98306 10.1438C9.65169 10.1438 9.38306 10.4124 9.38306 10.7438C9.38306 11.0751 9.65169 11.3438 9.98306 11.3438H9.98969C10.3211 11.3438 10.5897 11.0751 10.5897 10.7438C10.5897 10.4124 10.3211 10.1438 9.98969 10.1438H9.98306Z" fill="#AFB9BB"/>
<path d="M12.3439 10.7438C12.3439 10.4124 12.6125 10.1438 12.9439 10.1438H12.9505C13.2819 10.1438 13.5505 10.4124 13.5505 10.7438C13.5505 11.0751 13.2819 11.3438 12.9505 11.3438H12.9439C12.6125 11.3438 12.3439 11.0751 12.3439 10.7438Z" fill="#AFB9BB"/>
<path d="M9.98969 3.85C10.3211 3.85 10.5897 4.11863 10.5897 4.45V4.95978H11.0997C11.4311 4.95978 11.6997 5.22841 11.6997 5.55978C11.6997 5.89115 11.4311 6.15978 11.0997 6.15978H10.5897V6.66956C10.5897 7.00093 10.3211 7.26956 9.98969 7.26956C9.65832 7.26956 9.38969 7.00093 9.38969 6.66956V6.15978H8.87969C8.54832 6.15978 8.27969 5.89115 8.27969 5.55978C8.27969 5.22841 8.54832 4.95978 8.87969 4.95978H9.38969V4.45C9.38969 4.11863 9.65832 3.85 9.98969 3.85Z" fill="#AFB9BB"/>
<path fill-rule="evenodd" clip-rule="evenodd" d="M9.94863 2H10.0308C10.6934 1.99998 11.2504 1.99996 11.6936 2.05953C12.1631 2.12264 12.5936 2.26236 12.9404 2.60909C13.2873 2.95585 13.427 3.38631 13.4902 3.85581C13.5075 3.98511 13.5199 4.1241 13.5286 4.27258C14.36 4.3695 15.0445 4.5885 15.5797 5.12518C16.0888 5.63563 16.3096 6.27946 16.4133 7.05291C16.5135 7.80002 16.5135 8.7514 16.5134 9.93817V16.925H16.6484C16.9549 16.925 17.2033 17.1735 17.2033 17.4799C17.2033 17.7864 16.9549 18.0349 16.6484 18.0349L3.32838 18.0349C3.02189 18.0349 2.77344 17.7864 2.77344 17.4799C2.77344 17.1735 3.02189 16.925 3.32838 16.925H3.47344V9.93815C3.47342 8.7514 3.47341 7.80002 3.57358 7.05291C3.67729 6.27946 3.89812 5.63563 4.40719 5.12518C4.94079 4.59013 5.62274 4.37083 6.45076 4.27346C6.45948 4.12465 6.47181 3.98536 6.48923 3.85581C6.55236 3.38631 6.69213 2.95585 7.03895 2.60909C7.38576 2.26236 7.81626 2.12264 8.2858 2.05953C8.72895 1.99996 9.28601 1.99998 9.94863 2ZM4.67344 16.925H7.54219V15.5242C7.54218 15.2002 7.54216 14.9177 7.56323 14.6854C7.58559 14.4387 7.63543 14.1902 7.77131 13.9548C7.92141 13.6949 8.13729 13.4791 8.39724 13.329C8.63255 13.1932 8.88107 13.1434 9.12778 13.121C9.36019 13.1 9.64272 13.1 9.96683 13.1H10.0176C10.3417 13.1 10.6242 13.1 10.8566 13.121C11.1033 13.1434 11.3518 13.1932 11.5871 13.329C11.8471 13.4791 12.063 13.6949 12.2131 13.9548C12.349 14.1902 12.3988 14.4387 12.4212 14.6854C12.4422 14.9178 12.4422 15.2002 12.4422 15.5243V16.925H15.3134V9.98233C15.3134 8.74114 15.3122 7.87045 15.2239 7.21238C15.138 6.5714 14.9795 6.22275 14.73 5.97255C14.4868 5.72866 14.1523 5.57319 13.5497 5.48569V5.60047C13.5497 6.26297 13.5497 6.81991 13.4902 7.26302C13.427 7.73251 13.2873 8.16298 12.9404 8.50973C12.5936 8.85647 12.1631 8.99618 11.6936 9.0593C11.2504 9.11887 10.6934 9.11885 10.0307 9.11882H9.94864C9.28599 9.11885 8.72896 9.11887 8.2858 9.0593C7.81626 8.99618 7.38576 8.85647 7.03895 8.50973C6.69213 8.16298 6.55236 7.73251 6.48923 7.26302C6.42964 6.81992 6.42966 6.26297 6.42969 5.60049L6.42969 5.48678C5.83183 5.57449 5.49909 5.72967 5.25687 5.97255C5.00735 6.22275 4.84888 6.5714 4.76294 7.21238C4.67471 7.87045 4.67344 8.74114 4.67344 9.98233V16.925ZM11.2422 15.5496V16.925H8.74219L8.74219 15.5496C8.74219 15.1929 8.74277 14.9654 8.75833 14.7937C8.77314 14.6303 8.79766 14.5772 8.81049 14.5549C8.85524 14.4774 8.91961 14.4131 8.99715 14.3683C9.0194 14.3555 9.07258 14.331 9.23607 14.3161C9.40781 14.3006 9.63534 14.3 9.99219 14.3C10.349 14.3 10.5766 14.3006 10.7483 14.3161C10.9118 14.331 10.965 14.3555 10.9872 14.3683C11.0648 14.4131 11.1291 14.4774 11.1739 14.5549C11.1867 14.5772 11.2112 14.6303 11.2261 14.7937C11.2416 14.9654 11.2422 15.1929 11.2422 15.5496ZM7.62969 5.55941C7.62969 5.29569 7.62986 5.06453 7.63247 4.86004C7.63346 4.84285 7.63371 4.82548 7.6332 4.80797C7.63815 4.48334 7.65003 4.22766 7.67852 4.01574C7.72376 3.67935 7.80074 3.54435 7.88739 3.45771C7.97407 3.37105 8.10915 3.29406 8.44566 3.24883C8.79942 3.20128 9.27505 3.2 9.98969 3.2C10.7043 3.2 11.18 3.20128 11.5337 3.24883C11.8702 3.29406 12.0053 3.37105 12.092 3.45771C12.1786 3.54435 12.2556 3.67935 12.3009 4.01574C12.3484 4.3694 12.3497 4.84491 12.3497 5.55941C12.3497 6.27392 12.3484 6.74943 12.3009 7.10309C12.2556 7.43948 12.1786 7.57448 12.092 7.66112C12.0053 7.74778 11.8702 7.82476 11.5337 7.87C11.18 7.91755 10.7043 7.91882 9.98969 7.91882C9.27505 7.91882 8.79942 7.91755 8.44566 7.87C8.10915 7.82476 7.97407 7.74778 7.88739 7.66112C7.80074 7.57448 7.72376 7.43948 7.67852 7.10309C7.63097 6.74943 7.62969 6.27392 7.62969 5.55941Z" fill="#AFB9BB"/>
</svg>
