<svg width="20" height="20" viewBox="0 0 20 20" fill="none" xmlns="http://www.w3.org/2000/svg">
<path d="M16.3192 13.9453C17.4196 13.9453 18.3103 14.8213 18.3103 15.9361C18.3103 17.051 17.4196 17.927 16.3192 17.927C15.2189 17.927 14.3281 17.051 14.3281 15.9361C14.3281 14.8213 15.2189 13.9453 16.3192 13.9453Z" fill="white"/>
<path fill-rule="evenodd" clip-rule="evenodd" d="M17.2499 13.1558C17.6714 12.1916 17.904 11.1262 17.904 10C17.904 5.52 14.2235 2 9.60573 2H3.27344V18H9.60573C11.0618 18 12.4247 17.65 13.6083 17.0303C13.473 16.6928 13.3984 16.3228 13.3984 15.9332C13.3984 14.2977 14.7122 13.0078 16.3242 13.0078C16.6475 13.0078 16.9588 13.0597 17.2499 13.1558ZM16.8162 14.0026C16.6589 13.9633 16.4941 13.9424 16.3242 13.9424C15.2239 13.9424 14.3331 14.8184 14.3331 15.9332C14.3331 16.1458 14.3655 16.3498 14.4256 16.5406C15.4025 15.8756 16.2198 15.0105 16.8162 14.0026ZM6.35957 4.69714H9.28569C12.349 4.69714 14.7493 7.00571 14.7493 10C14.7493 12.9714 12.349 15.3029 9.28569 15.3029H6.35957V4.69714Z" fill="white"/>
</svg>
