<svg width="311" height="67" viewBox="0 0 311 67" fill="none" xmlns="http://www.w3.org/2000/svg">
<path d="M303.095 43C306.04 43 308.425 45.3141 308.425 48.2594C308.425 51.2046 306.04 53.5187 303.095 53.5187C300.15 53.5187 297.766 51.2046 297.766 48.2594C297.766 45.3141 300.15 43 303.095 43Z" fill="#175BCC"/>
<path d="M36.1057 33.6906C36.1057 44.748 27.0228 53.4359 15.627 53.4359H0V13.9453H15.627C27.0228 13.9453 36.1057 22.6332 36.1057 33.6906ZM14.8372 20.6023H7.61604V46.7789H14.8372C22.3968 46.7789 28.3204 41.0246 28.3204 33.6906C28.3204 26.3002 22.3968 20.6023 14.8372 20.6023Z" fill="#175BCC"/>
<path d="M68.8044 38.8808C68.8044 47.343 61.6397 54.2257 52.7825 54.2257C43.9817 54.2257 36.7606 47.343 36.7606 38.8808C36.7606 30.4185 43.9817 23.5359 52.7825 23.5359C61.6397 23.5359 68.8044 30.3621 68.8044 38.8808ZM61.4704 38.8808C61.4704 33.9727 57.6342 30.08 52.7825 30.08C47.9872 30.08 44.0946 33.9727 44.0946 38.8808C44.0946 43.7889 47.9872 47.6815 52.7825 47.6815C57.6342 47.6815 61.4704 43.7889 61.4704 38.8808Z" fill="#175BCC"/>
<path d="M76.368 38.8244C76.368 43.7325 80.2606 47.6815 85.0559 47.6815C88.1587 47.6815 90.6974 46.2147 92.3899 43.9017L97.6365 47.738C94.7029 51.5742 90.7538 54.1693 85.0559 54.1693C76.0295 54.1693 69.034 47.2866 69.034 38.8244C69.034 30.3621 76.0295 23.5359 85.0559 23.5359C90.7538 23.5359 94.7029 26.131 97.6365 29.9672L92.3899 33.8034C90.6974 31.4904 88.1587 30.0236 85.0559 30.0236C80.2606 30.0236 76.368 33.9163 76.368 38.8244Z" fill="#175BCC"/>
<path d="M105.982 36.1866V53.4496H98.6484V24.283H105.982V26.6525C107.957 24.6779 110.778 23.4932 113.824 23.4932C118.112 23.4932 121.553 25.5241 123.415 28.627C125.389 25.4113 128.831 23.4932 132.78 23.4932C139.437 23.4932 143.893 28.4013 143.893 34.6634V53.4496H136.559V36.1866C136.559 32.576 134.19 30.0938 130.749 30.0938C127.364 30.0938 124.938 32.4632 124.938 36.1866V53.4496H117.604V36.1866C117.604 32.576 115.234 30.0938 111.793 30.0938C108.352 30.0938 105.982 32.4632 105.982 36.1866Z" fill="#0C0C0D"/>
<path d="M145.167 38.8381C145.167 30.7143 151.655 23.606 160.286 23.606C169.031 23.606 175.236 30.0938 175.236 39.1766V41.3204H152.727C153.686 45.1002 156.845 47.8645 160.907 47.8645C164.01 47.8645 166.436 46.7926 168.579 44.0283L173.713 47.8645C170.78 51.87 166.379 54.183 160.963 54.183C152.05 54.183 145.167 47.7517 145.167 38.8381ZM160.117 29.9245C156.676 29.9245 153.855 32.1247 152.84 35.6789H167.79C166.718 32.0683 163.671 29.9245 160.117 29.9245Z" fill="#0C0C0D"/>
<path d="M207.838 53.4496H200.504V50.7417C197.909 52.9419 194.637 54.2394 191.083 54.2394C182.395 54.2394 175.512 47.3004 175.512 38.8945C175.512 30.4323 182.395 23.5496 191.083 23.5496C194.637 23.5496 197.853 24.8472 200.448 26.9909V13.9591H207.838V53.4496ZM200.561 38.8945C200.561 33.93 196.611 30.0374 191.703 30.0374C186.852 30.0374 182.846 33.93 182.846 38.8945C182.846 43.8026 186.852 47.8081 191.703 47.8081C196.611 47.8081 200.561 43.8026 200.561 38.8945Z" fill="#0C0C0D"/>
<path d="M213.792 21.1802C211.479 21.1802 209.617 19.3749 209.617 17.0619C209.617 14.7489 211.479 13 213.792 13C216.105 13 217.854 14.7489 217.854 17.0619C217.854 19.3749 216.105 21.1802 213.792 21.1802ZM217.459 24.283V53.4496H210.068V24.283H217.459Z" fill="#0C0C0D"/>
<path d="M227.089 53.4496H219.698V13.9591H227.089V53.4496Z" fill="#0C0C0D"/>
<path d="M233.052 21.1802C230.739 21.1802 228.877 19.3749 228.877 17.0619C228.877 14.7489 230.739 13 233.052 13C235.365 13 237.114 14.7489 237.114 17.0619C237.114 19.3749 235.365 21.1802 233.052 21.1802ZM236.719 24.283V53.4496H229.329V24.283H236.719Z" fill="#0C0C0D"/>
<path d="M265.869 34.8891V53.4496H258.479V36.3558C258.479 32.576 256.053 30.0938 252.442 30.0938C248.888 30.0938 246.349 32.4632 246.349 36.3558V53.4496H238.959V24.283H246.349V26.7653C248.38 24.6779 251.201 23.4932 254.36 23.4932C261.186 23.4932 265.869 28.5141 265.869 34.8891Z" fill="#0C0C0D"/>
<path d="M268.147 13.9591H275.538V36.8636L285.692 24.283H294.155L282.364 38.3304L295.001 53.4496H285.974L275.538 40.4177V53.4496H268.147V13.9591Z" fill="#0C0C0D"/>
</svg>
