<svg width="138" height="137" viewBox="0 0 138 137" fill="none" xmlns="http://www.w3.org/2000/svg">
<path d="M105.887 125.955C110.409 123.043 114.564 119.615 118.271 115.75C114.564 119.614 110.409 123.044 105.887 125.955Z" fill="#7285C1"/>
<path d="M0.5 68.4095C0.5 79.3832 3.09847 89.7452 7.69093 98.9368C7.85429 98.6954 7.9988 98.4474 8.1764 98.2128C9.38358 96.6148 10.8243 95.3036 12.4049 94.2558L12.4876 94.1894L12.4926 94.1772C12.4926 94.1772 12.6315 94.0547 12.909 93.8465C13.2916 93.5527 13.7203 93.2628 14.1907 92.9793C17.9754 90.6213 28.4833 85.6009 49.246 85.5693C49.6215 85.0478 49.9939 84.5213 50.3968 84.0306C52.5387 81.4296 55.0722 79.2919 57.8784 77.7419L57.8866 72.6686L57.8835 71.8809H57.8877V71.8553C53.4378 71.7431 50.0909 67.6964 50.8766 63.275L51.4216 60.2108C50.8716 60.4414 50.2676 60.5689 49.6328 60.5639C47.9441 60.5507 46.4951 59.6047 45.7267 58.2283C42.3504 56.1662 40.3063 52.1449 40.8207 47.7072C41.0963 45.3307 42.0685 43.193 43.4889 41.4889L43.4807 41.4878C45.1572 39.3807 44.4133 37.6583 44.096 37.1113L44.0407 37.0193L43.9775 36.9266L43.9856 36.9255C42.5621 34.6603 41.9642 31.8072 42.5357 28.8615C43.706 22.8208 49.3203 18.6953 55.0741 19.6474C56.0323 19.8066 56.9261 20.1067 57.7578 20.5055L57.7609 20.4933C57.7609 20.4933 60.6199 22.1188 64.8884 19.0843L65.0434 18.9944C67.1884 17.6454 69.7546 17.0322 72.3524 17.4628C76.4768 18.1454 79.5421 21.2567 80.5227 25.1851L80.5319 25.1719C80.5319 25.1719 81.2511 29.2799 85.241 29.677L85.2399 29.6892L85.5635 29.7248C91.3175 30.6779 95.0327 36.3471 93.8623 42.3888C93.5285 44.1133 92.8225 45.6723 91.8654 47.011L91.8778 47.0163C91.8778 47.0163 90.9676 48.1376 91.9094 50.5701C92.0533 50.8508 92.1808 51.1406 92.3002 51.4355L92.3808 51.5987L92.3676 51.5876C93.0022 53.2293 93.2575 55.0721 93.0361 56.9924C92.327 63.1077 87.0413 67.678 81.2312 67.1984C80.4619 67.1351 79.7291 66.9728 79.0281 66.7454L79.02 71.181L79.025 72.6319H79.0179L79.0097 77.1961C81.8373 78.485 84.423 80.3123 86.6473 82.7296C87.6595 83.8274 88.58 85.0673 89.438 86.3957C95.8298 86.6213 101.147 87.3262 105.485 88.2488C110.928 89.408 115.758 92.1721 119.503 96.0138C121.991 98.0861 124.45 101.102 126.855 104.76C125.636 106.697 124.323 108.569 122.922 110.369C130.873 100.149 135.981 87.6192 137.078 73.9499C137.225 72.1205 137.321 70.2766 137.321 68.4095C137.321 30.6278 106.693 0 68.9112 0C62.5224 0 56.3466 0.894711 50.4808 2.53248C21.6545 10.5812 0.5 37.0162 0.5 68.4095Z" fill="#EFEFEF"/>
<path d="M46.7176 133.119C46.0821 132.901 45.4474 132.681 44.8203 132.445C45.4474 132.681 46.0817 132.901 46.7176 133.119Z" fill="#7285C1"/>
<path d="M11.0128 104.835C10.6297 104.227 10.255 103.613 9.89062 102.992C10.255 103.613 10.6293 104.227 11.0128 104.835Z" fill="#7285C1"/>
<path d="M57.8746 80.0247L57.8756 78.8594C55.3746 80.3206 53.1043 82.2868 51.1544 84.6532C50.9136 84.9449 50.6993 85.2653 50.4688 85.5684C50.5676 85.5694 50.6606 85.5673 50.7586 85.5684C53.0697 85.4461 55.438 85.3583 57.8605 85.3093V80.0247H57.8746Z" fill="#949494"/>
<path d="M9.80832 102.84C9.07531 101.585 8.38042 100.305 7.72656 99C8.38042 100.305 9.07531 101.585 9.80832 102.84Z" fill="#7285C1"/>
<path d="M14.9043 110.379C13.5742 108.67 12.3243 106.896 11.1582 105.062C12.3243 106.896 13.574 108.67 14.9043 110.379Z" fill="#7285C1"/>
<path d="M19.336 115.527C17.8477 113.962 16.4334 112.326 15.0977 110.625C16.4338 112.326 17.8475 113.961 19.336 115.527Z" fill="#7285C1"/>
<path d="M54.2262 135.228C53.6017 135.092 52.9784 134.951 52.361 134.798C51.6875 134.631 51.021 134.445 50.3555 134.258C55.1815 135.615 60.2154 136.475 65.4102 136.737C61.9342 136.561 58.5268 136.125 55.206 135.45C54.8763 135.383 54.5538 135.3 54.2262 135.228Z" fill="#7285C1"/>
<path d="M32.6086 126.385C32.28 126.179 31.9535 125.969 31.628 125.756C29.1006 124.11 26.6896 122.3 24.4082 120.344C27.5966 123.079 31.038 125.523 34.6956 127.64C34.1404 127.319 33.5852 126.998 33.0402 126.662C32.8943 126.571 32.7533 126.476 32.6086 126.385Z" fill="#7285C1"/>
<path d="M19.5215 115.719C21.038 117.302 22.6289 118.811 24.2905 120.243C22.6291 118.811 21.0378 117.301 19.5215 115.719Z" fill="#7285C1"/>
<path d="M79.0548 80.0318V85.8612C80.8997 85.9958 82.7098 86.1508 84.4752 86.3276C85.769 86.3215 87.0179 86.3368 88.2343 86.3674C87.5109 85.3051 86.7517 84.2969 85.9253 83.4001C83.8946 81.196 81.5559 79.5134 79.0071 78.2891L79.0039 80.032H79.0548V80.0318Z" fill="#949494"/>
<path d="M80.6355 135.797C79.8413 135.935 79.0417 136.058 78.2383 136.169C79.0423 136.059 79.8407 135.934 80.6355 135.797Z" fill="#7285C1"/>
<path d="M39.8237 130.334C39.248 130.063 38.6802 129.778 38.1133 129.492C38.6802 129.779 39.248 130.063 39.8237 130.334Z" fill="#7285C1"/>
<path d="M96.9785 130.793C100.078 129.396 103.052 127.777 105.885 125.953C103.936 127.207 101.919 128.366 99.8411 129.422C98.899 129.9 97.9448 130.357 96.9785 130.793Z" fill="#7285C1"/>
<path d="M72.7092 136.711C72.4759 136.724 72.2413 136.732 72.0078 136.743C72.2415 136.733 72.4759 136.724 72.7092 136.711Z" fill="#7285C1"/>
<path d="M76.5988 136.375C76.2004 136.42 75.8008 136.463 75.4004 136.501C75.801 136.464 76.1998 136.42 76.5988 136.375Z" fill="#7285C1"/>
<path d="M81.3418 135.672C83.344 135.304 85.3141 134.851 87.2514 134.312C86.4798 134.527 85.7026 134.728 84.9204 134.916C83.7392 135.199 82.5454 135.449 81.3418 135.672Z" fill="#7285C1"/>
<path d="M87.2559 134.316C90.6083 133.384 93.8551 132.205 96.9793 130.797C96.0129 131.232 95.0347 131.646 94.0449 132.037C91.8353 132.91 89.5705 133.672 87.2559 134.316Z" fill="#7285C1"/>
<path d="M122.778 110.555C121.405 112.307 119.948 113.991 118.414 115.6C119.949 113.991 121.405 112.308 122.778 110.555Z" fill="#7285C1"/>
<path d="M12.9082 93.8517C13.1857 93.6435 13.6092 93.3465 14.1899 92.9844C13.7193 93.2679 13.2908 93.5578 12.9082 93.8517Z" fill="#6DBFB0"/>
<path d="M12.487 94.1875L12.4043 94.2539L12.4778 94.207L12.487 94.1875Z" fill="#6DBFB0"/>
<path d="M83.7889 86.3226C84.0235 86.3197 84.243 86.3257 84.4756 86.3236C82.7103 86.1471 80.9002 85.9921 79.0553 85.8572V88.005C79.0553 93.8578 74.3105 98.6038 68.4575 98.6038C62.6044 98.6038 57.8597 93.858 57.8597 88.005V85.3125C55.4374 85.3615 53.0691 85.4493 50.7578 85.5716H50.762C50.762 85.5716 51.1405 94.305 51.6129 108.823C53.8252 110.961 55.2058 113.952 55.2058 117.271L55.1834 117.382L55.2058 117.493V135.447C58.5265 136.122 61.934 136.558 65.41 136.734C66.5694 136.792 67.7366 136.822 68.9105 136.822C69.9491 136.822 70.9805 136.791 72.0078 136.744C72.2415 136.733 72.4759 136.725 72.7092 136.712C73.6108 136.662 74.5074 136.593 75.3994 136.508C75.7998 136.469 76.1994 136.426 76.5978 136.381C77.1471 136.319 77.6933 136.248 78.2385 136.173C79.0419 136.062 79.8415 135.939 80.6356 135.801C80.8717 135.759 81.1073 135.718 81.3425 135.674C82.5461 135.452 83.7399 135.202 84.9211 134.918C84.3213 105.761 83.7889 86.3226 83.7889 86.3226Z" fill="#175BCC"/>
<path d="M54.2469 117.376L54.2255 117.265C54.2244 114.605 53.2571 112.177 51.6602 110.297C51.8847 117.3 52.1276 125.571 52.3601 134.789C52.9775 134.942 53.601 135.083 54.2253 135.219V117.488L54.2469 117.376Z" fill="#6DBFB0"/>
<path d="M43.9531 105.542C46.9254 105.667 49.6112 106.887 51.613 108.822C51.1407 94.304 50.762 85.5706 50.762 85.5706H50.7579C50.6598 85.5696 50.5671 85.5717 50.468 85.5706C46.4827 90.8257 44.0093 97.8215 43.9531 105.542Z" fill="#E6E6E6"/>
<path d="M51.6611 110.306C51.4714 110.083 51.2774 109.863 51.0703 109.656C49.1182 107.705 46.4286 106.501 43.4511 106.5C40.4746 106.501 37.784 107.705 35.8329 109.656C33.8829 111.607 32.6778 114.298 32.6778 117.274L32.6074 117.512V125.763C34.3187 119.5 35.7133 114.712 35.7144 114.71C35.7644 114.537 35.946 114.437 36.1194 114.488C36.2928 114.539 36.3919 114.72 36.3419 114.893C36.3408 114.897 36.0172 116.005 35.4907 117.857C34.9631 119.71 34.2326 122.305 33.4194 125.269C33.295 125.725 33.1674 126.192 33.0386 126.666C33.5836 127.002 34.139 127.323 34.694 127.644C34.9811 127.81 35.2674 127.978 35.5575 128.14C36.0993 128.444 36.6463 128.738 37.1969 129.027C37.5008 129.186 37.8073 129.342 38.1137 129.496C38.6806 129.783 39.2484 130.067 39.8241 130.338C40.0438 130.442 40.2675 130.538 40.4884 130.639C41.7568 131.219 43.0448 131.763 44.3533 132.266C44.5091 132.326 44.6626 132.391 44.8191 132.45C45.4461 132.686 46.0807 132.906 46.7163 133.123C47.0087 133.224 47.3003 133.324 47.5941 133.42C48.2224 133.626 48.8545 133.824 49.4909 134.012C49.7777 134.097 50.0667 134.176 50.3549 134.257C51.0204 134.445 51.6869 134.63 52.3604 134.798C52.1286 125.58 51.8856 117.309 51.6611 110.306Z" fill="#E6E6E6"/>
<path d="M31.6276 117.492L31.699 117.252C31.7082 110.93 36.7112 105.792 42.9733 105.539C43.0294 97.8986 45.3845 90.9335 49.2467 85.5703C28.484 85.6019 17.9761 90.6223 14.1914 92.9803C13.6108 93.3426 13.1874 93.6396 12.9096 93.8476C12.6319 94.0555 12.4933 94.1783 12.4933 94.1783L12.4883 94.1904L12.4791 94.2099L12.4055 94.2568C10.8249 95.3048 9.38425 96.6159 8.17708 98.2138C7.99948 98.4484 7.85497 98.6962 7.69161 98.9378C7.69161 98.9381 7.69141 98.9381 7.69141 98.9385C7.70313 98.9619 7.71611 98.985 7.72784 99.0084C8.38169 100.313 9.07658 101.593 9.8096 102.849C9.83724 102.896 9.86366 102.944 9.89151 102.991C10.2561 103.612 10.6306 104.226 11.0136 104.834C11.0614 104.909 11.1104 104.984 11.1584 105.059C12.3245 106.893 13.5744 108.667 14.9045 110.376C14.9682 110.458 15.0331 110.54 15.0974 110.621C16.4332 112.322 17.8475 113.958 19.3357 115.523C19.3973 115.588 19.4591 115.653 19.5215 115.718C21.0378 117.3 22.6291 118.81 24.2905 120.242C24.3299 120.276 24.3686 120.31 24.4078 120.344C26.6891 122.3 29.0999 124.11 31.6276 125.756V117.492Z" fill="white"/>
<path d="M33.0387 126.659C33.1673 126.186 33.2948 125.718 33.4194 125.262C34.2326 122.298 34.9632 119.703 35.4907 117.85C36.0172 115.998 36.3408 114.89 36.3419 114.887C36.3917 114.714 36.2928 114.532 36.1194 114.482C35.946 114.431 35.7642 114.531 35.7144 114.703C35.7133 114.706 34.3185 119.493 32.6074 125.756V126.383C32.7519 126.473 32.8929 126.569 33.0387 126.659Z" fill="#2F313E"/>
<path d="M99.9223 128.624C99.9223 126.558 98.3275 124.884 96.3052 124.717L95.249 105.976V105.972C94.7195 97.8518 92.6296 91.3396 89.438 86.3949C88.5798 85.0663 87.6595 83.8266 86.6473 82.7288C84.4229 80.3115 81.8372 78.484 79.0097 77.1953L79.0078 78.2821C81.5566 79.5066 83.8954 81.189 85.926 83.3931C86.7525 84.2901 87.5117 85.2981 88.2351 86.3604C91.5309 91.197 93.7268 97.7203 94.2707 106.034L95.3248 124.751C93.4657 125.067 92.0453 126.674 92.0453 128.624C92.0453 130.09 92.8556 131.354 94.0441 132.033C95.0339 131.642 96.0122 131.228 96.9785 130.793C97.9448 130.357 98.899 129.9 99.8408 129.422C99.8936 129.163 99.9223 128.897 99.9223 128.624Z" fill="#2F313E"/>
<path d="M31.6973 117.251C31.7821 117.105 31.9339 117.001 32.1167 117.001C32.3871 117.001 32.6066 117.22 32.6066 117.491V117.507L32.677 117.269C32.677 114.292 33.8821 111.602 35.8321 109.651C37.7832 107.7 40.4738 106.496 43.4503 106.495C46.4278 106.496 49.1173 107.7 51.0695 109.651C51.2766 109.858 51.4706 110.077 51.6603 110.301C53.2572 112.181 54.2246 114.609 54.2257 117.269L54.247 117.38C54.2989 117.165 54.4837 117 54.7153 117C54.9469 117 55.1317 117.165 55.1828 117.38L55.2052 117.269C55.2052 113.95 53.8246 110.959 51.6123 108.821C49.6104 106.886 46.9248 105.666 43.9525 105.541C44.0086 97.8204 46.482 90.8245 50.4676 85.5696C50.6981 85.2665 50.9124 84.9463 51.1533 84.6544C53.1033 82.288 55.3736 80.3218 57.8744 78.8606L57.8775 77.7422C55.0715 79.2922 52.538 81.4299 50.3959 84.0309C49.993 84.5216 49.6206 85.0481 49.2451 85.5696C45.3829 90.9328 43.0278 97.8979 42.9717 105.538C36.7094 105.792 31.7065 110.929 31.6973 117.251Z" fill="#2F313E"/>
<path d="M54.7162 117C54.4846 117 54.2999 117.164 54.2479 117.38L54.2266 117.491V135.222C54.5541 135.294 54.8766 135.377 55.2061 135.444V117.491L55.1837 117.38C55.1326 117.164 54.9479 117 54.7162 117Z" fill="#666666"/>
<path d="M32.1179 117C31.9352 117 31.7832 117.104 31.6984 117.251L31.627 117.491V125.755C31.9524 125.967 32.2789 126.177 32.6075 126.383V125.757V117.506V117.491C32.6077 117.219 32.3882 117 32.1179 117Z" fill="#666666"/>
<path d="M49.7069 51.4983C50.8885 51.5075 51.9518 51.9797 52.7527 52.7268L55.1179 39.42C55.8383 39.4363 56.7127 39.1955 57.7198 38.4057C60.6595 36.1007 63.8502 38.368 64.8942 41.1587C65.938 43.9494 69.0236 45.0014 71.2899 43.6198C73.8551 42.0566 78.9653 43.7014 78.9418 48.0585L78.9561 52.2411C79.6581 51.7818 80.4897 51.5054 81.3907 51.4983C83.8947 51.4777 85.9407 53.491 85.961 55.995C85.9813 58.499 83.9672 60.5458 81.4632 60.5653C80.5725 60.5724 79.745 60.3133 79.0398 59.8746L79.0285 66.7467C79.7295 66.9744 80.4623 67.1365 81.2315 67.1997C87.0417 67.6793 92.3271 63.1091 93.0365 56.9938C93.2579 55.0735 93.0028 53.2307 92.368 51.5889L92.3812 51.6L92.3005 51.4369C92.1812 51.142 92.0536 50.8522 91.9097 50.5715C90.9679 48.1389 91.8781 47.0176 91.8781 47.0176L91.8658 47.0124C92.8229 45.6737 93.5291 44.1144 93.8627 42.3902C95.033 36.3484 91.3179 30.6793 85.5639 29.7261L85.2403 29.6905L85.2414 29.6784C81.2517 29.2815 80.5322 25.1732 80.5322 25.1732L80.523 25.1864C79.5425 21.2581 76.4772 18.1469 72.3528 17.4642C69.755 17.0336 67.1888 17.6468 65.0437 18.9958L64.8888 19.0856C60.6205 22.1203 57.7613 20.4947 57.7613 20.4947L57.7582 20.5068C56.9265 20.1079 56.0327 19.808 55.0745 19.6488C49.3205 18.6967 43.7064 22.8221 42.5361 28.8628C41.9645 31.8085 42.5627 34.6616 43.986 36.9269L43.9778 36.9279L44.0411 37.0207L44.0964 37.1127C44.4137 37.6595 45.1576 39.3821 43.4811 41.4892L43.4892 41.4902C42.0688 43.1944 41.0964 45.3321 40.821 47.7086C40.3067 52.1462 42.3508 56.1676 45.727 58.2297C45.3557 57.5653 45.1291 56.8103 45.1362 55.995C45.1561 53.4912 47.2029 51.4779 49.7069 51.4983Z" fill="#383851"/>
<path d="M57.8729 80.0249H57.8587V85.3095V88.0022C57.8587 93.8551 62.6034 98.6011 68.4564 98.6011C74.3095 98.6011 79.0542 93.8553 79.0542 88.0022V85.8545V80.0251H79.0033L79.0065 78.2822L79.0084 77.1954L79.0165 72.6312H79.0237L79.0186 71.1803L79.0268 66.7447L79.0381 59.8725C79.7433 60.3113 80.5707 60.5704 81.4615 60.5632C83.9655 60.5438 85.9796 58.497 85.9593 55.993C85.9389 53.489 83.893 51.4757 81.389 51.4962C80.488 51.5033 79.6563 51.7798 78.9543 52.2391L78.9401 48.0565C78.9635 43.6994 73.8536 42.0545 71.2882 43.6177C69.0219 44.9994 65.9363 43.9474 64.8925 41.1567C63.8487 38.366 60.658 36.0986 57.7181 38.4037C56.711 39.1934 55.8366 39.4343 55.1161 39.4179L52.751 52.7248C51.9499 51.9779 50.8868 51.5054 49.7052 51.4962C47.2012 51.4757 45.1542 53.489 45.1349 55.993C45.1278 56.8083 45.3544 57.5633 45.7258 58.2276C46.4942 59.6042 47.943 60.55 49.6319 60.5632C50.2665 60.5683 50.8707 60.4407 51.4207 60.2101L50.8757 63.2744C50.0901 67.6957 53.4369 71.7426 57.8867 71.8547V71.8802H66.809C65.8396 74.3526 63.5 77.883 57.9112 79.0188L57.8857 72.6679L57.8775 77.7412L57.8744 78.8596L57.8729 80.0249ZM78.7386 56.7756C79.7018 55.3695 81.0663 55.0053 82.116 55.0114C82.5926 55.0124 83.0037 55.0817 83.3181 55.1552C82.9723 54.3175 82.1509 53.7288 81.1917 53.7288H81.1825V53.7277C81.0039 53.7338 80.853 53.597 80.8438 53.4176C80.8346 53.2381 80.9745 53.085 81.1551 53.0758H81.1919C82.8131 53.0758 84.1336 54.3828 84.1468 56.0083V56.0246V56.0328C84.1468 57.654 82.8398 58.9745 81.2152 58.9877C81.0346 58.9887 80.8866 58.8438 80.8855 58.663C80.8834 58.4825 81.0294 58.3355 81.2101 58.3334C82.4743 58.3242 83.4936 57.2946 83.4936 56.0326V56.0131L83.4783 55.8744C83.408 55.8531 83.3355 55.8294 83.2282 55.803C82.9486 55.7337 82.5549 55.6654 82.116 55.6654C81.1957 55.6715 80.1089 55.9461 79.2762 57.1469C79.1742 57.2948 78.97 57.3325 78.8222 57.2305C78.6733 57.1275 78.6356 56.9245 78.7386 56.7756ZM70.9674 50.3278C71.2909 50.3278 71.5521 50.5889 71.5521 50.9125C71.5521 51.234 71.2909 51.4962 70.9674 51.4962C70.6459 51.4962 70.3837 51.234 70.3837 50.9125C70.3837 50.5889 70.6459 50.3278 70.9674 50.3278ZM52.271 57.2305C52.1221 57.3325 51.9179 57.2948 51.8159 57.1469C50.9832 55.9461 49.8966 55.6715 48.9761 55.6654C48.374 55.6644 47.871 55.793 47.6148 55.8736L47.5995 56.0133L47.5985 56.0317V56.0328C47.5985 57.295 48.6178 58.3244 49.883 58.3336C50.0627 58.3357 50.2085 58.4825 50.2066 58.6632C50.2055 58.844 50.0577 58.9889 49.878 58.9879C48.2536 58.9747 46.9455 57.6542 46.9455 56.033L46.9465 56.0085H46.9455L46.9465 56.0053V55.989H46.9476C46.971 54.3726 48.2863 53.0758 49.9016 53.0758H49.9375C50.118 53.0839 50.2579 53.236 50.2497 53.4167C50.2416 53.5962 50.0895 53.7372 49.909 53.729H49.9019C48.9416 53.729 48.1202 54.3177 47.7753 55.1554C48.0886 55.0819 48.4997 55.0126 48.9764 55.0116C50.0263 55.0055 51.3905 55.3697 52.3548 56.7758C52.4565 56.9245 52.4188 57.1275 52.271 57.2305ZM64.6054 53.8777C64.691 53.7185 64.89 53.6603 65.0481 53.7459C65.2063 53.8327 65.2655 54.0306 65.1788 54.1887L63.8768 56.5865L64.8829 56.6162C65.0634 56.6213 65.2054 56.7723 65.2002 56.9518C65.1941 57.1325 65.0441 57.2743 64.8634 57.2693L63.3268 57.2244L63.0533 57.0602L63.0493 56.7419L64.6054 53.8777ZM60.3962 51.496C60.0736 51.496 59.8125 51.2338 59.8125 50.9123C59.8125 50.5887 60.0736 50.3276 60.3962 50.3276C60.7187 50.3276 60.9799 50.5887 60.9799 50.9123C60.9799 51.2338 60.7187 51.496 60.3962 51.496ZM64.8921 64.7538C62.9083 64.7538 61.3024 63.1458 61.3024 61.1631H68.4818C68.4818 63.1458 66.8757 64.7538 64.8921 64.7538Z" fill="#CBDDF7"/>
<path d="M79.2793 57.1493C80.1118 55.9484 81.1986 55.6738 82.119 55.6678C82.5578 55.6678 82.9517 55.736 83.2313 55.8054C83.3383 55.832 83.411 55.8554 83.4814 55.8768L83.4967 56.0154V56.0349C83.4967 57.2972 82.4774 58.3265 81.2132 58.3358C81.0325 58.3379 80.8867 58.4847 80.8886 58.6654C80.8897 58.8461 81.0375 58.9911 81.2183 58.99C82.8426 58.9768 84.1499 57.6563 84.1499 56.0351V56.0269V56.0106C84.1367 54.3852 82.8162 53.0781 81.195 53.0781H81.1582C80.9776 53.0873 80.8377 53.2404 80.8469 53.4199C80.8562 53.5996 81.0071 53.7364 81.1856 53.7301V53.7311H81.1948C82.154 53.7311 82.9754 54.3198 83.3212 55.1576C83.007 55.0841 82.5957 55.0148 82.119 55.0137C81.0691 55.0076 79.7049 55.3718 78.7417 56.778C78.6387 56.9269 78.6763 57.13 78.8255 57.2331C78.9731 57.3351 79.1773 57.2974 79.2793 57.1493Z" fill="#2F313E"/>
<path d="M48.9781 55.0139C48.5017 55.015 48.0903 55.0843 47.777 55.1578C48.122 54.3201 48.9434 53.7314 49.9036 53.7314H49.9107C50.0915 53.7395 50.2435 53.5986 50.2515 53.4191C50.2597 53.2383 50.1198 53.0863 49.9392 53.0781H49.9034C48.2881 53.0781 46.9728 54.3749 46.9494 55.9914H46.9483V56.0077L46.9473 56.0108H46.9483L46.9473 56.0353C46.9473 57.6566 48.2554 58.977 49.8798 58.9902C50.0594 58.9913 50.2073 58.8464 50.2083 58.6656C50.2104 58.4851 50.0645 58.3381 49.8848 58.336C48.6196 58.3268 47.6003 57.2972 47.6003 56.0351V56.0341L47.6013 56.0156L47.6166 55.876C47.8727 55.7953 48.3758 55.6667 48.9779 55.6678C49.8982 55.6738 50.9849 55.9484 51.8177 57.1493C51.9196 57.2972 52.1238 57.3349 52.2727 57.2329C52.4208 57.1298 52.4585 56.9269 52.3563 56.7778C51.3923 55.3721 50.028 55.0079 48.9781 55.0139Z" fill="#2F313E"/>
<path d="M63.3283 57.2211L64.8649 57.2659C65.0456 57.271 65.1956 57.1292 65.2017 56.9484C65.2067 56.769 65.0649 56.618 64.8844 56.6129L63.8783 56.5832L65.1803 54.1854C65.267 54.0273 65.208 53.8293 65.0496 53.7426C64.8915 53.657 64.6925 53.715 64.6069 53.8744L63.0508 56.7386L63.0548 57.0569L63.3283 57.2211Z" fill="#2F313E"/>
<path d="M70.9685 51.5044C71.292 51.5044 71.5532 51.2422 71.5532 50.9207C71.5532 50.5971 71.292 50.3359 70.9685 50.3359C70.647 50.3359 70.3848 50.5971 70.3848 50.9207C70.3848 51.2422 70.647 51.5044 70.9685 51.5044Z" fill="#2F313E"/>
<path d="M60.3981 50.3359C60.0756 50.3359 59.8145 50.5971 59.8145 50.9207C59.8145 51.2422 60.0756 51.5044 60.3981 51.5044C60.7207 51.5044 60.9818 51.2422 60.9818 50.9207C60.9818 50.5971 60.7207 50.3359 60.3981 50.3359Z" fill="#2F313E"/>
<path d="M66.8093 71.8828H57.887H57.8828L57.886 72.6705L57.9115 79.0214C63.5002 77.8858 65.8398 74.3554 66.8093 71.8828Z" fill="#A2BBED"/>
<path d="M119.504 96.0165C115.759 92.1748 110.93 89.4105 105.486 88.2515C101.148 87.3292 95.8312 86.624 89.4395 86.3984C92.6312 91.3432 94.721 97.8553 95.2504 105.975V105.979L96.3066 124.721C98.3289 124.887 99.9237 126.562 99.9237 128.627C99.9237 128.901 99.895 129.167 99.842 129.425C101.92 128.369 103.937 127.211 105.886 125.957C105.887 125.956 105.888 125.955 105.889 125.954C110.411 123.043 114.566 119.613 118.273 115.749C118.32 115.7 118.367 115.651 118.414 115.601C119.949 113.992 121.405 112.308 122.778 110.556C122.826 110.494 122.875 110.433 122.923 110.372C124.323 108.571 125.637 106.7 126.855 104.762C124.451 101.105 121.993 98.0888 119.504 96.0165Z" fill="white"/>
<path d="M92.0452 128.625C92.0452 126.675 93.4655 125.068 95.3247 124.753L94.2706 106.036C93.7267 97.7219 91.5308 91.1986 88.2349 86.362C87.0187 86.3314 85.7697 86.3161 84.4758 86.3222C84.2431 86.3243 84.0238 86.3182 83.7891 86.3211C83.7891 86.3211 84.3216 105.76 84.9217 134.917C85.7041 134.729 86.4811 134.528 87.2527 134.314C87.2531 134.313 87.2539 134.313 87.2548 134.313C89.5694 133.67 91.8343 132.907 94.0438 132.034C92.8555 131.356 92.0452 130.092 92.0452 128.625Z" fill="#E6E6E6"/>
<path d="M68.4841 61.1641H61.3047C61.3047 63.1468 62.9108 64.7548 64.8944 64.7548C66.8779 64.7548 68.4841 63.1468 68.4841 61.1641Z" fill="white"/>
<circle cx="69" cy="68.5" r="68" stroke="#EFEFEF"/>
</svg>
