<svg width="40" height="40" viewBox="0 0 40 40" fill="none" xmlns="http://www.w3.org/2000/svg">
<path d="M17.156 3.51133C17.9825 3.24808 18.6882 3.32584 19.1931 3.45529L19.3976 3.51284L19.4066 3.51587L20.0519 3.70974C20.7329 3.90353 21.5101 4.09926 22.2525 4.2989C22.7303 4.42739 23.1966 4.55835 23.5778 4.68663C23.768 4.75067 23.9574 4.82121 24.126 4.89716C24.2334 4.94553 24.39 5.02048 24.5441 5.1304L24.6955 5.25308L24.8091 5.37273L25.736 6.50411C28.1906 9.53761 32.5627 15.2712 35.1612 21.7285C36.8508 24.9832 37.0768 27.552 36.0851 29.5891L35.8685 29.9905C35.365 30.8489 34.6141 31.4443 33.8995 31.8777L33.5966 32.0533C30.8406 33.5902 27.7744 34.5094 24.8758 34.8008C22.3423 35.0554 19.8681 34.8361 17.8164 34.0677C15.7118 36.2596 12.7806 36.8497 10.2147 36.6319C8.79726 36.5115 7.43774 36.1454 6.29807 35.6262C5.32106 35.1811 4.42508 34.5869 3.81266 33.8678L3.56882 33.5513L3.50521 33.4513C3.21796 32.9366 3.36179 32.2774 3.85507 31.9322C4.3487 31.5871 5.0181 31.6779 5.40296 32.1245L5.47566 32.2184L5.59228 32.3699C5.90191 32.729 6.46069 33.1434 7.26285 33.5088C8.15653 33.916 9.2557 34.2165 10.4116 34.3146C12.7406 34.5123 15.0898 33.8855 16.5683 31.9594L16.7047 31.8095C17.0493 31.4935 17.5582 31.4112 17.992 31.6187C19.6895 32.4306 22.0389 32.7484 24.644 32.4865C27.235 32.226 29.9931 31.3985 32.4637 30.0208L32.9211 29.7421C33.3442 29.4577 33.6615 29.1549 33.8617 28.8137L33.9813 28.5941C34.506 27.5287 34.6006 25.9273 33.3604 23.3264L33.0741 22.7539C33.056 22.7193 33.0386 22.6841 33.0241 22.6479C30.2618 15.7526 25.313 9.64683 23.1385 7.00543C23.0682 6.97544 22.9689 6.93669 22.8356 6.89184C22.5277 6.78821 22.1211 6.67218 21.6482 6.54501C20.739 6.30053 19.5806 6.01157 18.7084 5.7332V5.73471C18.4772 5.66312 18.2042 5.61808 17.8618 5.72714C17.5521 5.82579 17.0744 6.08724 16.4744 6.79037L16.2094 7.12054C16.0664 7.30898 15.8812 7.50611 15.7232 7.67184C15.5485 7.85513 15.3799 8.027 15.2052 8.2186C14.848 8.61061 14.5831 8.95936 14.4525 9.26063C14.3391 9.5224 14.3749 9.62016 14.4207 9.69834C14.5101 9.8506 14.8293 10.1944 15.8262 10.5768C16.2128 10.6795 16.3497 10.7455 16.7819 10.7676C17.2651 10.7922 18.0893 10.746 19.646 10.4617L19.655 10.4586L19.8171 10.4374C20.6519 10.3526 22.0498 10.639 22.9977 12.2337L24.5138 14.4011L24.6834 14.6767C24.8366 14.9631 24.94 15.2809 24.9787 15.6173L25.0742 16.5593C25.1584 17.4809 25.2204 18.3503 25.3634 19.2401C25.5502 20.402 25.8327 21.2149 26.251 21.6907L26.3797 21.8679C26.6348 22.2994 26.587 22.8583 26.2389 23.2416C25.8405 23.6799 25.1754 23.7492 24.6955 23.4021C23.8656 22.8021 22.2921 22.1066 20.5183 22.1072C18.8049 22.1078 16.8496 22.754 15.1083 24.9152C14.7053 25.4152 13.9727 25.4937 13.4726 25.0909C12.9723 24.6878 12.8938 23.9554 13.2969 23.4551C14.1014 22.4567 14.9637 21.6979 15.8504 21.1363C11.1188 18.5834 6.82591 20.8529 5.29846 22.3056L5.2091 22.3828C4.743 22.7444 4.06886 22.7013 3.65364 22.2647C3.21116 21.7992 3.23062 21.0625 3.69604 20.6199L4.13678 20.2322C6.481 18.3177 11.8685 15.9231 17.6134 19.4673L18.2086 19.855L18.3025 19.9277C18.3426 19.9617 18.3772 20.0001 18.4116 20.0383C19.123 19.8621 19.8297 19.7811 20.5168 19.7808C21.4595 19.7805 22.3555 19.9268 23.1658 20.1564C23.1289 19.9719 23.0948 19.7885 23.0658 19.6081C22.968 18.9991 22.8989 18.3276 22.8387 17.6786L22.6675 15.8838C22.665 15.862 22.659 15.8378 22.6493 15.8126L22.6069 15.7339L21.0818 13.5529C21.0614 13.5237 21.0418 13.4929 21.0242 13.462C20.7799 13.0335 20.5305 12.8758 20.376 12.8108C20.2905 12.7748 20.2129 12.7578 20.1518 12.7517C20.0975 12.7463 20.0629 12.7508 20.0549 12.7517C18.4305 13.0481 17.4058 13.1275 16.6623 13.0895C16.2792 13.0698 15.9672 13.0153 15.7202 12.9577L15.1689 12.8093L15.0447 12.7699C13.8204 12.3075 12.8994 11.7052 12.4124 10.8736C11.8811 9.96628 12.0096 9.04771 12.3185 8.33523C12.6104 7.66193 13.0982 7.07679 13.4862 6.65103C13.6842 6.43383 13.8874 6.22545 14.039 6.0664C14.207 5.89015 14.3032 5.78253 14.3556 5.71351L14.7039 5.28034C15.5165 4.32831 16.3394 3.77145 17.156 3.51133Z" fill="white"/>
</svg>
