<svg width="457" height="349" viewBox="0 0 457 349" fill="none" xmlns="http://www.w3.org/2000/svg">
<g clip-path="url(#clip0_8660_87788)">
<g clip-path="url(#clip1_8660_87788)">
<g clip-path="url(#clip2_8660_87788)">
<path d="M53.4102 39.5H277.321C287.215 39.5 295.231 47.4791 295.231 57.3164V202.684C295.231 212.521 287.215 220.5 277.321 220.5H53.4102C43.5165 220.5 35.5 212.521 35.5 202.684V57.3164C35.5 47.4791 43.5165 39.5 53.4102 39.5Z" stroke="#D6D6D6"/>
<path d="M50.5997 53.0212C50.5972 53.7115 50.3892 54.3856 50.0019 54.9584C49.6147 55.5311 49.0655 55.9769 48.4238 56.2394C47.782 56.5018 47.0765 56.5692 46.3963 56.433C45.7161 56.2968 45.0917 55.9632 44.602 55.4742C44.1122 54.9852 43.7791 54.3627 43.6447 53.6855C43.5102 53.0083 43.5805 52.3066 43.8466 51.669C44.1127 51.0315 44.5627 50.4867 45.1397 50.1034C45.7168 49.7202 46.3951 49.5156 47.0889 49.5156C47.551 49.5156 48.0086 49.6064 48.4354 49.7827C48.8621 49.959 49.2497 50.2174 49.5759 50.5431C49.9021 50.8688 50.1604 51.2554 50.3361 51.6806C50.5118 52.1058 50.6014 52.5614 50.5997 53.0212Z" fill="#D6D6D6"/>
<path d="M63.4279 53.0215C63.4253 53.7097 63.2185 54.3818 62.8334 54.9534C62.4483 55.5251 61.9021 55.9708 61.2633 56.2347C60.6244 56.4985 59.9215 56.5688 59.2427 56.4366C58.5639 56.3044 57.9395 55.9757 57.4478 55.4917C56.9561 55.0077 56.6191 54.39 56.479 53.7161C56.3389 53.0421 56.402 52.3421 56.6604 51.7037C56.9188 51.0654 57.361 50.5172 57.9314 50.128C58.5018 49.7388 59.1751 49.5259 59.8667 49.516C60.333 49.5093 60.796 49.5952 61.2286 49.7685C61.6612 49.9419 62.0548 50.1992 62.3863 50.5256C62.7178 50.8519 62.9807 51.2407 63.1595 51.6693C63.3384 52.0978 63.4296 52.5575 63.4279 53.0215Z" fill="#D6D6D6"/>
<path d="M76.881 53.0212C76.8785 53.7115 76.6705 54.3856 76.2832 54.9584C75.8959 55.5311 75.3467 55.9769 74.705 56.2394C74.0633 56.5018 73.3578 56.5692 72.6776 56.433C71.9974 56.2968 71.373 55.9632 70.8832 55.4742C70.3935 54.9852 70.0604 54.3627 69.9259 53.6855C69.7915 53.0083 69.8617 52.3066 70.1278 51.669C70.3939 51.0315 70.8439 50.4867 71.421 50.1034C71.9981 49.7202 72.6763 49.5156 73.3702 49.5156C73.8323 49.5156 74.2898 49.6064 74.7166 49.7827C75.1434 49.959 75.531 50.2174 75.8571 50.5431C76.1833 50.8688 76.4417 51.2554 76.6174 51.6806C76.793 52.1058 76.8826 52.5614 76.881 53.0212Z" fill="#D6D6D6"/>
<path d="M243.585 56.5142H102.737C101.806 56.5142 100.913 56.1462 100.255 55.4911C99.5965 54.836 99.2266 53.9476 99.2266 53.0212C99.2249 52.5614 99.3145 52.1058 99.4902 51.6806C99.6659 51.2554 99.9242 50.8688 100.25 50.5431C100.577 50.2174 100.964 49.959 101.391 49.7827C101.818 49.6064 102.275 49.5156 102.737 49.5156H243.585C244.047 49.5156 244.505 49.6064 244.932 49.7827C245.358 49.959 245.746 50.2174 246.072 50.5431C246.398 50.8688 246.657 51.2554 246.832 51.6806C247.008 52.1058 247.098 52.5614 247.096 53.0212C247.096 53.9476 246.726 54.836 246.068 55.4911C245.409 56.1462 244.516 56.5142 243.585 56.5142Z" fill="#D6D6D6"/>
<path d="M207 114.902C207.002 117.252 206.538 119.58 205.633 121.751C204.729 123.922 203.402 125.894 201.729 127.555L183.292 145.884C181.003 148.157 178.14 149.775 175.005 150.57C171.87 151.364 168.577 151.304 165.473 150.397C164.905 150.231 164.346 150.037 163.794 149.814C161.565 148.912 159.54 147.576 157.838 145.884C156.136 144.192 154.792 142.178 153.885 139.962C153.661 139.416 153.466 138.859 153.299 138.294L154.214 137.384C155.754 135.849 157.825 134.956 160.004 134.886C160.312 136.823 161.152 138.638 162.433 140.129C163.713 141.621 165.384 142.731 167.259 143.338C169.135 143.945 171.143 144.024 173.061 143.567C174.979 143.11 176.733 142.134 178.128 140.748L196.564 122.419C197.557 121.432 198.345 120.26 198.883 118.97C199.421 117.68 199.697 116.297 199.697 114.9C199.698 113.504 199.421 112.121 198.883 110.831C198.346 109.541 197.558 108.368 196.565 107.381C195.572 106.393 194.393 105.61 193.095 105.075C191.797 104.541 190.407 104.266 189.002 104.266C187.597 104.266 186.206 104.541 184.909 105.075C183.611 105.609 182.432 106.393 181.438 107.38L164.762 123.959C161.554 123.237 158.217 123.304 155.041 124.156C155.815 122.849 156.753 121.646 157.833 120.575L176.274 102.248C178.79 99.7432 181.998 98.0367 185.49 97.3449C188.982 96.6531 192.603 97.007 195.892 98.3619C199.182 99.7167 201.994 102.012 203.971 104.956C205.948 107.9 207.003 111.362 207 114.902Z" fill="#D6D6D6"/>
<path d="M176.653 139.279L177.568 138.369C177.402 137.804 177.207 137.248 176.983 136.701C176.075 134.485 174.73 132.473 173.028 130.782C171.326 129.091 169.301 127.755 167.073 126.853C166.523 126.631 165.963 126.437 165.394 126.271C162.29 125.363 158.997 125.303 155.861 126.097C152.726 126.891 149.863 128.51 147.573 130.784L139.247 139.059L139.903 142.074L144.411 144.194L152.739 135.915C154.134 134.529 155.888 133.554 157.806 133.097C159.724 132.64 161.731 132.72 163.607 133.326C165.482 133.933 167.152 135.043 168.433 136.535C169.713 138.026 170.554 139.841 170.862 141.778C173.042 141.707 175.113 140.814 176.653 139.279Z" fill="#D6D6D6"/>
<path d="M155.118 163.766L156.314 166.419L159.792 165.999L161.059 167.99L155.736 175.38C154.37 177.316 152.633 178.963 150.623 180.227C148.614 181.491 146.372 182.347 144.028 182.745C141.684 183.143 139.284 183.075 136.967 182.545C134.649 182.016 132.46 181.035 130.526 179.659C128.592 178.283 126.952 176.541 125.699 174.531C124.447 172.521 123.607 170.285 123.229 167.951C122.851 165.617 122.942 163.232 123.496 160.933C124.051 158.634 125.058 156.467 126.46 154.557L131.78 147.164L133.118 149.868L137.721 151.389L132.4 158.783C131.583 159.918 130.999 161.203 130.681 162.563C130.363 163.923 130.318 165.332 130.548 166.709C130.777 168.087 131.278 169.406 132.021 170.591C132.763 171.776 133.733 172.804 134.876 173.617C136.018 174.429 137.31 175.01 138.678 175.326C140.046 175.642 141.463 175.687 142.849 175.458C144.234 175.23 145.561 174.732 146.753 173.994C147.945 173.256 148.979 172.291 149.796 171.155L155.118 163.766Z" fill="#D6D6D6"/>
<path d="M170.568 153.197C172.342 153.199 174.109 152.966 175.822 152.506C175.049 153.813 174.111 155.016 173.031 156.087L164.702 164.367L163.333 161.884L160.139 161.169L159.538 159.233L166.106 152.703C167.57 153.033 169.067 153.199 170.568 153.197Z" fill="#D6D6D6"/>
<path d="M127.681 136.271L128.509 135.447L132.347 139.262L131.518 140.086L127.681 136.271Z" fill="#D6D6D6"/>
<path d="M125.697 141.317L125.52 142.468L130.884 143.282L131.061 142.131L125.697 141.317Z" fill="#D6D6D6"/>
<path d="M133.585 133.471L134.743 133.295L135.562 138.628L134.404 138.804L133.585 133.471Z" fill="#D6D6D6"/>
</g>
</g>
<path d="M284.146 122.838C284.445 121.879 289.341 106.829 300.841 101.704C306.345 99.2525 312.548 99.0175 312.548 99.0175C313.189 98.9934 315.837 98.9137 319.404 99.4991C319.404 99.4991 327.635 100.496 333.636 104.751C344.197 112.24 350.318 130.991 349.192 147.299C348.791 153.097 347.416 159.053 351.186 163.508C353.22 165.912 356.594 166.71 361.38 168.177C371.323 171.223 387.681 175.072 394.255 188.383C400.831 201.693 401.632 220.456 397.302 225.588C392.972 230.72 289.636 230.239 285.977 226.229C282.318 222.22 275.583 202.816 274.78 187.42C274.067 173.735 283.654 168.066 285.977 151.197C287.594 139.45 285.856 129.439 284.146 122.838Z" fill="#262626"/>
<path d="M343.086 121.352C345.068 125.216 347.91 131.449 349.982 139.514C353.255 152.257 350.67 154.29 353.67 159.198C360.332 170.097 374.794 163.441 388.631 175.876C396.391 182.85 399.078 191.449 399.984 194.479C403.919 207.636 400.248 218.921 398.696 222.995" stroke="#262626" stroke-width="1.32643" stroke-miterlimit="10" stroke-linecap="round" stroke-linejoin="round"/>
<path d="M287.931 146.852C285.994 151.218 282.872 158.13 278.79 166.577C271.334 182.005 269.254 184.808 269.817 190.309C270.794 199.839 278.922 209.82 278.922 209.82" stroke="#262626" stroke-width="1.32643" stroke-miterlimit="10" stroke-linecap="round" stroke-linejoin="round"/>
<path d="M303.735 180.312C303.735 180.312 330.255 180.312 330.371 180.312C351.431 180.312 374.501 195.386 388.352 210.111C399.433 221.891 407.541 236.211 413.693 251.168C421.706 270.649 429.552 297.642 419.751 317.803C418.288 320.813 414.971 327.415 407.935 330.977C400.195 334.897 392.109 332.556 389.602 332.556C373.245 332.556 228.272 332.6 228.272 332.6C224.398 294.942 231.862 266.568 237.253 251.089C242.261 236.708 248.119 220.47 263.407 205.051C278.049 190.285 294.193 183.48 303.735 180.312Z" fill="#A2BBED"/>
<path d="M302.521 180.312L283.917 333.252L271.891 333.159L290.52 185.084L302.521 180.312Z" fill="#5D7EC2"/>
<path d="M317 191.56C324.461 191.588 330.532 185.563 330.56 178.102L330.67 149.033L303.653 148.93L303.543 178.001C303.515 185.461 309.54 191.531 317 191.56Z" fill="#CBDDF7"/>
<path d="M303.577 169.86L321.173 160.82C320.995 162.344 319.995 169.48 313.718 174.409C309.711 177.556 305.5 178.275 303.555 178.478L303.577 169.86Z" fill="#CBDDF7"/>
<path d="M331.325 140.024C331.41 139.584 332.567 138.921 332.923 138.694C333.524 138.31 334.173 138.003 334.852 137.784C336.171 137.36 337.618 137.262 338.973 137.572C341.667 138.19 344.055 140.453 344.503 143.225C344.763 144.835 344.391 146.5 343.701 147.978C342.663 150.2 340.904 152.067 338.779 153.292C337.017 154.306 335.014 154.88 332.988 155.001C332.582 155.025 328.431 154.928 328.461 154.77C329.417 149.855 330.371 144.94 331.325 140.024Z" fill="#CBDDF7"/>
<path d="M335.027 140.315C334.707 142.485 332.801 153.925 322.49 162.008C320.59 163.497 307.961 173.396 296.407 168.565C281.56 162.357 283.18 137.971 283.284 136.65C283.638 132.185 284.681 119.035 295.571 112.019C304.459 106.293 314.091 108.398 315.457 108.719C316.896 109.058 326.065 111.372 331.675 120.361C336.765 128.519 335.549 136.766 335.027 140.315Z" fill="#CBDDF7"/>
<path d="M291.706 136.66C291.467 138.564 289.999 139.947 288.427 139.749C286.854 139.552 285.774 137.848 286.014 135.944C286.253 134.04 287.72 132.657 289.293 132.855C290.865 133.053 291.945 134.756 291.706 136.66Z" fill="#262626"/>
<path d="M308.873 138.808C308.634 140.712 307.166 142.095 305.594 141.898C304.023 141.7 302.942 139.997 303.182 138.093C303.421 136.189 304.888 134.806 306.46 135.003C308.031 135.2 309.112 136.904 308.873 138.808Z" fill="#262626"/>
<path d="M296.89 139.508L294.26 143.06C293.776 143.712 293.958 144.64 294.652 145.063L297.067 146.532" stroke="#262626" stroke-width="1.78776" stroke-miterlimit="10" stroke-linecap="round" stroke-linejoin="round"/>
<path d="M314.622 147.775C314.354 149.911 312.404 151.426 310.269 151.157C308.133 150.889 306.618 148.94 306.886 146.804C307.155 144.668 309.104 143.153 311.24 143.421C313.377 143.69 314.891 145.639 314.622 147.775Z" fill="#CBDDF7"/>
<path d="M333.135 149.796C333.122 149.368 333.086 146.467 335.414 144.374C337.237 142.735 339.358 142.628 339.937 142.617" stroke="#262626" stroke-width="1.78776" stroke-miterlimit="10" stroke-linecap="round" stroke-linejoin="round"/>
<path d="M335.191 144.95C335.32 144.93 336.881 144.713 337.97 145.893C338.866 146.863 338.784 148.063 338.768 148.262" stroke="#262626" stroke-width="1.78776" stroke-miterlimit="10" stroke-linecap="round" stroke-linejoin="round"/>
<path d="M285.309 141.615C284.57 141.523 283.859 141.655 283.227 141.94C283.302 144.033 283.504 146.572 283.963 149.265C284.088 149.293 284.207 149.334 284.338 149.351C286.473 149.619 288.424 148.105 288.691 145.969C288.96 143.833 287.446 141.884 285.309 141.615Z" fill="#CBDDF7"/>
<path d="M293.309 153.661C293.759 153.115 295.158 151.56 297.578 150.955C300.321 150.27 302.522 151.266 303.111 151.556" stroke="#262626" stroke-width="1.78776" stroke-miterlimit="10" stroke-linecap="round" stroke-linejoin="round"/>
<path d="M282.07 129.926H299.07C299.07 129.926 299.711 124.393 301.395 121.666C303.08 118.94 305.645 117.256 305.645 117.256C305.259 118.233 304.82 119.526 304.483 121.085C304.243 122.197 303.923 123.672 303.941 125.595C303.941 125.595 303.949 126.323 304.362 129.925H319.116C318.778 129.027 318.05 126.74 318.676 123.911C319.221 121.443 320.517 119.817 321.166 119.1C320.667 123.527 321.227 127.054 321.762 129.284C322.695 133.17 324.249 136.029 325.411 138.164C326.526 140.215 327.62 141.852 328.46 143.021C328.46 143.021 330.463 140.492 332.086 139.509C333.71 138.526 335.369 137.64 335.369 137.64C335.741 135.707 336.076 132.77 335.554 129.285C334.482 122.111 330.503 117.424 328.839 115.674C323.196 109.738 316.444 108.405 313.985 107.956C308.739 106.998 304.532 107.797 303.08 108.116C301.945 108.366 299.311 109.022 296.244 110.623C294.117 111.733 288.09 114.966 284.518 122.049C283.671 123.724 282.565 126.392 282.07 129.926Z" fill="#262626"/>
<path d="M300.137 181.578C300.137 181.578 283.679 249.006 281.755 271.618C279.831 294.23 279.109 333.251 279.109 333.251L228.272 332.603C227.237 325.301 226.31 315.37 226.668 303.612C227.506 276.128 234.847 255.688 237.734 248.284C244.53 230.854 252.736 209.806 274.057 194.401C283.916 187.279 293.507 183.582 300.137 181.578Z" fill="#7090D1"/>
<path d="M266.6 224.148L245.43 332.821H258.1L266.6 224.148Z" fill="#5D7EC2"/>
<path d="M270.29 204.75C269.127 211.287 267.31 222.213 265.685 235.866C263.695 252.587 263.994 256.598 260.721 299.334C259.74 312.147 258.102 332.827 258.102 332.827" stroke="#262626" stroke-width="0.5" stroke-miterlimit="10" stroke-linecap="round" stroke-linejoin="round"/>
<path d="M316.449 308.54C318.371 310.532 319.479 312.447 320.118 313.772C322.125 317.938 322.194 321.897 322.244 324.697C322.273 326.365 322.177 327.75 322.083 328.706C322.083 328.706 297.226 320.688 293.538 321.008C290.288 321.29 274.092 325.432 270.285 326.414C269.756 326.551 269.205 326.536 268.683 326.375L263.228 324.697L258.084 324.916C256.238 324.995 254.973 323.106 255.725 321.418C255.911 320.999 256.162 320.542 256.493 320.046C258.738 316.679 260.983 314.273 260.983 314.273L252.74 315.76C251.941 315.763 250.631 315.652 250.182 314.85C249.513 313.654 251.158 311.637 252.283 310.285C254.892 307.149 257.743 305.462 258.657 304.932C261.878 303.065 264.881 301.323 269.802 299.841C273.681 298.672 284.36 295.281 297.506 298.618C306.121 300.804 312.447 305.125 316.449 308.54Z" fill="#CBDDF7"/>
<path d="M315.13 307.453C315.24 308.294 315.817 313.416 312.135 317.797C308.032 322.679 302.072 322.559 301.348 322.531L322.078 328.702C322.078 328.702 322.232 321.287 321.865 319.464C321.499 317.641 320.223 313.43 318.907 311.628C317.592 309.827 315.13 307.453 315.13 307.453Z" fill="#CBDDF7"/>
<path d="M263.23 324.706C265.616 322.096 269.731 318.236 275.833 315.189C281.584 312.318 286.825 311.305 290.253 310.914" stroke="#262626" stroke-width="0.5" stroke-miterlimit="10" stroke-linecap="round" stroke-linejoin="round"/>
<path d="M258.086 324.912C261.847 318.499 266.01 315.163 269.082 313.307C269.082 313.307 271.353 311.936 283.275 307.453" stroke="#262626" stroke-width="0.5" stroke-miterlimit="10" stroke-linecap="round" stroke-linejoin="round"/>
<path d="M260.605 314.343C263.63 309.88 266.788 307.807 269.079 306.739C273.153 304.838 279.342 303.852 279.342 303.852" stroke="#262626" stroke-width="0.5" stroke-miterlimit="10" stroke-linecap="round" stroke-linejoin="round"/>
<path d="M333.133 180.312C333.133 180.312 327.936 218.936 327.214 242.029C326.492 265.123 325.753 304.573 325.753 304.573L316.449 308.543C316.449 308.543 320.89 321.653 321.165 325.742C321.441 329.832 321.165 333.252 321.165 333.252C334.772 332.986 345.831 333.323 353.433 333.681C359.901 333.986 369.531 334.045 388.795 334.162C395.644 334.204 401.432 334.173 407.93 330.979C408.699 330.601 415.225 327.308 420.066 320.691C423.2 316.409 428.118 307.33 425.358 284.848C424.197 275.389 420.166 245.796 397.213 217.734C384.1 201.702 371.159 193.929 367.559 191.86C356.641 185.584 347.037 183.028 345.043 182.511C340.292 181.285 336.182 180.658 333.133 180.312Z" fill="#7090D1"/>
<path d="M364.368 254.133C364.616 260.177 364.203 271.023 358.646 282.759C355.673 289.038 352.063 293.807 349.023 297.185C355.653 295.477 362.281 293.768 368.91 292.06L364.368 254.133Z" fill="#5D7EC2"/>
<path d="M391.522 287C391.522 287 333.46 301.273 325.753 304.56C318.047 307.848 316.449 308.53 316.449 308.53" stroke="#262626" stroke-width="0.5" stroke-miterlimit="10" stroke-linecap="round" stroke-linejoin="round"/>
<path d="M387.673 207.32C375.896 211.983 370.41 218.269 367.637 222.541C367.637 222.541 359.129 235.646 369.61 292.495" stroke="#262626" stroke-width="0.5" stroke-miterlimit="10" stroke-linecap="round" stroke-linejoin="round"/>
<path d="M319.106 334.155H241.184V324.82H323.132V330.129C323.132 332.353 321.33 334.155 319.106 334.155Z" fill="#D6D6D6"/>
<path d="M249.709 334.162H142.183C139.725 334.162 137.489 332.169 137.188 329.711L127.424 249.849C127.124 247.391 128.873 245.398 131.33 245.398H238.857C241.315 245.398 243.551 247.391 243.852 249.849L253.614 329.711C253.915 332.169 252.167 334.162 249.709 334.162Z" fill="#D6D6D6"/>
<path d="M125.029 245.898H232.557C234.759 245.899 236.784 247.699 237.055 249.909L246.817 329.772C247.082 331.936 245.562 333.661 243.408 333.661H135.882C133.679 333.661 131.655 331.861 131.384 329.65L121.62 249.788C121.364 247.691 122.783 246.007 124.829 245.903L125.029 245.898Z" fill="white" stroke="#D6D6D6"/>
<path d="M187.341 287.553C187.341 290.974 184.568 293.748 181.147 293.748C177.726 293.748 174.953 290.974 174.953 287.553C174.953 284.132 177.726 281.359 181.147 281.359C184.567 281.358 187.341 284.132 187.341 287.553Z" fill="#D6D6D6"/>
</g>
<defs>
<clipPath id="clip0_8660_87788">
<rect width="456.014" height="348.996" fill="white"/>
</clipPath>
<clipPath id="clip1_8660_87788">
<rect width="496" height="351" fill="white" transform="translate(-11 25)"/>
</clipPath>
<clipPath id="clip2_8660_87788">
<rect width="261" height="183" fill="white" transform="translate(35 39)"/>
</clipPath>
</defs>
</svg>
