<svg width="20" height="20" viewBox="0 0 20 20" fill="none" xmlns="http://www.w3.org/2000/svg">
<path d="M10.0042 7.56889C9.66428 7.56889 9.38876 7.84441 9.38876 8.1843V9.78436H7.78869C7.44881 9.78436 7.17328 10.0599 7.17328 10.3998C7.17328 10.7397 7.44881 11.0152 7.78869 11.0152H9.38876V12.6152C9.38876 12.9551 9.66428 13.2307 10.0042 13.2307C10.344 13.2307 10.6196 12.9551 10.6196 12.6152V11.0152H12.2196C12.5595 11.0152 12.835 10.7397 12.835 10.3998C12.835 10.0599 12.5595 9.78436 12.2196 9.78436H10.6196V8.1843C10.6196 7.84441 10.344 7.56889 10.0042 7.56889Z" fill="white"/>
<path fill-rule="evenodd" clip-rule="evenodd" d="M15.8328 3.95807C13.6068 2.59265 11.6046 3.13623 10.3943 4.0451C10.2194 4.17647 10.0947 4.26985 10 4.33597C9.9053 4.26985 9.78062 4.17647 9.6057 4.0451C8.39544 3.13623 6.39317 2.59265 4.16719 3.95807C2.62023 4.90697 1.75707 6.88371 2.06019 9.1438C2.36492 11.4159 3.83415 13.9763 6.93065 16.2682L7.01382 16.3298C8.08006 17.1196 8.80522 17.6567 10 17.6567C11.1948 17.6567 11.9199 17.1196 12.9862 16.3298L13.0693 16.2682C16.1659 13.9763 17.6351 11.4159 17.9398 9.1438C18.2429 6.88371 17.3798 4.90697 15.8328 3.95807ZM11.1334 5.02929C11.9998 4.37862 13.4545 3.94313 15.1893 5.00723C16.2413 5.65257 16.9717 7.10268 16.7199 8.98019C16.4697 10.8457 15.2355 13.1336 12.3371 15.2789C11.1657 16.1459 10.7553 16.4259 10 16.4259C9.24468 16.4259 8.83427 16.1459 7.6629 15.2789C4.76447 13.1336 3.53028 10.8457 3.28009 8.98019C3.02828 7.10268 3.75867 5.65257 4.81074 5.00723C6.54551 3.94313 8.00016 4.37862 8.86659 5.02929L8.88336 5.04189C9.08187 5.19098 9.25477 5.32083 9.39367 5.41177C9.46612 5.4592 9.54812 5.50869 9.63426 5.54762C9.71577 5.58445 9.84443 5.63219 10 5.63219C10.1556 5.63219 10.2842 5.58445 10.3657 5.54762C10.4519 5.50869 10.5339 5.4592 10.6063 5.41177C10.7452 5.32083 10.9181 5.19096 11.1167 5.04187L11.1334 5.02929Z" fill="white"/>
</svg>
