<svg width="20" height="20" viewBox="0 0 20 20" fill="none" xmlns="http://www.w3.org/2000/svg">
<path d="M17.696 15C17.192 13.992 16.504 13.36 15.888 13.016C16.128 12.72 16.336 12.4 16.52 12.072C17.712 9.904 17.504 7.44 16.92 5.856L16.8 5.528L16.456 5.472C14.904 5.216 13.584 5.56 12.728 5.96C12.224 4.76 11.448 3.584 10.4 2.456L9.976 2L9.536 2.44C8.416 3.56 7.6 4.72 7.096 5.92C6.24 5.536 4.952 5.224 3.464 5.472L3.12 5.528L3 5.856C2.416 7.44 2.208 9.904 3.4 12.072C3.584 12.4 3.792 12.72 4.032 13.016C3.416 13.36 2.728 13.992 2.224 15L2 15.432L2.392 15.736C3.224 16.392 5.24 17.272 7.2 17.272C8.152 17.272 9.088 17.064 9.872 16.512C9.904 16.496 9.928 16.472 9.96 16.448H9.968C10.768 17.048 11.736 17.272 12.72 17.272C14.68 17.272 16.696 16.392 17.528 15.736L17.92 15.432L17.696 15ZM13.128 7.104C13.696 6.824 14.704 6.496 15.912 6.608C16.312 7.944 16.384 9.832 15.472 11.496C14.744 12.824 13.496 13.832 11.76 14.512C12.616 13.272 13.312 11.64 13.408 9.784C13.456 8.88 13.36 7.984 13.128 7.104ZM3.56 15.072C4.024 14.368 4.552 14.056 4.88 13.928C5.808 14.768 7 15.424 8.448 15.88C6.864 16.376 4.696 15.72 3.56 15.072ZM4.456 11.496C3.536 9.832 3.608 7.944 4.008 6.608C5.168 6.496 6.136 6.792 6.712 7.072C6.104 9.456 6.68 11.984 8.448 14.616C6.56 13.944 5.216 12.896 4.456 11.496ZM9.944 3.752C11.552 5.656 12.32 7.664 12.208 9.72C12.096 11.856 11.04 13.672 10.016 14.768C6.944 10.704 6.912 7.088 9.944 3.752ZM11.472 15.88C12.92 15.424 14.112 14.768 15.04 13.928C15.368 14.056 15.896 14.368 16.36 15.072C15.224 15.72 13.056 16.376 11.472 15.88Z" fill="white"/>
</svg>
