<svg width="182" height="182" viewBox="0 0 182 182" fill="none" xmlns="http://www.w3.org/2000/svg">
<circle cx="91" cy="91" r="91" fill="#949494"/>
<path d="M55.5497 111.792C46.2368 116.841 21.8191 127.148 36.6912 140.047C43.956 146.348 52.0472 150.854 62.2198 150.854H120.267C130.439 150.854 138.531 146.348 145.795 140.047C160.667 127.148 136.25 116.841 126.937 111.792C105.098 99.9546 77.3882 99.9546 55.5497 111.792Z" fill="#EFEFEF"/>
<path d="M120.876 57.9662C120.876 72.8592 107.614 84.9324 91.2545 84.9324C74.8949 84.9324 61.6328 72.8592 61.6328 57.9662C61.6328 43.0732 74.8949 31 91.2545 31C107.614 31 120.876 43.0732 120.876 57.9662Z" fill="#EFEFEF"/>
</svg>
