<?xml version="1.0" standalone="no"?>
<!DOCTYPE svg PUBLIC "-//W3C//DTD SVG 1.1//EN" "http://www.w3.org/Graphics/SVG/1.1/DTD/svg11.dtd" >
<svg xmlns="http://www.w3.org/2000/svg" xmlns:xlink="http://www.w3.org/1999/xlink" version="1.1">
<metadata>
Created by FontForge 20190801 at Fri Aug 10 15:31:06 2018
 By www-data
(c) 2018 MCKL, Inc. All rights reserved.
</metadata>
<defs>
<font id="UberMoveTextRegular" horiz-adv-x="605" >
  <font-face 
    font-family="UberMoveTextRegular"
    font-weight="400"
    font-stretch="normal"
    units-per-em="1000"
    panose-1="2 1 5 3 3 2 1 6 3 3"
    ascent="800"
    descent="-200"
    x-height="527"
    cap-height="700"
    bbox="-79 -256 2101 972"
    underline-thickness="50"
    underline-position="-100"
    unicode-range="U+000D-FB02"
  />
<missing-glyph horiz-adv-x="514" 
d="M60 -100v850h394v-850h-394z" />
    <glyph glyph-name=".notdef" horiz-adv-x="514" 
d="M60 -100v850h394v-850h-394z" />
    <glyph glyph-name=".null" horiz-adv-x="0" 
 />
    <glyph glyph-name="uni000D" unicode="&#xd;" horiz-adv-x="223" 
 />
    <glyph glyph-name="NULL" horiz-adv-x="223" 
 />
    <glyph glyph-name="NULL" horiz-adv-x="223" 
 />
    <glyph glyph-name="space" unicode=" " horiz-adv-x="223" 
 />
    <glyph glyph-name="exclam" unicode="!" horiz-adv-x="207" 
d="M137 186h-67l-6 544h79zM104 94q21 0 36 -15t15 -37q0 -21 -15 -36t-36 -15t-36 15t-15 36q0 22 15 37t36 15z" />
    <glyph glyph-name="quotedbl" unicode="&#x22;" horiz-adv-x="304" 
d="M56 525l-5 207h73l-6 -207h-62zM186 525l-5 207h73l-6 -207h-62z" />
    <glyph glyph-name="numbersign" unicode="#" horiz-adv-x="643" 
d="M68 0l62 218h-110v59h127l42 146h-119v59h136l62 218h72l-62 -218h164l62 218h71l-62 -218h109v-59h-126l-42 -146h118v-59h-135l-62 -218h-71l62 218h-164l-62 -218h-72zM219 277h164l42 146h-164z" />
    <glyph glyph-name="dollar" unicode="$" horiz-adv-x="548" 
d="M304 -64h-63v83q-84 13 -138.5 66t-63.5 134h76q9 -53 41.5 -88t84.5 -46v237l-38 11q-161 47 -161 173q0 78 56 127t143 53v76h63v-80q79 -14 130 -66.5t61 -132.5h-76q-17 107 -115 132v-233l38 -11q164 -49 164 -173q0 -79 -54.5 -129t-147.5 -54v-79zM227 402l14 -4
v223q-54 -4 -88.5 -34t-34.5 -75q0 -41 26.5 -67t82.5 -43zM314 303l-10 3v-226q59 4 92.5 33.5t33.5 76.5q0 81 -116 113z" />
    <glyph glyph-name="percent" unicode="%" horiz-adv-x="856" 
d="M215 369q-72 0 -122 50t-50 123q0 68 49.5 118t122.5 50q70 0 119 -50t49 -118q0 -73 -49 -123t-119 -50zM269 0h-65l383 700h65zM215 425q44 0 76.5 35t32.5 82q0 46 -32.5 79t-76.5 33q-46 0 -79 -33t-33 -79q0 -48 32.5 -82.5t79.5 -34.5zM642 331q72 0 121.5 -50
t49.5 -123q0 -68 -49.5 -118t-121.5 -50q-70 0 -119.5 50t-49.5 118q0 73 49 123t120 50zM642 275q-45 0 -77.5 -35t-32.5 -82q0 -46 33 -78.5t77 -32.5q46 0 79 32.5t33 78.5q0 48 -32.5 82.5t-79.5 34.5z" />
    <glyph glyph-name="ampersand" unicode="&#x26;" horiz-adv-x="661" 
d="M490 51l-33 37q-45 -53 -92.5 -75.5t-111.5 -22.5q-92 0 -153.5 53.5t-61.5 133.5q0 60 29.5 103t95.5 80l35 20l-7 7q-74 84 -74 157q0 71 48 117t123 46t123.5 -44t48.5 -112q0 -51 -27 -89.5t-85 -72.5l-38 -22l147 -164l3 5l109 174l61 -35l-111 -174
q-10 -16 -15 -23l42 -47q29 -33 64 -33h31v-70h-43q-35 0 -58.5 11t-49.5 40zM250 435l15 -17l45 25q74 41 74 104q0 40 -27.5 67t-67.5 27q-42 0 -68.5 -26t-26.5 -69q0 -48 56 -111zM117 180q0 -52 40 -87t99 -35q48 0 83.5 18.5t71.5 62.5l-168 189l-46 -27
q-80 -47 -80 -121z" />
    <glyph glyph-name="quotesingle" unicode="'" horiz-adv-x="175" 
d="M56 525l-5 207h73l-6 -207h-62z" />
    <glyph glyph-name="parenleft" unicode="(" horiz-adv-x="368" 
d="M125 332q0 -138 56.5 -245t159.5 -169l-39 -56q-120 71 -185.5 192t-65.5 278t65.5 278.5t185.5 192.5l38 -56q-103 -62 -159 -169t-56 -246z" />
    <glyph glyph-name="parenright" unicode=")" horiz-adv-x="368" 
d="M244 333q0 138 -56.5 245t-159.5 169l39 56q120 -71 185.5 -192t65.5 -278t-65.5 -278.5t-185.5 -192.5l-38 56q103 62 159 169t56 246z" />
    <glyph glyph-name="asterisk" unicode="*" horiz-adv-x="419" 
d="M351 401l-115 71l1 -133h-53l1 134l-116 -72l-29 46l120 72l-120 73l29 46l116 -72l-1 134h53l-1 -134l115 72l29 -46l-120 -73l120 -72z" />
    <glyph glyph-name="plus" unicode="+" horiz-adv-x="550" 
d="M308 144h-65v182h-177v64h177v178h65v-178h176v-64h-176v-182z" />
    <glyph glyph-name="comma" unicode="," horiz-adv-x="219" 
d="M44 -109q28 5 48 29.5t20 48.5q0 9 -8.5 17.5t-19 14t-19 16.5t-8.5 27q0 20 14.5 34t33.5 14q27 0 43.5 -21.5t16.5 -59.5q0 -63 -32 -107.5t-89 -54.5v42z" />
    <glyph glyph-name="hyphen" unicode="-" horiz-adv-x="456" 
d="M66 264v69h324v-69h-324z" />
    <glyph glyph-name="period" unicode="." horiz-adv-x="212" 
d="M106 94q21 0 36 -15t15 -37q0 -21 -15 -36t-36 -15t-36 15t-15 36q0 22 15 37t36 15z" />
    <glyph glyph-name="slash" unicode="/" horiz-adv-x="411" 
d="M93 0h-79l304 700h79z" />
    <glyph glyph-name="zero" unicode="0" horiz-adv-x="626" 
d="M65 261v179q0 123 68 197t180 74q111 0 179 -74t68 -197v-179q0 -123 -68 -197t-179 -74q-112 0 -180 74t-68 197zM483 266v170q0 96 -46 151.5t-124 55.5q-79 0 -125 -55.5t-46 -151.5v-170q0 -97 46 -152.5t125 -55.5q78 0 124 56t46 152z" />
    <glyph glyph-name="one" unicode="1" horiz-adv-x="450" 
d="M404 68v-68h-355v68h139v564h-131v68h208v-632h139z" />
    <glyph glyph-name="two" unicode="2" horiz-adv-x="520" 
d="M467 511q1 -59 -24 -107t-82 -109l-209 -228l322 1v-68h-428v51l256 280q47 51 68 89.5t20 86.5q0 59 -40.5 97t-101.5 38q-50 0 -89.5 -26t-63.5 -73l-62 32q30 63 86.5 98.5t130.5 35.5q95 0 156 -56.5t61 -141.5z" />
    <glyph glyph-name="three" unicode="3" horiz-adv-x="546" 
d="M255 710q90 0 150.5 -54.5t60.5 -134.5q0 -54 -29.5 -95.5t-79.5 -59.5q59 -18 95 -66t36 -110q0 -86 -63 -143t-161 -57q-81 0 -143 37t-91 100l63 34q24 -49 68.5 -76.5t101.5 -27.5q65 0 107 38.5t42 98.5q0 58 -38 95t-96 37h-85v67h76q52 0 86.5 34.5t34.5 86.5
q0 57 -39.5 93t-99.5 36q-51 0 -90.5 -26t-60.5 -70l-64 31q28 61 85 96.5t134 35.5z" />
    <glyph glyph-name="four" unicode="4" horiz-adv-x="584" 
d="M377 0v184h-346v58l324 458h99v-449h94v-67h-94v-184h-77zM118 251h259v370z" />
    <glyph glyph-name="five" unicode="5" horiz-adv-x="557" 
d="M282 438q96 0 158 -61.5t62 -157.5q0 -98 -66 -163.5t-164 -65.5q-79 0 -140 36.5t-91 100.5l64 35q23 -50 66 -77.5t98 -27.5q67 0 112 46t45 114t-44 112t-112 44q-80 0 -136 -53l-63 9l17 371h370v-68h-304l-10 -246q55 52 138 52z" />
    <glyph glyph-name="six" unicode="6" horiz-adv-x="596" 
d="M313 644q-82 0 -129.5 -72.5t-47.5 -210.5v-58q18 68 68.5 106.5t117.5 38.5q93 0 155.5 -63.5t62.5 -157.5q0 -103 -64.5 -170t-161.5 -67q-114 0 -183 88.5t-69 235.5v58q0 157 67.5 247.5t182.5 90.5q70 0 124.5 -34.5t85.5 -96.5l-63 -33q-22 45 -61 71.5t-85 26.5z
M310 58q68 0 112 46t44 116q0 71 -44.5 117t-111.5 46t-111.5 -46t-44.5 -117q0 -70 44.5 -116t111.5 -46z" />
    <glyph glyph-name="seven" unicode="7" horiz-adv-x="526" 
d="M497 643l-331 -643h-88l333 632h-381v68h467v-57z" />
    <glyph glyph-name="eight" unicode="8" horiz-adv-x="578" 
d="M289 -10q-101 0 -165.5 55.5t-64.5 142.5q0 64 38 111t102 64q-54 19 -85.5 61t-31.5 98q0 81 58.5 134.5t148.5 53.5q91 0 149.5 -53.5t58.5 -134.5q0 -56 -31.5 -98t-86.5 -61q64 -17 102.5 -64t38.5 -111q0 -87 -65 -142.5t-166 -55.5zM289 393q58 0 95 35t37 90
q0 57 -36.5 92t-95.5 35q-58 0 -95 -35t-37 -92q0 -55 37 -90t95 -35zM289 328q-68 0 -111 -38t-43 -99q0 -60 43 -98t111 -38t111 38t43 98q0 61 -43 99t-111 38z" />
    <glyph glyph-name="nine" unicode="9" horiz-adv-x="596" 
d="M283 56q82 0 129.5 72.5t47.5 210.5v58q-18 -68 -68.5 -106.5t-117.5 -38.5q-93 0 -155.5 63.5t-62.5 157.5q0 103 64.5 170t161.5 67q114 0 183 -88.5t69 -235.5v-58q0 -157 -67.5 -247.5t-182.5 -90.5q-70 0 -124.5 34.5t-85.5 96.5l63 33q22 -45 61 -71.5t85 -26.5z
M286 642q-68 0 -112 -46t-44 -116q0 -71 44.5 -117t111.5 -46t111.5 46t44.5 117q0 70 -44.5 116t-111.5 46z" />
    <glyph glyph-name="colon" unicode=":" horiz-adv-x="212" 
d="M106 94q21 0 36 -15t15 -37q0 -21 -15 -36t-36 -15t-36 15t-15 36q0 22 15 37t36 15zM106 517q21 0 36 -15t15 -37q0 -21 -15 -36t-36 -15t-36 15t-15 36q0 22 15 37t36 15z" />
    <glyph glyph-name="semicolon" unicode=";" horiz-adv-x="219" 
d="M44 -109q28 5 48 29.5t20 48.5q0 9 -8.5 17.5t-19 14t-19 16.5t-8.5 27q0 20 14.5 34t33.5 14q27 0 43.5 -21.5t16.5 -59.5q0 -63 -32 -107.5t-89 -54.5v42zM108 517q21 0 36 -15t15 -37q0 -21 -15 -36t-36 -15t-36 15t-15 36q0 22 15 37t36 15z" />
    <glyph glyph-name="less" unicode="&#x3c;" horiz-adv-x="386" 
d="M355 527l-240 -262l244 -265h-92l-246 264l246 263h88z" />
    <glyph glyph-name="equal" unicode="=" horiz-adv-x="549" 
d="M483 465v-59h-417v59h417zM483 306v-59h-417v59h417z" />
    <glyph glyph-name="greater" unicode="&#x3e;" horiz-adv-x="386" 
d="M25 0l240 262l-244 265h92l246 -264l-246 -263h-88z" />
    <glyph glyph-name="question" unicode="?" horiz-adv-x="503" 
d="M458 510q0 -80 -51.5 -137.5t-133.5 -64.5l-3 -117h-65l-3 179h39q62 0 101 39.5t39 97.5q0 59 -42 99t-109 40q-96 0 -155 -80l-57 41q80 108 214 108q98 0 162 -59t64 -146zM235 94q21 0 36 -15t15 -37q0 -21 -15 -36t-36 -15t-36 15t-15 36q0 22 15 37t36 15z" />
    <glyph glyph-name="at" unicode="@" horiz-adv-x="837" 
d="M404 70q-73 0 -123.5 51t-50.5 123t50.5 122.5t123.5 50.5q68 0 117 -49v42h63v-222q0 -24 15 -40t42 -16q37 0 60.5 38t23.5 97q0 129 -87 211.5t-221 82.5q-128 0 -217 -90.5t-89 -221.5q0 -130 88.5 -220t215.5 -90q124 0 210 72l36 -38q-103 -84 -244 -84
q-150 0 -255 105t-105 255q0 151 105.5 256.5t256.5 105.5q156 0 258.5 -97t102.5 -245q0 -86 -42.5 -137.5t-101.5 -51.5q-74 0 -101 55q-49 -65 -131 -65zM408 127q47 0 80.5 34.5t33.5 82.5t-33.5 82t-80.5 34t-80.5 -34t-33.5 -82q0 -49 33.5 -83t80.5 -34z" />
    <glyph glyph-name="A" unicode="A" horiz-adv-x="656" 
d="M373 700l277 -700h-87l-75 195h-323l-75 -195h-84l277 700h90zM192 266h269l-134 349z" />
    <glyph glyph-name="B" unicode="B" horiz-adv-x="638" 
d="M92 0v700h243q85 0 142.5 -52.5t57.5 -128.5q0 -47 -28 -86.5t-75 -60.5q67 -17 108.5 -65.5t41.5 -111.5q0 -82 -59.5 -138.5t-148.5 -56.5h-282zM331 631h-159v-234h159q53 0 88 34t35 82q0 50 -35 84t-88 34zM366 69q58 0 96.5 38t38.5 93t-38 92.5t-97 37.5h-194
v-261h194z" />
    <glyph glyph-name="C" unicode="C" horiz-adv-x="692" 
d="M647 463h-78q-17 83 -73 129t-134 46q-95 0 -156.5 -66.5t-61.5 -183.5v-76q0 -117 61.5 -183.5t156.5 -66.5q78 0 134 46t73 129h78q-19 -115 -97.5 -181.5t-187.5 -66.5q-130 0 -214 87.5t-84 233.5v80q0 146 84 233.5t214 87.5q110 0 188 -66.5t97 -181.5z" />
    <glyph glyph-name="D" unicode="D" horiz-adv-x="712" 
d="M648 310q0 -143 -81.5 -226.5t-224.5 -83.5h-250v700h250q143 0 224.5 -84t81.5 -227v-79zM337 629h-165v-558h165q110 0 170.5 63t60.5 178v75q0 114 -60.5 178t-170.5 64z" />
    <glyph glyph-name="E" unicode="E" horiz-adv-x="593" 
d="M92 0v700h443v-71h-363v-243h353v-70h-353v-245h363v-71h-443z" />
    <glyph glyph-name="F" unicode="F" horiz-adv-x="593" 
d="M172 0h-80v700h443v-71h-363v-243h353v-70h-353v-316z" />
    <glyph glyph-name="G" unicode="G" horiz-adv-x="734" 
d="M64 312v78q0 143 83 232t217 89q99 0 173 -50t108 -137l-71 -30q-26 67 -82 105.5t-126 38.5q-101 0 -161.5 -68t-60.5 -182v-76q0 -115 61 -183t161 -68q89 0 149 54.5t60 143.5v33h-208v70h283v-362h-75v119q-32 -60 -90.5 -94.5t-127.5 -34.5q-131 0 -212 89t-81 233z
" />
    <glyph glyph-name="H" unicode="H" horiz-adv-x="715" 
d="M172 0h-80v700h80v-314h371v314h80v-700h-80v315h-371v-315z" />
    <glyph glyph-name="I" unicode="I" horiz-adv-x="265" 
d="M172 0h-80v700h80v-700z" />
    <glyph glyph-name="J" unicode="J" horiz-adv-x="502" 
d="M19 48l47 58q50 -44 123 -44q67 0 108.5 44t41.5 123v471h80v-476q0 -109 -64 -172t-164 -63q-104 0 -172 59z" />
    <glyph glyph-name="K" unicode="K" horiz-adv-x="609" 
d="M172 0h-80v700h80v-318l340 318h106l-374 -344l380 -356h-113l-339 323v-323z" />
    <glyph glyph-name="L" unicode="L" horiz-adv-x="571" 
d="M535 71v-71h-443v700h80v-629h363z" />
    <glyph glyph-name="M" unicode="M" horiz-adv-x="890" 
d="M169 0h-77v700h125l229 -597l229 597h123v-700h-78l1 622l-240 -622h-73l-240 624z" />
    <glyph glyph-name="N" unicode="N" horiz-adv-x="742" 
d="M168 0h-76v700h89l393 -586l-1 586h76v-700h-87l-395 587z" />
    <glyph glyph-name="O" unicode="O" horiz-adv-x="740" 
d="M64 390q0 145 85 233t221 88q137 0 221.5 -88t84.5 -233v-80q0 -145 -84.5 -233t-221.5 -88q-136 0 -221 88t-85 233v80zM144 385v-70q0 -119 62 -186t164 -67q103 0 164.5 67t61.5 186v70q0 119 -61.5 186t-164.5 67t-164.5 -67t-61.5 -186z" />
    <glyph glyph-name="P" unicode="P" horiz-adv-x="606" 
d="M92 0v700h265q90 0 151 -60.5t61 -147.5q0 -86 -61 -145.5t-151 -59.5h-185v-287h-80zM353 629h-181v-273h181q59 0 97 39t38 97t-38 97.5t-97 39.5z" />
    <glyph glyph-name="Q" unicode="Q" horiz-adv-x="740" 
d="M64 390q0 145 85 233t221 88q137 0 221.5 -88t84.5 -233v-80q0 -147 -89 -238l60 -73l-58 -48l-62 76q-68 -38 -157 -38q-136 0 -221 88t-85 233v80zM144 385v-70q0 -119 62 -186t164 -67q62 0 108 24l-90 110l59 48l91 -111q58 67 58 182v70q0 119 -61.5 186t-164.5 67
t-164.5 -67t-61.5 -186z" />
    <glyph glyph-name="R" unicode="R" horiz-adv-x="620" 
d="M172 0h-80v700h263q89 0 148.5 -58.5t59.5 -143.5q0 -69 -42 -121.5t-109 -69.5l187 -307h-91l-180 300h-156v-300zM348 629h-176v-261h176q59 0 97 37.5t38 92.5t-38 93t-97 38z" />
    <glyph glyph-name="S" unicode="S" horiz-adv-x="604" 
d="M48 210h79q11 -71 60.5 -110.5t126.5 -39.5q71 0 112.5 32.5t41.5 86.5q0 89 -125 122l-121 32q-82 22 -124.5 68.5t-42.5 114.5q0 86 63.5 140t161.5 54q102 0 171 -59.5t81 -158.5h-79q-11 71 -56.5 110.5t-118.5 39.5q-63 0 -103.5 -33t-40.5 -86q0 -86 114 -116
l125 -34q175 -47 175 -185q0 -88 -64 -142.5t-169 -54.5q-110 0 -183.5 60t-83.5 159z" />
    <glyph glyph-name="T" unicode="T" horiz-adv-x="621" 
d="M26 629v71h569v-71h-245v-629h-80v629h-244z" />
    <glyph glyph-name="U" unicode="U" horiz-adv-x="709" 
d="M162 264q0 -91 53 -146.5t134 -55.5q80 0 134 56t54 146v436h80v-700h-80v107q-30 -52 -82.5 -84.5t-118.5 -32.5q-109 0 -181.5 74.5t-72.5 193.5v442h80v-436z" />
    <glyph glyph-name="V" unicode="V" horiz-adv-x="656" 
d="M283 0l-277 700h87l237 -613l236 613h84l-277 -700h-90z" />
    <glyph glyph-name="W" unicode="W" horiz-adv-x="945" 
d="M509 700l185 -579l143 579h79l-183 -700h-76l-184 579l-185 -579h-76l-183 700h83l143 -579l184 579h70z" />
    <glyph glyph-name="X" unicode="X" horiz-adv-x="597" 
d="M0 0l253 364l-235 336h94l186 -273l188 273h91l-235 -336l255 -364h-94l-206 302l-205 -302h-92z" />
    <glyph glyph-name="Y" unicode="Y" horiz-adv-x="618" 
d="M349 0h-80v292l-268 408h94l216 -333l214 333h92l-268 -411v-289z" />
    <glyph glyph-name="Z" unicode="Z" horiz-adv-x="558" 
d="M44 629v71h472v-55l-380 -574h382v-71h-483v54l380 575h-371z" />
    <glyph glyph-name="bracketleft" unicode="[" horiz-adv-x="332" 
d="M49 -125v915h253v-62h-182v-791h182v-62h-253z" />
    <glyph glyph-name="backslash" unicode="\" horiz-adv-x="411" 
d="M396 0h-79l-304 700h79z" />
    <glyph glyph-name="bracketright" unicode="]" horiz-adv-x="332" 
d="M282 790v-915h-253v62h182v791h-182v62h253z" />
    <glyph glyph-name="asciicircum" unicode="^" horiz-adv-x="517" 
d="M37 350l187 350h69l187 -350h-72l-149 281l-149 -281h-73z" />
    <glyph glyph-name="underscore" unicode="_" horiz-adv-x="483" 
d="M486 -80v-59h-489v59h489z" />
    <glyph glyph-name="grave" unicode="`" horiz-adv-x="500" 
d="M237 718l114 -130h-78l-128 130h92z" />
    <glyph glyph-name="a" unicode="a" horiz-adv-x="544" 
d="M42 145q0 70 43.5 109t119.5 44l167 9v49q0 52 -29 81t-82 29q-80 0 -141 -58l-40 55q83 72 189 72q82 0 130.5 -46t48.5 -123v-267q0 -31 34 -31h26v-68h-43q-39 0 -63.5 21t-27.5 57q-24 -40 -65 -63.5t-92 -23.5q-76 0 -125.5 43.5t-49.5 110.5zM117 148
q0 -41 31 -67.5t80 -26.5q60 0 102 37.5t42 89.5v63l-158 -8q-46 -2 -71.5 -25t-25.5 -63z" />
    <glyph glyph-name="b" unicode="b" horiz-adv-x="606" 
d="M88 0v733h77v-296q26 47 70.5 73t100.5 26q92 0 150.5 -64.5t58.5 -168.5v-79q0 -104 -59 -169t-150 -65q-57 0 -101.5 27t-69.5 76v-93h-77zM165 296v-65q0 -78 41.5 -125.5t110.5 -47.5t110.5 47.5t41.5 125.5v65q0 78 -41.5 125t-110.5 47t-110.5 -47t-41.5 -125z" />
    <glyph glyph-name="c" unicode="c" horiz-adv-x="540" 
d="M282 -10q-97 0 -159.5 65t-62.5 170v76q0 105 62.5 170t159.5 65q82 0 139.5 -47.5t74.5 -129.5h-77q-14 51 -50 80t-87 29q-66 0 -106 -47.5t-40 -124.5v-65q0 -78 40 -125.5t106 -47.5q51 0 87 29t50 80h77q-17 -81 -75 -129t-139 -48z" />
    <glyph glyph-name="d" unicode="d" horiz-adv-x="606" 
d="M518 0h-77v94q-26 -49 -70.5 -76.5t-101.5 -27.5q-91 0 -150 65t-59 169v79q0 104 58.5 168.5t150.5 64.5q117 0 172 -101v298h77v-733zM441 296q0 78 -41.5 125t-111.5 47q-69 0 -110.5 -47.5t-41.5 -124.5v-65q0 -78 41.5 -125.5t110.5 -47.5q70 0 111.5 47.5
t41.5 125.5v65z" />
    <glyph glyph-name="e" unicode="e" horiz-adv-x="547" 
d="M60 226v75q0 103 63 169t160 66q90 0 149.5 -65t59.5 -166v-65h-356v-13q0 -75 42.5 -122t109.5 -47q85 0 140 72l54 -45q-75 -94 -196 -94q-98 0 -162 66t-64 169zM281 469q-63 0 -104 -46.5t-41 -119.5h281v4q0 71 -38.5 116.5t-97.5 45.5z" />
    <glyph glyph-name="f" unicode="f" horiz-adv-x="386" 
d="M32 459v68h108v110q0 49 29.5 79t81.5 30h103v-68h-92q-46 0 -46 -52v-99h138v-68h-138v-459h-76v459h-108z" />
    <glyph glyph-name="g" unicode="g" horiz-adv-x="602" 
d="M196 -215v67h122q120 0 120 120v121q-54 -100 -170 -100q-91 0 -149.5 65t-58.5 168v76q0 104 58.5 169t149.5 65q56 0 100 -26.5t70 -73.5v91h77v-563q0 -83 -48 -131t-132 -48h-139zM438 296q0 78 -41 125t-109 47t-110 -47t-42 -125v-65q0 -78 41.5 -124t110.5 -46
t109.5 46t40.5 124v65z" />
    <glyph glyph-name="h" unicode="h" 
d="M517 344v-344h-77v329q0 60 -36.5 99t-95.5 39q-63 0 -103 -41t-40 -103v-323h-77v733h77v-305q21 50 66 79.5t101 29.5q82 0 133.5 -55.5t51.5 -137.5z" />
    <glyph glyph-name="i" unicode="i" horiz-adv-x="253" 
d="M127 630q-21 0 -36.5 15.5t-15.5 35.5q0 22 15.5 37t36.5 15q20 0 35 -15t15 -37q0 -20 -15 -35.5t-35 -15.5zM165 527v-527h-77v527h77z" />
    <glyph glyph-name="j" unicode="j" horiz-adv-x="253" 
d="M127 630q-21 0 -36.5 15.5t-15.5 35.5q0 22 15.5 37t36.5 15q20 0 35 -15t15 -37q0 -20 -15 -35.5t-35 -15.5zM61 -215h-51v67h34q44 0 44 40v635h77v-646q0 -43 -28 -69.5t-76 -26.5z" />
    <glyph glyph-name="k" unicode="k" horiz-adv-x="505" 
d="M506 527l-268 -253l281 -274h-105l-249 248v-248h-77v733h77v-440l242 234h99z" />
    <glyph glyph-name="l" unicode="l" horiz-adv-x="253" 
d="M165 0h-77v733h77v-733z" />
    <glyph glyph-name="m" unicode="m" horiz-adv-x="930" 
d="M165 319v-319h-77v527h77v-99q20 50 62.5 79.5t95.5 29.5q62 0 107 -36t62 -95q18 59 63.5 95t106.5 36q79 0 129.5 -56t50.5 -140v-341h-77v326q0 61 -35 101t-91 40q-60 0 -98 -42t-38 -106v-319h-77v326q0 61 -35 101t-91 40q-59 0 -97 -42t-38 -106z" />
    <glyph glyph-name="n" unicode="n" 
d="M517 344v-344h-77v329q0 60 -36.5 99t-95.5 39q-63 0 -103 -41t-40 -103v-323h-77v527h77v-99q21 50 66 79.5t101 29.5q82 0 133.5 -55.5t51.5 -137.5z" />
    <glyph glyph-name="o" unicode="o" horiz-adv-x="574" 
d="M514 225q0 -105 -64 -170t-163 -65t-163 65t-64 170v76q0 106 63.5 170.5t163.5 64.5q99 0 163 -65t64 -170v-76zM438 296q0 77 -41.5 124.5t-109.5 47.5q-69 0 -110 -47t-41 -125v-65q0 -78 41 -125.5t110 -47.5q68 0 109.5 47.5t41.5 125.5v65z" />
    <glyph glyph-name="p" unicode="p" 
d="M88 527h77v-90q26 47 70.5 73t100.5 26q92 0 150.5 -64.5t58.5 -168.5v-79q0 -104 -59 -169t-150 -65q-57 0 -101.5 27t-69.5 76v-308h-77v742zM165 296v-65q0 -78 41.5 -125.5t110.5 -47.5t110.5 47.5t41.5 125.5v65q0 78 -41.5 125t-110.5 47t-110.5 -47t-41.5 -125z
" />
    <glyph glyph-name="q" unicode="q" horiz-adv-x="606" 
d="M518 527v-742h-77v309q-26 -49 -70.5 -76.5t-101.5 -27.5q-91 0 -150 65t-59 169v79q0 104 58.5 168.5t150.5 64.5q117 0 172 -101v92h77zM441 296q0 78 -41.5 125t-111.5 47q-69 0 -110.5 -47.5t-41.5 -124.5v-65q0 -78 41.5 -125.5t110.5 -47.5q70 0 111.5 47.5
t41.5 125.5v65z" />
    <glyph glyph-name="r" unicode="r" horiz-adv-x="375" 
d="M345 456h-50q-55 0 -92.5 -41t-37.5 -102v-313h-77v527h76v-106q16 50 52 80t85 30h44v-75z" />
    <glyph glyph-name="s" unicode="s" horiz-adv-x="488" 
d="M257 -10q-87 0 -146.5 47.5t-71.5 122.5h75q9 -46 47 -76t96 -30q48 0 78 23t30 58q0 59 -90 85l-89 23q-138 36 -138 142q0 68 49 109.5t128 41.5q81 0 139.5 -46.5t68.5 -121.5h-76q-8 45 -45 75t-87 30q-46 0 -73.5 -22t-27.5 -57q0 -59 85 -82l87 -23
q70 -18 107.5 -56t37.5 -91q0 -68 -51.5 -110t-132.5 -42z" />
    <glyph glyph-name="t" unicode="t" horiz-adv-x="389" 
d="M253 0q-53 0 -83.5 29t-30.5 76v354h-108v68h108v158h76v-158h141v-68h-141v-343q0 -48 53 -48h88v-68h-103z" />
    <glyph glyph-name="u" unicode="u" 
d="M88 182v345h77v-330q0 -59 36.5 -98t95.5 -39q63 0 103 40.5t40 103.5v323h77v-527h-77v99q-21 -51 -65.5 -80t-100.5 -29q-83 0 -134.5 55t-51.5 137z" />
    <glyph glyph-name="v" unicode="v" horiz-adv-x="502" 
d="M217 0l-212 527h81l167 -425l166 425h79l-213 -527h-68z" />
    <glyph glyph-name="w" unicode="w" horiz-adv-x="742" 
d="M339 527h65l130 -407l110 407h77l-148 -527h-69l-133 413l-134 -413h-69l-148 527h79l110 -409z" />
    <glyph glyph-name="x" unicode="x" horiz-adv-x="476" 
d="M1 0l194 271l-182 256h87l138 -197l139 197h86l-184 -255l196 -272h-88l-150 213l-150 -213h-86z" />
    <glyph glyph-name="y" unicode="y" horiz-adv-x="506" 
d="M178 -92l39 99l-212 520h81l171 -421l164 421h80l-255 -641q-19 -51 -49.5 -76t-79.5 -25h-68v67h56q51 0 73 56z" />
    <glyph glyph-name="z" unicode="z" horiz-adv-x="473" 
d="M43 459v68h381v-57l-291 -402h298v-68h-392v56l293 403h-289z" />
    <glyph glyph-name="braceleft" unicode="{" horiz-adv-x="399" 
d="M255 168l-51 -114q-23 -59 -1.5 -92t73.5 -34q40 0 82 17l17 -57q-50 -22 -103 -22q-97 0 -135.5 61t2.5 151l48 104q22 49 1 84.5t-71 35.5h-90v62h89q51 0 72 35.5t-1 84.5l-48 104q-41 90 -2.5 151t135.5 61q54 0 103 -22l-17 -57q-42 17 -82 17q-52 -1 -73.5 -34
t1.5 -92l51 -114q25 -62 2 -106.5t-79 -58.5q56 -14 79 -58.5t-2 -106.5z" />
    <glyph glyph-name="bar" unicode="|" horiz-adv-x="244" 
d="M160 -215h-77v915h77v-915z" />
    <glyph glyph-name="braceright" unicode="}" horiz-adv-x="399" 
d="M146 498l51 114q23 59 1.5 92t-73.5 34q-40 0 -82 -17l-17 57q49 22 103 22q97 0 135.5 -61t-2.5 -151l-48 -104q-22 -49 -1 -84.5t71 -35.5h90v-62h-89q-51 0 -72 -35.5t1 -84.5l48 -104q41 -90 2.5 -151t-135.5 -61q-53 0 -103 22l17 57q42 -17 82 -17q52 1 73.5 34
t-1.5 92l-51 114q-25 62 -2 106.5t79 58.5q-56 14 -79 58.5t2 106.5z" />
    <glyph glyph-name="asciitilde" unicode="~" horiz-adv-x="551" 
d="M128 311l-62 16q35 126 116 126q32 0 106 -36.5t96 -36.5q19 0 32.5 16.5t27.5 59.5l62 -16q-35 -126 -116 -126q-32 0 -106 36.5t-96 36.5q-19 0 -32.5 -16.5t-27.5 -59.5z" />
    <glyph glyph-name="uni00A0" unicode="&#xa0;" horiz-adv-x="223" 
 />
    <glyph glyph-name="exclamdown" unicode="&#xa1;" horiz-adv-x="207" 
d="M70 514h67l6 -544h-79zM103 606q-21 0 -36 15t-15 37q0 21 15 36t36 15t36 -15t15 -36q0 -22 -15 -37t-36 -15z" />
    <glyph glyph-name="cent" unicode="&#xa2;" horiz-adv-x="550" 
d="M316 628v-94q70 -9 118 -55t64 -120h-77q-25 89 -105 106v-404q80 17 105 106h77q-16 -73 -64.5 -119.5t-117.5 -55.5v-99h-63v99q-85 11 -138 74t-53 159v76q0 96 53 159t138 74v94h63zM138 231q0 -68 31 -113.5t84 -56.5v404q-53 -11 -84 -56.5t-31 -112.5v-65z" />
    <glyph glyph-name="sterling" unicode="&#xa3;" horiz-adv-x="567" 
d="M386 370v-61h-175l26 -96q27 -94 -36 -145h336v-68h-500v68h40q50 0 75.5 39t9.5 99l-28 103h-89v61h72l-14 53q-34 123 22.5 204t173.5 81q94 0 155.5 -54.5t70.5 -146.5h-75q-7 62 -48.5 98.5t-103.5 36.5q-78 0 -112 -57.5t-8 -152.5l17 -62h191z" />
    <glyph glyph-name="yen" unicode="&#xa5;" horiz-adv-x="625" 
d="M107 201h169v80h-169v57h139l-238 362h94l216 -333l214 333h92l-236 -362h138v-57h-170v-80h170v-57h-170v-144h-80v144h-169v57z" />
    <glyph glyph-name="section" unicode="&#xa7;" horiz-adv-x="506" 
d="M440 35q0 -64 -46.5 -105t-122.5 -41q-81 0 -137 45t-67 115h74q8 -43 45 -70.5t85 -27.5q43 0 69 20.5t26 54.5q0 60 -81 87l-134 46q-136 46 -136 155q0 53 28.5 91t75.5 52q-53 41 -53 105q0 66 46.5 106.5t121.5 40.5q80 0 134.5 -45.5t64.5 -115.5h-74
q-8 44 -44 71.5t-81 27.5q-42 0 -67.5 -21t-25.5 -56q0 -57 82 -86l131 -46q136 -48 136 -155q0 -52 -28.5 -90t-77.5 -52q56 -40 56 -106zM331 372l-116 40q-49 16 -87.5 -11t-38.5 -76q0 -71 85 -100l103 -36q59 -18 99 8t40 75q0 71 -85 100z" />
    <glyph glyph-name="dieresis" unicode="&#xa8;" horiz-adv-x="519" 
d="M173 601q-20 0 -35 15t-15 36t15 35.5t35 14.5t35 -14.5t15 -35.5t-15 -36t-35 -15zM347 601q-20 0 -35 15t-15 36t15 35.5t35 14.5t35 -14.5t15 -35.5t-15 -36t-35 -15z" />
    <glyph glyph-name="copyright" unicode="&#xa9;" horiz-adv-x="835" 
d="M418 -11q-151 0 -256 105t-105 255q0 151 105 256.5t256 105.5t256 -105t105 -255q0 -151 -105 -256.5t-256 -105.5zM418 39q128 0 217 91t89 221t-89 220t-217 90t-217.5 -91t-89.5 -221t89.5 -220t217.5 -90zM301 350q0 -54 37 -91.5t88 -37.5q67 0 104 54l46 -33
q-56 -77 -150 -77q-79 0 -133.5 54t-54.5 131t54.5 131t133.5 54q93 0 150 -76l-46 -34q-38 54 -104 54q-51 0 -88 -37.5t-37 -91.5z" />
    <glyph glyph-name="ordfeminine" unicode="&#xaa;" horiz-adv-x="402" 
d="M33 434q0 49 31 76.5t86 30.5l112 7v29q0 34 -19 52.5t-54 18.5q-53 0 -98 -38l-31 48q61 50 137 50q60 0 95 -33.5t35 -89.5v-173q0 -22 23 -22h19v-58h-35q-28 0 -46 14.5t-23 38.5q-35 -61 -108 -61q-54 0 -89 31t-35 79zM97 436q0 -26 20.5 -42.5t51.5 -16.5
q39 0 66 24t27 59v38l-104 -6q-29 -2 -45 -16.5t-16 -39.5z" />
    <glyph glyph-name="guillemotleft" unicode="&#xab;" horiz-adv-x="602" 
d="M355 527l-240 -262l244 -265h-92l-246 264l246 263h88zM571 527l-240 -262l244 -265h-92l-246 264l246 263h88z" />
    <glyph glyph-name="registered" unicode="&#xae;" horiz-adv-x="471" 
d="M235 309q-83 0 -141.5 58.5t-58.5 142.5t58.5 142.5t141.5 58.5t141.5 -58.5t58.5 -142.5t-58.5 -142.5t-141.5 -58.5zM235 346q67 0 114 48t47 116t-47 116t-114 48t-114 -48t-47 -116t47 -116t114 -48zM168 419v187h77q25 0 41.5 -16.5t16.5 -40.5q0 -36 -35 -51
l47 -79h-42l-42 74h-25v-74h-38zM236 574h-30v-51h30q13 0 21 7.5t8 18.5q0 25 -29 25z" />
    <glyph glyph-name="macron" unicode="&#xaf;" horiz-adv-x="500" 
d="M378 671v-55h-248v55h248z" />
    <glyph glyph-name="degree" unicode="&#xb0;" horiz-adv-x="369" 
d="M185 424q-61 0 -102 42t-41 103q0 57 41.5 99t101.5 42q59 0 100.5 -42t41.5 -99q0 -61 -41.5 -103t-100.5 -42zM185 475q37 0 63 28t26 67q0 37 -26.5 63t-62.5 26q-37 0 -63.5 -26.5t-26.5 -62.5q0 -39 26 -67t64 -28z" />
    <glyph glyph-name="plusminus" unicode="&#xb1;" horiz-adv-x="550" 
d="M308 173h-65v177h-177v64h177v173h65v-173h176v-64h-176v-177zM484 63v-63h-418v63h418z" />
    <glyph glyph-name="twosuperior" unicode="&#xb2;" horiz-adv-x="309" 
d="M274 593q1 -31 -12.5 -58t-45.5 -61l-101 -108l164 1v-52h-247v39l139 150q44 47 44 85q0 29 -19.5 47.5t-48.5 18.5q-51 0 -80 -53l-47 26q40 78 129 78q56 0 90.5 -32t34.5 -81z" />
    <glyph glyph-name="threesuperior" unicode="&#xb3;" horiz-adv-x="325" 
d="M156 706q53 -1 87.5 -31t34.5 -75q0 -28 -15.5 -50t-42.5 -33q31 -11 51 -37t20 -58q0 -49 -37.5 -81.5t-95.5 -32.5q-98 0 -137 77l50 26q26 -52 86 -52q32 0 52.5 19t20.5 47q0 27 -18 44.5t-47 17.5h-52v49h47q25 0 42 16.5t17 41.5q0 27 -19.5 44t-48.5 17
q-52 0 -76 -50l-49 25q17 35 50.5 55.5t79.5 20.5z" />
    <glyph glyph-name="acute" unicode="&#xb4;" horiz-adv-x="500" 
d="M265 718h92l-129 -130h-77z" />
    <glyph glyph-name="paragraph" unicode="&#xb6;" horiz-adv-x="564" 
d="M24 495q0 86 60 145.5t149 59.5h264v-700h-69v292h-71v-292h-69v292h-55q-89 0 -149 59t-60 144z" />
    <glyph glyph-name="periodcentered" unicode="&#xb7;" horiz-adv-x="213" 
d="M106 353q21 0 36 -15t15 -37q0 -21 -15 -36t-36 -15t-36 15t-15 36q0 22 15 37t36 15z" />
    <glyph glyph-name="cedilla" unicode="&#xb8;" horiz-adv-x="500" 
d="M378 -138q0 -38 -30 -64t-74 -26q-71 0 -105 47l37 31q27 -33 66 -33q24 0 38.5 13t14.5 33t-16.5 32.5t-43.5 12.5h-33l29 98h47l-18 -61q40 -3 64 -25.5t24 -57.5z" />
    <glyph glyph-name="onesuperior" unicode="&#xb9;" horiz-adv-x="274" 
d="M248 367v-52h-220v52h80v281h-71v52h131v-333h80z" />
    <glyph glyph-name="ordmasculine" unicode="&#xba;" horiz-adv-x="417" 
d="M372 493q0 -76 -46 -122t-118 -46q-71 0 -117 46t-46 122v48q0 76 45.5 122t117.5 46t118 -46t46 -122v-48zM307 538q0 52 -27 83t-72 31t-71.5 -31t-26.5 -83v-42q0 -52 26.5 -82.5t71.5 -30.5t72 30.5t27 82.5v42z" />
    <glyph glyph-name="guillemotright" unicode="&#xbb;" horiz-adv-x="602" 
d="M247 0l240 262l-244 265h92l246 -264l-246 -263h-88zM31 0l240 262l-244 265h92l246 -264l-246 -263h-88z" />
    <glyph glyph-name="onequarter" unicode="&#xbc;" horiz-adv-x="693" 
d="M248 367v-52h-220v52h80v281h-71v52h131v-333h80zM570 0v97h-188v45l171 243h77v-237h48v-51h-48v-97h-60zM446 148h124v180zM193 0h-65l383 700h66z" />
    <glyph glyph-name="onehalf" unicode="&#xbd;" horiz-adv-x="723" 
d="M248 367v-52h-220v52h80v281h-71v52h131v-333h80zM693 278q1 -31 -12.5 -58t-45.5 -61l-101 -108l164 1v-52h-247v39l139 150q44 47 44 85q0 29 -19.5 47.5t-48.5 18.5q-51 0 -80 -53l-47 26q40 78 129 78q56 0 90.5 -32t34.5 -81zM191 0h-65l383 700h66z" />
    <glyph glyph-name="threequarters" unicode="&#xbe;" horiz-adv-x="699" 
d="M156 706q53 -1 87.5 -31t34.5 -75q0 -28 -15.5 -50t-42.5 -33q31 -11 51 -37t20 -58q0 -49 -37.5 -81.5t-95.5 -32.5q-98 0 -137 77l50 26q26 -52 86 -52q32 0 52.5 19t20.5 47q0 27 -18 44.5t-47 17.5h-52v49h47q25 0 42 16.5t17 41.5q0 27 -19.5 44t-48.5 17
q-52 0 -76 -50l-49 25q17 35 50.5 55.5t79.5 20.5zM589 0v97h-188v45l171 243h77v-237h48v-51h-48v-97h-60zM465 148h124v180zM212 0h-65l383 700h66z" />
    <glyph glyph-name="questiondown" unicode="&#xbf;" horiz-adv-x="503" 
d="M45 195q0 80 51.5 137.5t133.5 64.5l3 117h65l3 -179h-39q-62 0 -101 -39.5t-39 -97.5q0 -59 42 -99t109 -40q96 0 155 80l57 -41q-80 -108 -214 -108q-98 0 -162 59t-64 146zM268 611q-21 0 -36 15t-15 37q0 21 15 36t36 15t36 -15t15 -36q0 -22 -15 -37t-36 -15z" />
    <glyph glyph-name="Agrave" unicode="&#xc0;" horiz-adv-x="656" 
d="M373 700l277 -700h-87l-75 195h-323l-75 -195h-84l277 700h90zM192 266h269l-134 349zM274 915l114 -130h-78l-128 130h92z" />
    <glyph glyph-name="Aacute" unicode="&#xc1;" horiz-adv-x="656" 
d="M373 700l277 -700h-87l-75 195h-323l-75 -195h-84l277 700h90zM192 266h269l-134 349zM382 915h92l-129 -130h-77z" />
    <glyph glyph-name="Acircumflex" unicode="&#xc2;" horiz-adv-x="656" 
d="M373 700l277 -700h-87l-75 195h-323l-75 -195h-84l277 700h90zM192 266h269l-134 349zM253 785h-71l109 130h78l109 -130h-71l-77 84z" />
    <glyph glyph-name="Atilde" unicode="&#xc3;" horiz-adv-x="656" 
d="M373 700l277 -700h-87l-75 195h-323l-75 -195h-84l277 700h90zM192 266h269l-134 349zM268 906q24 0 65 -30.5t53 -30.5q14 0 23.5 13.5t20.5 49.5l51 -12q-27 -105 -91 -105q-24 0 -65.5 30t-52.5 30q-14 0 -23.5 -13.5t-21.5 -49.5l-51 12q29 106 92 106z" />
    <glyph glyph-name="Adieresis" unicode="&#xc4;" horiz-adv-x="656" 
d="M373 700l277 -700h-87l-75 195h-323l-75 -195h-84l277 700h90zM192 266h269l-134 349zM242 798q-20 0 -35 15t-15 36t15 35.5t35 14.5t35 -14.5t15 -35.5t-15 -36t-35 -15zM416 798q-20 0 -35 15t-15 36t15 35.5t35 14.5t35 -14.5t15 -35.5t-15 -36t-35 -15z" />
    <glyph glyph-name="Aring" unicode="&#xc5;" horiz-adv-x="656" 
d="M373 700l277 -700h-87l-75 195h-323l-75 -195h-84l277 700h90zM192 266h269l-134 349zM329 768q-43 0 -74 30t-31 72t31 72t74 30t74 -30t31 -72t-31 -72t-74 -30zM329 809q26 0 44 17.5t18 43.5t-18 43.5t-44 17.5t-44 -17.5t-18 -43.5t18 -43.5t44 -17.5z" />
    <glyph glyph-name="AE" unicode="&#xc6;" horiz-adv-x="955" 
d="M897 71v-71h-419v185h-260l-112 -185h-93l433 700h451v-71h-339v-243h329v-70h-329v-245h339zM260 256h218v361z" />
    <glyph glyph-name="Ccedilla" unicode="&#xc7;" horiz-adv-x="692" 
d="M647 463h-78q-17 83 -73 129t-134 46q-95 0 -156.5 -66.5t-61.5 -183.5v-76q0 -117 61.5 -183.5t156.5 -66.5q78 0 134 46t73 129h78q-18 -108 -89 -173.5t-172 -73.5l-13 -45q40 -3 64 -25.5t24 -57.5q0 -38 -30 -64t-74 -26q-71 0 -105 47l37 31q27 -33 66 -33
q24 0 38.5 13t14.5 33t-16.5 32.5t-43.5 12.5h-33l24 82q-121 8 -198 94.5t-77 225.5v80q0 146 84 233.5t214 87.5q110 0 188 -66.5t97 -181.5z" />
    <glyph glyph-name="Egrave" unicode="&#xc8;" horiz-adv-x="593" 
d="M92 0v700h443v-71h-363v-243h353v-70h-353v-245h363v-71h-443zM267 915l114 -130h-78l-128 130h92z" />
    <glyph glyph-name="Eacute" unicode="&#xc9;" horiz-adv-x="593" 
d="M92 0v700h443v-71h-363v-243h353v-70h-353v-245h363v-71h-443zM376 915h92l-129 -130h-77z" />
    <glyph glyph-name="Ecircumflex" unicode="&#xca;" horiz-adv-x="593" 
d="M92 0v700h443v-71h-363v-243h353v-70h-353v-245h363v-71h-443zM246 785h-71l109 130h78l109 -130h-71l-77 84z" />
    <glyph glyph-name="Edieresis" unicode="&#xcb;" horiz-adv-x="593" 
d="M92 0v700h443v-71h-363v-243h353v-70h-353v-245h363v-71h-443zM236 798q-20 0 -35 15t-15 36t15 35.5t35 14.5t35 -14.5t15 -35.5t-15 -36t-35 -15zM410 798q-20 0 -35 15t-15 36t15 35.5t35 14.5t35 -14.5t15 -35.5t-15 -36t-35 -15z" />
    <glyph glyph-name="Igrave" unicode="&#xcc;" horiz-adv-x="265" 
d="M172 0h-80v700h80v-700zM77 915l114 -130h-78l-128 130h92z" />
    <glyph glyph-name="Iacute" unicode="&#xcd;" horiz-adv-x="265" 
d="M172 0h-80v700h80v-700zM186 915h92l-129 -130h-77z" />
    <glyph glyph-name="Icircumflex" unicode="&#xce;" horiz-adv-x="265" 
d="M172 0h-80v700h80v-700zM56 785h-71l109 130h78l109 -130h-71l-77 84z" />
    <glyph glyph-name="Idieresis" unicode="&#xcf;" horiz-adv-x="265" 
d="M172 0h-80v700h80v-700zM46 798q-20 0 -35 15t-15 36t15 35.5t35 14.5t35 -14.5t15 -35.5t-15 -36t-35 -15zM220 798q-20 0 -35 15t-15 36t15 35.5t35 14.5t35 -14.5t15 -35.5t-15 -36t-35 -15z" />
    <glyph glyph-name="Eth" unicode="&#xd0;" horiz-adv-x="719" 
d="M3 316v69h96v315h250q143 0 224.5 -84t81.5 -227v-79q0 -143 -81.5 -226.5t-224.5 -83.5h-250v316h-96zM344 629h-165v-244h151v-69h-151v-245h165q110 0 170.5 63t60.5 178v75q0 114 -60.5 178t-170.5 64z" />
    <glyph glyph-name="Ntilde" unicode="&#xd1;" horiz-adv-x="742" 
d="M168 0h-76v700h89l393 -586l-1 586h76v-700h-87l-395 587zM310 906q23 0 64.5 -30.5t53.5 -30.5q14 0 23.5 13.5t20.5 49.5l51 -12q-27 -105 -91 -105q-24 0 -65.5 30t-52.5 30q-14 0 -23.5 -13.5t-21.5 -49.5l-51 12q29 106 92 106z" />
    <glyph glyph-name="Ograve" unicode="&#xd2;" horiz-adv-x="740" 
d="M64 390q0 145 85 233t221 88q137 0 221.5 -88t84.5 -233v-80q0 -145 -84.5 -233t-221.5 -88q-136 0 -221 88t-85 233v80zM144 385v-70q0 -119 62 -186t164 -67q103 0 164.5 67t61.5 186v70q0 119 -61.5 186t-164.5 67t-164.5 -67t-61.5 -186zM315 915l114 -130h-78
l-128 130h92z" />
    <glyph glyph-name="Oacute" unicode="&#xd3;" horiz-adv-x="740" 
d="M64 390q0 145 85 233t221 88q137 0 221.5 -88t84.5 -233v-80q0 -145 -84.5 -233t-221.5 -88q-136 0 -221 88t-85 233v80zM144 385v-70q0 -119 62 -186t164 -67q103 0 164.5 67t61.5 186v70q0 119 -61.5 186t-164.5 67t-164.5 -67t-61.5 -186zM423 915h92l-129 -130h-77z
" />
    <glyph glyph-name="Ocircumflex" unicode="&#xd4;" horiz-adv-x="740" 
d="M64 390q0 145 85 233t221 88q137 0 221.5 -88t84.5 -233v-80q0 -145 -84.5 -233t-221.5 -88q-136 0 -221 88t-85 233v80zM144 385v-70q0 -119 62 -186t164 -67q103 0 164.5 67t61.5 186v70q0 119 -61.5 186t-164.5 67t-164.5 -67t-61.5 -186zM294 785h-71l109 130h78
l109 -130h-71l-77 84z" />
    <glyph glyph-name="Otilde" unicode="&#xd5;" horiz-adv-x="740" 
d="M64 390q0 145 85 233t221 88q137 0 221.5 -88t84.5 -233v-80q0 -145 -84.5 -233t-221.5 -88q-136 0 -221 88t-85 233v80zM144 385v-70q0 -119 62 -186t164 -67q103 0 164.5 67t61.5 186v70q0 119 -61.5 186t-164.5 67t-164.5 -67t-61.5 -186zM309 906q23 0 65 -30.5
t53 -30.5q14 0 23.5 13.5t20.5 49.5l51 -12q-27 -105 -91 -105q-24 0 -65.5 30t-52.5 30q-14 0 -23.5 -13.5t-21.5 -49.5l-51 12q29 106 92 106z" />
    <glyph glyph-name="Odieresis" unicode="&#xd6;" horiz-adv-x="740" 
d="M64 390q0 145 85 233t221 88q137 0 221.5 -88t84.5 -233v-80q0 -145 -84.5 -233t-221.5 -88q-136 0 -221 88t-85 233v80zM144 385v-70q0 -119 62 -186t164 -67q103 0 164.5 67t61.5 186v70q0 119 -61.5 186t-164.5 67t-164.5 -67t-61.5 -186zM283 798q-20 0 -35 15
t-15 36t15 35.5t35 14.5t35 -14.5t15 -35.5t-15 -36t-35 -15zM457 798q-20 0 -35 15t-15 36t15 35.5t35 14.5t35 -14.5t15 -35.5t-15 -36t-35 -15z" />
    <glyph glyph-name="multiply" unicode="&#xd7;" horiz-adv-x="525" 
d="M108 161l-42 42l154 156l-154 156l43 43l154 -156l153 156l42 -42l-154 -156l155 -157l-43 -43l-154 157z" />
    <glyph glyph-name="Oslash" unicode="&#xd8;" horiz-adv-x="740" 
d="M54 0l77 98q-67 84 -67 212v80q0 145 85 233t221 88q115 0 195 -64l42 53h78l-76 -97q67 -84 67 -213v-80q0 -145 -84.5 -233t-221.5 -88q-116 0 -196 65l-42 -54h-78zM144 385v-70q0 -90 38 -153l336 425q-59 51 -148 51q-103 0 -164.5 -67t-61.5 -186zM596 385
q0 91 -38 154l-336 -425q58 -52 148 -52q103 0 164.5 67t61.5 186v70z" />
    <glyph glyph-name="Ugrave" unicode="&#xd9;" horiz-adv-x="709" 
d="M162 264q0 -91 53 -146.5t134 -55.5q80 0 134 56t54 146v436h80v-700h-80v107q-30 -52 -82.5 -84.5t-118.5 -32.5q-109 0 -181.5 74.5t-72.5 193.5v442h80v-436zM295 915l114 -130h-78l-128 130h92z" />
    <glyph glyph-name="Uacute" unicode="&#xda;" horiz-adv-x="709" 
d="M162 264q0 -91 53 -146.5t134 -55.5q80 0 134 56t54 146v436h80v-700h-80v107q-30 -52 -82.5 -84.5t-118.5 -32.5q-109 0 -181.5 74.5t-72.5 193.5v442h80v-436zM403 915h92l-129 -130h-77z" />
    <glyph glyph-name="Ucircumflex" unicode="&#xdb;" horiz-adv-x="709" 
d="M162 264q0 -91 53 -146.5t134 -55.5q80 0 134 56t54 146v436h80v-700h-80v107q-30 -52 -82.5 -84.5t-118.5 -32.5q-109 0 -181.5 74.5t-72.5 193.5v442h80v-436zM274 785h-71l109 130h78l109 -130h-71l-77 84z" />
    <glyph glyph-name="Udieresis" unicode="&#xdc;" horiz-adv-x="709" 
d="M162 264q0 -91 53 -146.5t134 -55.5q80 0 134 56t54 146v436h80v-700h-80v107q-30 -52 -82.5 -84.5t-118.5 -32.5q-109 0 -181.5 74.5t-72.5 193.5v442h80v-436zM263 798q-20 0 -35 15t-15 36t15 35.5t35 14.5t35 -14.5t15 -35.5t-15 -36t-35 -15zM437 798q-20 0 -35 15
t-15 36t15 35.5t35 14.5t35 -14.5t15 -35.5t-15 -36t-35 -15z" />
    <glyph glyph-name="Yacute" unicode="&#xdd;" horiz-adv-x="618" 
d="M349 0h-80v292l-268 408h94l216 -333l214 333h92l-268 -411v-289zM362 915h92l-129 -130h-77z" />
    <glyph glyph-name="Thorn" unicode="&#xde;" horiz-adv-x="591" 
d="M172 700v-145h168q90 0 151 -59.5t61 -146.5q0 -86 -61 -145t-151 -59h-168v-145h-80v700h80zM336 485h-164v-272h164q59 0 97 39t38 96q0 58 -38 97.5t-97 39.5z" />
    <glyph glyph-name="germandbls" unicode="&#xdf;" horiz-adv-x="661" 
d="M384 392q-37 -24 -37 -48q0 -19 15.5 -29.5t47.5 -19.5l76 -24q127 -39 127 -136q0 -64 -46 -104.5t-122 -40.5q-79 0 -130 41.5t-62 106.5h74q8 -39 39 -62.5t78 -23.5q44 0 69.5 21.5t25.5 55.5q0 53 -74 75l-71 21q-60 18 -90 44.5t-30 67.5q0 36 16 59t54 47l60 38
q52 34 52 79q0 46 -38.5 76.5t-97.5 30.5q-69 0 -112 -45t-43 -118v-504h-77v504q0 106 64.5 168.5t167.5 62.5q92 0 152 -48.5t60 -122.5q0 -45 -19 -74.5t-62 -56.5z" />
    <glyph glyph-name="agrave" unicode="&#xe0;" horiz-adv-x="544" 
d="M42 145q0 70 43.5 109t119.5 44l167 9v49q0 52 -29 81t-82 29q-80 0 -141 -58l-40 55q83 72 189 72q82 0 130.5 -46t48.5 -123v-267q0 -31 34 -31h26v-68h-43q-39 0 -63.5 21t-27.5 57q-24 -40 -65 -63.5t-92 -23.5q-76 0 -125.5 43.5t-49.5 110.5zM117 148
q0 -41 31 -67.5t80 -26.5q60 0 102 37.5t42 89.5v63l-158 -8q-46 -2 -71.5 -25t-25.5 -63zM206 741l114 -130h-78l-128 130h92z" />
    <glyph glyph-name="aacute" unicode="&#xe1;" horiz-adv-x="544" 
d="M42 145q0 70 43.5 109t119.5 44l167 9v49q0 52 -29 81t-82 29q-80 0 -141 -58l-40 55q83 72 189 72q82 0 130.5 -46t48.5 -123v-267q0 -31 34 -31h26v-68h-43q-39 0 -63.5 21t-27.5 57q-24 -40 -65 -63.5t-92 -23.5q-76 0 -125.5 43.5t-49.5 110.5zM117 148
q0 -41 31 -67.5t80 -26.5q60 0 102 37.5t42 89.5v63l-158 -8q-46 -2 -71.5 -25t-25.5 -63zM314 741h92l-129 -130h-77z" />
    <glyph glyph-name="acircumflex" unicode="&#xe2;" horiz-adv-x="544" 
d="M42 145q0 70 43.5 109t119.5 44l167 9v49q0 52 -29 81t-82 29q-80 0 -141 -58l-40 55q83 72 189 72q82 0 130.5 -46t48.5 -123v-267q0 -31 34 -31h26v-68h-43q-39 0 -63.5 21t-27.5 57q-24 -40 -65 -63.5t-92 -23.5q-76 0 -125.5 43.5t-49.5 110.5zM117 148
q0 -41 31 -67.5t80 -26.5q60 0 102 37.5t42 89.5v63l-158 -8q-46 -2 -71.5 -25t-25.5 -63zM185 611h-71l109 130h78l109 -130h-71l-77 84z" />
    <glyph glyph-name="atilde" unicode="&#xe3;" horiz-adv-x="544" 
d="M42 145q0 70 43.5 109t119.5 44l167 9v49q0 52 -29 81t-82 29q-80 0 -141 -58l-40 55q83 72 189 72q82 0 130.5 -46t48.5 -123v-267q0 -31 34 -31h26v-68h-43q-39 0 -63.5 21t-27.5 57q-24 -40 -65 -63.5t-92 -23.5q-76 0 -125.5 43.5t-49.5 110.5zM117 148
q0 -41 31 -67.5t80 -26.5q60 0 102 37.5t42 89.5v63l-158 -8q-46 -2 -71.5 -25t-25.5 -63zM200 732q24 0 65 -30.5t53 -30.5q14 0 23.5 13.5t20.5 49.5l51 -12q-27 -105 -91 -105q-24 0 -65.5 30t-52.5 30q-14 0 -23.5 -13.5t-21.5 -49.5l-51 12q29 106 92 106z" />
    <glyph glyph-name="adieresis" unicode="&#xe4;" horiz-adv-x="544" 
d="M42 145q0 70 43.5 109t119.5 44l167 9v49q0 52 -29 81t-82 29q-80 0 -141 -58l-40 55q83 72 189 72q82 0 130.5 -46t48.5 -123v-267q0 -31 34 -31h26v-68h-43q-39 0 -63.5 21t-27.5 57q-24 -40 -65 -63.5t-92 -23.5q-76 0 -125.5 43.5t-49.5 110.5zM117 148
q0 -41 31 -67.5t80 -26.5q60 0 102 37.5t42 89.5v63l-158 -8q-46 -2 -71.5 -25t-25.5 -63zM174 624q-20 0 -35 15t-15 36t15 35.5t35 14.5t35 -14.5t15 -35.5t-15 -36t-35 -15zM348 624q-20 0 -35 15t-15 36t15 35.5t35 14.5t35 -14.5t15 -35.5t-15 -36t-35 -15z" />
    <glyph glyph-name="aring" unicode="&#xe5;" horiz-adv-x="544" 
d="M42 145q0 70 43.5 109t119.5 44l167 9v49q0 52 -29 81t-82 29q-80 0 -141 -58l-40 55q83 72 189 72q82 0 130.5 -46t48.5 -123v-267q0 -31 34 -31h26v-68h-43q-39 0 -63.5 21t-27.5 57q-24 -40 -65 -63.5t-92 -23.5q-76 0 -125.5 43.5t-49.5 110.5zM117 148
q0 -41 31 -67.5t80 -26.5q60 0 102 37.5t42 89.5v63l-158 -8q-46 -2 -71.5 -25t-25.5 -63zM261 594q-43 0 -74 30t-31 72t31 72t74 30t74 -30t31 -72t-31 -72t-74 -30zM261 635q26 0 44 17.5t18 43.5t-18 43.5t-44 17.5t-44 -17.5t-18 -43.5t18 -43.5t44 -17.5z" />
    <glyph glyph-name="ae" unicode="&#xe6;" horiz-adv-x="864" 
d="M798 84q-74 -94 -195 -94q-63 0 -113.5 31.5t-77.5 86.5q-23 -53 -73.5 -85.5t-116.5 -32.5q-78 0 -129 44t-51 112q0 69 43.5 107.5t119.5 42.5l169 9v52q0 52 -29.5 81t-83.5 29q-80 0 -141 -58l-40 55q83 72 189 72q117 0 158 -90q61 90 171 90q91 0 151 -65t60 -166
v-63h-358v-15q0 -76 43 -123t110 -47q84 0 141 72zM597 469q-63 0 -104.5 -46t-41.5 -118h282v1q0 72 -38 117.5t-98 45.5zM117 148q0 -41 31.5 -67t80.5 -26q60 0 102.5 37t42.5 88v62l-160 -8q-46 -2 -71.5 -24.5t-25.5 -61.5z" />
    <glyph glyph-name="ccedilla" unicode="&#xe7;" horiz-adv-x="540" 
d="M381 -138q0 -38 -30 -64t-74 -26q-71 0 -105 47l37 31q27 -33 66 -33q24 0 38.5 13t14.5 33t-16.5 32.5t-43.5 12.5h-33l25 83q-89 8 -144.5 71.5t-55.5 162.5v76q0 105 62.5 170t159.5 65q82 0 139.5 -47.5t74.5 -129.5h-77q-14 51 -50 80t-87 29q-66 0 -106 -47.5
t-40 -124.5v-65q0 -78 40 -125.5t106 -47.5q51 0 87 29t50 80h77q-16 -75 -66.5 -121.5t-122.5 -54.5l-14 -46q40 -3 64 -25.5t24 -57.5z" />
    <glyph glyph-name="egrave" unicode="&#xe8;" horiz-adv-x="547" 
d="M60 226v75q0 103 63 169t160 66q90 0 149.5 -65t59.5 -166v-65h-356v-13q0 -75 42.5 -122t109.5 -47q85 0 140 72l54 -45q-75 -94 -196 -94q-98 0 -162 66t-64 169zM281 469q-63 0 -104 -46.5t-41 -119.5h281v4q0 71 -38.5 116.5t-97.5 45.5zM228 742l114 -130h-78
l-128 130h92z" />
    <glyph glyph-name="eacute" unicode="&#xe9;" horiz-adv-x="547" 
d="M60 226v75q0 103 63 169t160 66q90 0 149.5 -65t59.5 -166v-65h-356v-13q0 -75 42.5 -122t109.5 -47q85 0 140 72l54 -45q-75 -94 -196 -94q-98 0 -162 66t-64 169zM281 469q-63 0 -104 -46.5t-41 -119.5h281v4q0 71 -38.5 116.5t-97.5 45.5zM336 742h92l-129 -130h-77z
" />
    <glyph glyph-name="ecircumflex" unicode="&#xea;" horiz-adv-x="547" 
d="M60 226v75q0 103 63 169t160 66q90 0 149.5 -65t59.5 -166v-65h-356v-13q0 -75 42.5 -122t109.5 -47q85 0 140 72l54 -45q-75 -94 -196 -94q-98 0 -162 66t-64 169zM281 469q-63 0 -104 -46.5t-41 -119.5h281v4q0 71 -38.5 116.5t-97.5 45.5zM207 612h-71l109 130h78
l109 -130h-71l-77 84z" />
    <glyph glyph-name="edieresis" unicode="&#xeb;" horiz-adv-x="547" 
d="M60 226v75q0 103 63 169t160 66q90 0 149.5 -65t59.5 -166v-65h-356v-13q0 -75 42.5 -122t109.5 -47q85 0 140 72l54 -45q-75 -94 -196 -94q-98 0 -162 66t-64 169zM281 469q-63 0 -104 -46.5t-41 -119.5h281v4q0 71 -38.5 116.5t-97.5 45.5zM196 625q-20 0 -35 15
t-15 36t15 35.5t35 14.5t35 -14.5t15 -35.5t-15 -36t-35 -15zM370 625q-20 0 -35 15t-15 36t15 35.5t35 14.5t35 -14.5t15 -35.5t-15 -36t-35 -15z" />
    <glyph glyph-name="igrave" unicode="&#xec;" horiz-adv-x="253" 
d="M165 527v-527h-77v527h77zM71 741l114 -130h-78l-128 130h92z" />
    <glyph glyph-name="iacute" unicode="&#xed;" horiz-adv-x="253" 
d="M165 527v-527h-77v527h77zM179 741h92l-129 -130h-77z" />
    <glyph glyph-name="icircumflex" unicode="&#xee;" horiz-adv-x="253" 
d="M165 527v-527h-77v527h77zM50 612h-71l109 130h78l109 -130h-71l-77 84z" />
    <glyph glyph-name="idieresis" unicode="&#xef;" horiz-adv-x="253" 
d="M165 527v-527h-77v527h77zM39 624q-20 0 -35 15t-15 36t15 35.5t35 14.5t35 -14.5t15 -35.5t-15 -36t-35 -15zM213 624q-20 0 -35 15t-15 36t15 35.5t35 14.5t35 -14.5t15 -35.5t-15 -36t-35 -15z" />
    <glyph glyph-name="eth" unicode="&#xf0;" horiz-adv-x="575" 
d="M60 224v67q0 102 60.5 166t153.5 64q102 0 156 -81q-26 111 -99 185l-94 -59l-31 47l81 51q-44 33 -96 51l29 58q73 -27 127 -71l109 68l30 -47l-96 -61q125 -133 125 -355v-80q0 -107 -64 -172t-164 -65q-99 0 -163 65t-64 169zM439 229v57q0 77 -41.5 124t-110.5 47
q-68 0 -109.5 -47t-41.5 -124v-57q0 -77 41.5 -124t109.5 -47q69 0 110.5 47t41.5 124z" />
    <glyph glyph-name="ntilde" unicode="&#xf1;" 
d="M517 344v-344h-77v329q0 60 -36.5 99t-95.5 39q-63 0 -103 -41t-40 -103v-323h-77v527h77v-99q21 50 66 79.5t101 29.5q82 0 133.5 -55.5t51.5 -137.5zM242 733q24 0 65 -30.5t53 -30.5q14 0 23.5 13.5t20.5 49.5l51 -12q-27 -105 -91 -105q-24 0 -65.5 30t-52.5 30
q-14 0 -23.5 -13.5t-21.5 -49.5l-51 12q29 106 92 106z" />
    <glyph glyph-name="ograve" unicode="&#xf2;" horiz-adv-x="574" 
d="M514 225q0 -105 -64 -170t-163 -65t-163 65t-64 170v76q0 106 63.5 170.5t163.5 64.5q99 0 163 -65t64 -170v-76zM438 296q0 77 -41.5 124.5t-109.5 47.5q-69 0 -110 -47t-41 -125v-65q0 -78 41 -125.5t110 -47.5q68 0 109.5 47.5t41.5 125.5v65zM232 742l114 -130h-78
l-128 130h92z" />
    <glyph glyph-name="oacute" unicode="&#xf3;" horiz-adv-x="574" 
d="M514 225q0 -105 -64 -170t-163 -65t-163 65t-64 170v76q0 106 63.5 170.5t163.5 64.5q99 0 163 -65t64 -170v-76zM438 296q0 77 -41.5 124.5t-109.5 47.5q-69 0 -110 -47t-41 -125v-65q0 -78 41 -125.5t110 -47.5q68 0 109.5 47.5t41.5 125.5v65zM340 742h92l-129 -130
h-77z" />
    <glyph glyph-name="ocircumflex" unicode="&#xf4;" horiz-adv-x="574" 
d="M514 225q0 -105 -64 -170t-163 -65t-163 65t-64 170v76q0 106 63.5 170.5t163.5 64.5q99 0 163 -65t64 -170v-76zM438 296q0 77 -41.5 124.5t-109.5 47.5q-69 0 -110 -47t-41 -125v-65q0 -78 41 -125.5t110 -47.5q68 0 109.5 47.5t41.5 125.5v65zM211 612h-71l109 130h78
l109 -130h-71l-77 84z" />
    <glyph glyph-name="otilde" unicode="&#xf5;" horiz-adv-x="574" 
d="M514 225q0 -105 -64 -170t-163 -65t-163 65t-64 170v76q0 106 63.5 170.5t163.5 64.5q99 0 163 -65t64 -170v-76zM438 296q0 77 -41.5 124.5t-109.5 47.5q-69 0 -110 -47t-41 -125v-65q0 -78 41 -125.5t110 -47.5q68 0 109.5 47.5t41.5 125.5v65zM226 733
q23 0 64.5 -30.5t53.5 -30.5q14 0 23.5 13.5t20.5 49.5l51 -12q-27 -105 -91 -105q-24 0 -65.5 30t-52.5 30q-14 0 -23.5 -13.5t-21.5 -49.5l-51 12q29 106 92 106z" />
    <glyph glyph-name="odieresis" unicode="&#xf6;" horiz-adv-x="574" 
d="M514 225q0 -105 -64 -170t-163 -65t-163 65t-64 170v76q0 106 63.5 170.5t163.5 64.5q99 0 163 -65t64 -170v-76zM438 296q0 77 -41.5 124.5t-109.5 47.5q-69 0 -110 -47t-41 -125v-65q0 -78 41 -125.5t110 -47.5q68 0 109.5 47.5t41.5 125.5v65zM200 625q-20 0 -35 15
t-15 36t15 35.5t35 14.5t35 -14.5t15 -35.5t-15 -36t-35 -15zM374 625q-20 0 -35 15t-15 36t15 35.5t35 14.5t35 -14.5t15 -35.5t-15 -36t-35 -15z" />
    <glyph glyph-name="divide" unicode="&#xf7;" horiz-adv-x="549" 
d="M274 593q21 0 36 -15t15 -37q0 -21 -15 -36t-36 -15t-36 15t-15 36q0 22 15 37t36 15zM483 329h-417v62h417v-62zM274 224q21 0 36 -15t15 -37q0 -21 -15 -36t-36 -15t-36 15t-15 36q0 22 15 37t36 15z" />
    <glyph glyph-name="oslash" unicode="&#xf8;" horiz-adv-x="579" 
d="M45 0l62 77q-45 61 -45 148v76q0 106 63.5 170.5t163.5 64.5q86 0 147 -50l33 41h68l-65 -80q44 -61 44 -146v-76q0 -105 -64 -170t-163 -65q-85 0 -145 49l-31 -39h-68zM138 231q0 -51 19 -92l233 290q-39 39 -101 39q-69 0 -110 -47t-41 -125v-65zM440 296q0 50 -18 88
l-233 -289q40 -37 100 -37q68 0 109.5 47.5t41.5 125.5v65z" />
    <glyph glyph-name="ugrave" unicode="&#xf9;" 
d="M88 182v345h77v-330q0 -59 36.5 -98t95.5 -39q63 0 103 40.5t40 103.5v323h77v-527h-77v99q-21 -51 -65.5 -80t-100.5 -29q-83 0 -134.5 55t-51.5 137zM248 741l114 -130h-78l-128 130h92z" />
    <glyph glyph-name="uacute" unicode="&#xfa;" 
d="M88 182v345h77v-330q0 -59 36.5 -98t95.5 -39q63 0 103 40.5t40 103.5v323h77v-527h-77v99q-21 -51 -65.5 -80t-100.5 -29q-83 0 -134.5 55t-51.5 137zM356 741h92l-129 -130h-77z" />
    <glyph glyph-name="ucircumflex" unicode="&#xfb;" 
d="M88 182v345h77v-330q0 -59 36.5 -98t95.5 -39q63 0 103 40.5t40 103.5v323h77v-527h-77v99q-21 -51 -65.5 -80t-100.5 -29q-83 0 -134.5 55t-51.5 137zM227 612h-71l109 130h78l109 -130h-71l-77 84z" />
    <glyph glyph-name="udieresis" unicode="&#xfc;" 
d="M88 182v345h77v-330q0 -59 36.5 -98t95.5 -39q63 0 103 40.5t40 103.5v323h77v-527h-77v99q-21 -51 -65.5 -80t-100.5 -29q-83 0 -134.5 55t-51.5 137zM216 624q-20 0 -35 15t-15 36t15 35.5t35 14.5t35 -14.5t15 -35.5t-15 -36t-35 -15zM390 624q-20 0 -35 15t-15 36
t15 35.5t35 14.5t35 -14.5t15 -35.5t-15 -36t-35 -15z" />
    <glyph glyph-name="yacute" unicode="&#xfd;" horiz-adv-x="506" 
d="M178 -92l39 99l-212 520h81l171 -421l164 421h80l-255 -641q-19 -51 -49.5 -76t-79.5 -25h-68v67h56q51 0 73 56zM308 742h92l-129 -130h-77z" />
    <glyph glyph-name="thorn" unicode="&#xfe;" 
d="M88 733h77v-296q26 47 70.5 73t100.5 26q92 0 150.5 -64.5t58.5 -168.5v-79q0 -104 -59 -169t-150 -65q-57 0 -101.5 27t-69.5 76v-308h-77v948zM165 296v-65q0 -78 41.5 -125.5t110.5 -47.5t110.5 47.5t41.5 125.5v65q0 78 -41.5 125t-110.5 47t-110.5 -47t-41.5 -125z
" />
    <glyph glyph-name="ydieresis" unicode="&#xff;" horiz-adv-x="506" 
d="M178 -92l39 99l-212 520h81l171 -421l164 421h80l-255 -641q-19 -51 -49.5 -76t-79.5 -25h-68v67h56q51 0 73 56zM168 625q-20 0 -35 15t-15 36t15 35.5t35 14.5t35 -14.5t15 -35.5t-15 -36t-35 -15zM342 625q-20 0 -35 15t-15 36t15 35.5t35 14.5t35 -14.5t15 -35.5
t-15 -36t-35 -15z" />
    <glyph glyph-name="Amacron" unicode="&#x100;" horiz-adv-x="656" 
d="M373 700l277 -700h-87l-75 195h-323l-75 -195h-84l277 700h90zM192 266h269l-134 349zM453 868v-55h-248v55h248z" />
    <glyph glyph-name="amacron" unicode="&#x101;" horiz-adv-x="544" 
d="M42 145q0 70 43.5 109t119.5 44l167 9v49q0 52 -29 81t-82 29q-80 0 -141 -58l-40 55q83 72 189 72q82 0 130.5 -46t48.5 -123v-267q0 -31 34 -31h26v-68h-43q-39 0 -63.5 21t-27.5 57q-24 -40 -65 -63.5t-92 -23.5q-76 0 -125.5 43.5t-49.5 110.5zM117 148
q0 -41 31 -67.5t80 -26.5q60 0 102 37.5t42 89.5v63l-158 -8q-46 -2 -71.5 -25t-25.5 -63zM385 694v-55h-248v55h248z" />
    <glyph glyph-name="Abreve" unicode="&#x102;" horiz-adv-x="656" 
d="M373 700l277 -700h-87l-75 195h-323l-75 -195h-84l277 700h90zM192 266h269l-134 349zM329 841q68 0 88 75l55 -17q-13 -53 -52.5 -83t-90.5 -30t-90.5 30t-52.5 83l55 17q21 -75 88 -75z" />
    <glyph glyph-name="abreve" unicode="&#x103;" horiz-adv-x="544" 
d="M42 145q0 70 43.5 109t119.5 44l167 9v49q0 52 -29 81t-82 29q-80 0 -141 -58l-40 55q83 72 189 72q82 0 130.5 -46t48.5 -123v-267q0 -31 34 -31h26v-68h-43q-39 0 -63.5 21t-27.5 57q-24 -40 -65 -63.5t-92 -23.5q-76 0 -125.5 43.5t-49.5 110.5zM117 148
q0 -41 31 -67.5t80 -26.5q60 0 102 37.5t42 89.5v63l-158 -8q-46 -2 -71.5 -25t-25.5 -63zM261 667q68 0 88 75l55 -17q-13 -53 -52.5 -83t-90.5 -30t-90.5 30t-52.5 83l55 17q21 -75 88 -75z" />
    <glyph glyph-name="Aogonek" unicode="&#x104;" horiz-adv-x="656" 
d="M650 0q-80 -67 -80 -124q0 -49 50 -49q22 0 36 5l8 -45q-24 -8 -52 -8q-46 0 -71 23.5t-25 61.5q0 67 77 136h-30l-75 195h-323l-75 -195h-84l277 700h90zM192 266h269l-134 349z" />
    <glyph glyph-name="aogonek" unicode="&#x105;" horiz-adv-x="544" 
d="M42 145q0 70 43.5 109t119.5 44l167 9v49q0 52 -29 81t-82 29q-80 0 -141 -58l-40 55q83 72 189 72q82 0 130.5 -46t48.5 -123v-267q0 -31 34 -31h26v-68q-80 -67 -80 -124q0 -49 50 -49q22 0 36 5l8 -45q-24 -8 -52 -8q-46 0 -71 23.5t-25 61.5q0 68 78 137
q-34 4 -54.5 24t-23.5 53q-24 -40 -65 -63.5t-92 -23.5q-76 0 -125.5 43.5t-49.5 110.5zM117 148q0 -41 31 -67.5t80 -26.5q60 0 102 37.5t42 89.5v63l-158 -8q-46 -2 -71.5 -25t-25.5 -63z" />
    <glyph glyph-name="Cacute" unicode="&#x106;" horiz-adv-x="695" 
d="M647 463h-78q-17 83 -73 129t-134 46q-95 0 -156.5 -66.5t-61.5 -183.5v-76q0 -117 61.5 -183.5t156.5 -66.5q78 0 134 46t73 129h78q-19 -115 -97.5 -181.5t-187.5 -66.5q-130 0 -214 87.5t-84 233.5v80q0 146 84 233.5t214 87.5q110 0 188 -66.5t97 -181.5zM419 915h92
l-129 -130h-77z" />
    <glyph glyph-name="cacute" unicode="&#x107;" horiz-adv-x="541" 
d="M282 -10q-97 0 -159.5 65t-62.5 170v76q0 105 62.5 170t159.5 65q82 0 139.5 -47.5t74.5 -129.5h-77q-14 51 -50 80t-87 29q-66 0 -106 -47.5t-40 -124.5v-65q0 -78 40 -125.5t106 -47.5q51 0 87 29t50 80h77q-17 -81 -75 -129t-139 -48zM335 742h92l-129 -130h-77z" />
    <glyph glyph-name="Ccircumflex" unicode="&#x108;" horiz-adv-x="695" 
d="M647 463h-78q-17 83 -73 129t-134 46q-95 0 -156.5 -66.5t-61.5 -183.5v-76q0 -117 61.5 -183.5t156.5 -66.5q78 0 134 46t73 129h78q-19 -115 -97.5 -181.5t-187.5 -66.5q-130 0 -214 87.5t-84 233.5v80q0 146 84 233.5t214 87.5q110 0 188 -66.5t97 -181.5zM290 785
h-71l109 130h78l109 -130h-71l-77 84z" />
    <glyph glyph-name="ccircumflex" unicode="&#x109;" horiz-adv-x="541" 
d="M282 -10q-97 0 -159.5 65t-62.5 170v76q0 105 62.5 170t159.5 65q82 0 139.5 -47.5t74.5 -129.5h-77q-14 51 -50 80t-87 29q-66 0 -106 -47.5t-40 -124.5v-65q0 -78 40 -125.5t106 -47.5q51 0 87 29t50 80h77q-17 -81 -75 -129t-139 -48zM206 612h-71l109 130h78
l109 -130h-71l-77 84z" />
    <glyph glyph-name="Cdotaccent" unicode="&#x10a;" horiz-adv-x="695" 
d="M647 463h-78q-17 83 -73 129t-134 46q-95 0 -156.5 -66.5t-61.5 -183.5v-76q0 -117 61.5 -183.5t156.5 -66.5q78 0 134 46t73 129h78q-19 -115 -97.5 -181.5t-187.5 -66.5q-130 0 -214 87.5t-84 233.5v80q0 146 84 233.5t214 87.5q110 0 188 -66.5t97 -181.5zM366 798
q-20 0 -35 15t-15 36t15 35.5t35 14.5t34.5 -14.5t14.5 -35.5t-14.5 -36t-34.5 -15z" />
    <glyph glyph-name="cdotaccent" unicode="&#x10b;" horiz-adv-x="541" 
d="M282 -10q-97 0 -159.5 65t-62.5 170v76q0 105 62.5 170t159.5 65q82 0 139.5 -47.5t74.5 -129.5h-77q-14 51 -50 80t-87 29q-66 0 -106 -47.5t-40 -124.5v-65q0 -78 40 -125.5t106 -47.5q51 0 87 29t50 80h77q-17 -81 -75 -129t-139 -48zM282 625q-20 0 -35 15t-15 36
t15 35.5t35 14.5t34.5 -14.5t14.5 -35.5t-14.5 -36t-34.5 -15z" />
    <glyph glyph-name="Ccaron" unicode="&#x10c;" horiz-adv-x="695" 
d="M647 463h-78q-17 83 -73 129t-134 46q-95 0 -156.5 -66.5t-61.5 -183.5v-76q0 -117 61.5 -183.5t156.5 -66.5q78 0 134 46t73 129h78q-19 -115 -97.5 -181.5t-187.5 -66.5q-130 0 -214 87.5t-84 233.5v80q0 146 84 233.5t214 87.5q110 0 188 -66.5t97 -181.5zM445 915h70
l-109 -130h-78l-109 130h71l77 -85z" />
    <glyph glyph-name="ccaron" unicode="&#x10d;" horiz-adv-x="541" 
d="M282 -10q-97 0 -159.5 65t-62.5 170v76q0 105 62.5 170t159.5 65q82 0 139.5 -47.5t74.5 -129.5h-77q-14 51 -50 80t-87 29q-66 0 -106 -47.5t-40 -124.5v-65q0 -78 40 -125.5t106 -47.5q51 0 87 29t50 80h77q-17 -81 -75 -129t-139 -48zM361 742h70l-109 -130h-78
l-109 130h71l77 -85z" />
    <glyph glyph-name="Dcaron" unicode="&#x10e;" horiz-adv-x="715" 
d="M648 310q0 -143 -81.5 -226.5t-224.5 -83.5h-250v700h250q143 0 224.5 -84t81.5 -227v-79zM337 629h-165v-558h165q110 0 170.5 63t60.5 178v75q0 114 -60.5 178t-170.5 64zM436 915h70l-109 -130h-78l-109 130h71l77 -85z" />
    <glyph glyph-name="dcaron" unicode="&#x10f;" horiz-adv-x="701" 
d="M614 529l19 205h79l-38 -205h-60zM518 0h-77v94q-26 -49 -70.5 -76.5t-101.5 -27.5q-91 0 -150 65t-59 169v79q0 104 58.5 168.5t150.5 64.5q117 0 172 -101v298h77v-733zM441 296q0 78 -41.5 125t-111.5 47q-69 0 -110.5 -47.5t-41.5 -124.5v-65q0 -78 41.5 -125.5
t110.5 -47.5q70 0 111.5 47.5t41.5 125.5v65z" />
    <glyph glyph-name="Dcroat" unicode="&#x110;" horiz-adv-x="719" 
d="M3 316v69h96v315h250q143 0 224.5 -84t81.5 -227v-79q0 -143 -81.5 -226.5t-224.5 -83.5h-250v316h-96zM344 629h-165v-244h151v-69h-151v-245h165q110 0 170.5 63t60.5 178v75q0 114 -60.5 178t-170.5 64z" />
    <glyph glyph-name="dcroat" unicode="&#x111;" horiz-adv-x="604" 
d="M518 0h-77v94q-26 -49 -70.5 -76.5t-101.5 -27.5q-91 0 -150 65t-59 169v79q0 104 58.5 168.5t150.5 64.5q117 0 172 -101v163h-149v59h149v76h77v-76h70v-59h-70v-598zM441 296q0 78 -41.5 125t-111.5 47q-69 0 -110.5 -47.5t-41.5 -124.5v-65q0 -78 41.5 -125.5
t110.5 -47.5q70 0 111.5 47.5t41.5 125.5v65z" />
    <glyph glyph-name="Emacron" unicode="&#x112;" horiz-adv-x="593" 
d="M92 0v700h443v-71h-363v-243h353v-70h-353v-245h363v-71h-443zM446 868v-55h-248v55h248z" />
    <glyph glyph-name="emacron" unicode="&#x113;" horiz-adv-x="547" 
d="M60 226v75q0 103 63 169t160 66q90 0 149.5 -65t59.5 -166v-65h-356v-13q0 -75 42.5 -122t109.5 -47q85 0 140 72l54 -45q-75 -94 -196 -94q-98 0 -162 66t-64 169zM281 469q-63 0 -104 -46.5t-41 -119.5h281v4q0 71 -38.5 116.5t-97.5 45.5zM407 695v-55h-248v55h248z
" />
    <glyph glyph-name="Ebreve" unicode="&#x114;" horiz-adv-x="593" 
d="M92 0v700h443v-71h-363v-243h353v-70h-353v-245h363v-71h-443zM322 841q68 0 88 75l55 -17q-13 -53 -52.5 -83t-90.5 -30t-90.5 30t-52.5 83l55 17q21 -75 88 -75z" />
    <glyph glyph-name="ebreve" unicode="&#x115;" horiz-adv-x="547" 
d="M60 226v75q0 103 63 169t160 66q90 0 149.5 -65t59.5 -166v-65h-356v-13q0 -75 42.5 -122t109.5 -47q85 0 140 72l54 -45q-75 -94 -196 -94q-98 0 -162 66t-64 169zM281 469q-63 0 -104 -46.5t-41 -119.5h281v4q0 71 -38.5 116.5t-97.5 45.5zM283 668q68 0 88 75l55 -17
q-13 -53 -52.5 -83t-90.5 -30t-90.5 30t-52.5 83l55 17q21 -75 88 -75z" />
    <glyph glyph-name="Edotaccent" unicode="&#x116;" horiz-adv-x="593" 
d="M92 0v700h443v-71h-363v-243h353v-70h-353v-245h363v-71h-443zM322 798q-20 0 -35 15t-15 36t15 35.5t35 14.5t34.5 -14.5t14.5 -35.5t-14.5 -36t-34.5 -15z" />
    <glyph glyph-name="edotaccent" unicode="&#x117;" horiz-adv-x="547" 
d="M60 226v75q0 103 63 169t160 66q90 0 149.5 -65t59.5 -166v-65h-356v-13q0 -75 42.5 -122t109.5 -47q85 0 140 72l54 -45q-75 -94 -196 -94q-98 0 -162 66t-64 169zM281 469q-63 0 -104 -46.5t-41 -119.5h281v4q0 71 -38.5 116.5t-97.5 45.5zM283 625q-20 0 -35 15
t-15 36t15 35.5t35 14.5t34.5 -14.5t14.5 -35.5t-14.5 -36t-34.5 -15z" />
    <glyph glyph-name="Eogonek" unicode="&#x118;" horiz-adv-x="593" 
d="M92 0v700h443v-71h-363v-243h353v-70h-353v-245h363v-71q-80 -67 -80 -124q0 -49 50 -49q22 0 36 5l8 -45q-24 -8 -52 -8q-46 0 -71 23.5t-25 61.5q0 67 77 136h-386z" />
    <glyph glyph-name="eogonek" unicode="&#x119;" horiz-adv-x="547" 
d="M60 226v75q0 103 63 169t160 66q90 0 149.5 -65t59.5 -166v-65h-356v-13q0 -75 42.5 -122t109.5 -47q85 0 140 72l54 -45q-52 -66 -125 -85q-80 -67 -80 -124q0 -49 50 -49q22 0 36 5l8 -45q-24 -8 -52 -8q-46 0 -71 23.5t-25 61.5q0 64 67 127h-4q-98 0 -162 66t-64 169
zM281 469q-63 0 -104 -46.5t-41 -119.5h281v4q0 71 -38.5 116.5t-97.5 45.5z" />
    <glyph glyph-name="Ecaron" unicode="&#x11a;" horiz-adv-x="593" 
d="M92 0v700h443v-71h-363v-243h353v-70h-353v-245h363v-71h-443zM401 915h70l-109 -130h-78l-109 130h71l77 -85z" />
    <glyph glyph-name="ecaron" unicode="&#x11b;" horiz-adv-x="547" 
d="M60 226v75q0 103 63 169t160 66q90 0 149.5 -65t59.5 -166v-65h-356v-13q0 -75 42.5 -122t109.5 -47q85 0 140 72l54 -45q-75 -94 -196 -94q-98 0 -162 66t-64 169zM281 469q-63 0 -104 -46.5t-41 -119.5h281v4q0 71 -38.5 116.5t-97.5 45.5zM362 742h70l-109 -130h-78
l-109 130h71l77 -85z" />
    <glyph glyph-name="Gcircumflex" unicode="&#x11c;" horiz-adv-x="734" 
d="M64 312v78q0 143 83 232t217 89q99 0 173 -50t108 -137l-71 -30q-26 67 -82 105.5t-126 38.5q-101 0 -161.5 -68t-60.5 -182v-76q0 -115 61 -183t161 -68q89 0 149 54.5t60 143.5v33h-208v70h283v-362h-75v119q-32 -60 -90.5 -94.5t-127.5 -34.5q-131 0 -212 89t-81 233z
M292 785h-71l109 130h78l109 -130h-71l-77 84z" />
    <glyph glyph-name="gcircumflex" unicode="&#x11d;" horiz-adv-x="606" 
d="M196 -215v67h122q120 0 120 120v121q-54 -100 -170 -100q-91 0 -149.5 65t-58.5 168v76q0 104 58.5 169t149.5 65q56 0 100 -26.5t70 -73.5v91h77v-563q0 -83 -48 -131t-132 -48h-139zM438 296q0 78 -41 125t-109 47t-110 -47t-42 -125v-65q0 -78 41.5 -124t110.5 -46
t109.5 46t40.5 124v65zM216 612h-71l109 130h78l109 -130h-71l-77 84z" />
    <glyph glyph-name="Gbreve" unicode="&#x11e;" horiz-adv-x="734" 
d="M64 312v78q0 143 83 232t217 89q99 0 173 -50t108 -137l-71 -30q-26 67 -82 105.5t-126 38.5q-101 0 -161.5 -68t-60.5 -182v-76q0 -115 61 -183t161 -68q89 0 149 54.5t60 143.5v33h-208v70h283v-362h-75v119q-32 -60 -90.5 -94.5t-127.5 -34.5q-131 0 -212 89t-81 233z
M368 841q68 0 88 75l55 -17q-13 -53 -52.5 -83t-90.5 -30t-90.5 30t-52.5 83l55 17q21 -75 88 -75z" />
    <glyph glyph-name="gbreve" unicode="&#x11f;" horiz-adv-x="606" 
d="M196 -215v67h122q120 0 120 120v121q-54 -100 -170 -100q-91 0 -149.5 65t-58.5 168v76q0 104 58.5 169t149.5 65q56 0 100 -26.5t70 -73.5v91h77v-563q0 -83 -48 -131t-132 -48h-139zM438 296q0 78 -41 125t-109 47t-110 -47t-42 -125v-65q0 -78 41.5 -124t110.5 -46
t109.5 46t40.5 124v65zM292 668q68 0 88 75l55 -17q-13 -53 -52.5 -83t-90.5 -30t-90.5 30t-52.5 83l55 17q21 -75 88 -75z" />
    <glyph glyph-name="Gdotaccent" unicode="&#x120;" horiz-adv-x="734" 
d="M64 312v78q0 143 83 232t217 89q99 0 173 -50t108 -137l-71 -30q-26 67 -82 105.5t-126 38.5q-101 0 -161.5 -68t-60.5 -182v-76q0 -115 61 -183t161 -68q89 0 149 54.5t60 143.5v33h-208v70h283v-362h-75v119q-32 -60 -90.5 -94.5t-127.5 -34.5q-131 0 -212 89t-81 233z
M368 798q-20 0 -35 15t-15 36t15 35.5t35 14.5t34.5 -14.5t14.5 -35.5t-14.5 -36t-34.5 -15z" />
    <glyph glyph-name="gdotaccent" unicode="&#x121;" horiz-adv-x="606" 
d="M196 -215v67h122q120 0 120 120v121q-54 -100 -170 -100q-91 0 -149.5 65t-58.5 168v76q0 104 58.5 169t149.5 65q56 0 100 -26.5t70 -73.5v91h77v-563q0 -83 -48 -131t-132 -48h-139zM438 296q0 78 -41 125t-109 47t-110 -47t-42 -125v-65q0 -78 41.5 -124t110.5 -46
t109.5 46t40.5 124v65zM292 625q-20 0 -35 15t-15 36t15 35.5t35 14.5t34.5 -14.5t14.5 -35.5t-14.5 -36t-34.5 -15z" />
    <glyph glyph-name="uni0122" unicode="&#x122;" horiz-adv-x="734" 
d="M64 312v78q0 143 83 232t217 89q99 0 173 -50t108 -137l-71 -30q-26 67 -82 105.5t-126 38.5q-101 0 -161.5 -68t-60.5 -182v-76q0 -115 61 -183t161 -68q89 0 149 54.5t60 143.5v33h-208v70h283v-362h-75v119q-32 -60 -90.5 -94.5t-127.5 -34.5q-131 0 -212 89t-81 233z
M319 -222q22 3 37 17.5t15 30.5q0 8 -23 22.5t-23 36.5q0 17 12.5 29.5t29.5 12.5q23 0 37 -18.5t14 -50.5q0 -44 -27 -76.5t-72 -37.5v34z" />
    <glyph glyph-name="uni0123" unicode="&#x123;" horiz-adv-x="606" 
d="M341 775q-22 -3 -37 -17.5t-15 -30.5q0 -8 23 -22.5t23 -36.5q0 -17 -12.5 -29.5t-29.5 -12.5q-23 0 -37 18.5t-14 50.5q0 44 27 76.5t72 37.5v-34zM196 -215v67h122q120 0 120 120v121q-54 -100 -170 -100q-91 0 -149.5 65t-58.5 168v76q0 104 58.5 169t149.5 65
q56 0 100 -26.5t70 -73.5v91h77v-563q0 -83 -48 -131t-132 -48h-139zM438 296q0 78 -41 125t-109 47t-110 -47t-42 -125v-65q0 -78 41.5 -124t110.5 -46t109.5 46t40.5 124v65z" />
    <glyph glyph-name="Hcircumflex" unicode="&#x124;" horiz-adv-x="715" 
d="M172 0h-80v700h80v-314h371v314h80v-700h-80v315h-371v-315zM282 785h-71l109 130h78l109 -130h-71l-77 84z" />
    <glyph glyph-name="hcircumflex" unicode="&#x125;" 
d="M517 344v-344h-77v329q0 60 -36.5 99t-95.5 39q-63 0 -103 -41t-40 -103v-323h-77v733h77v-305q21 50 66 79.5t101 29.5q82 0 133.5 -55.5t51.5 -137.5zM51 819h-71l109 130h78l109 -130h-71l-77 84z" />
    <glyph glyph-name="Hbar" unicode="&#x126;" horiz-adv-x="728" 
d="M179 0h-80v507h-89v66h89v127h80v-127h371v127h80v-127h88v-66h-88v-507h-80v315h-371v-315zM179 386h371v121h-371v-121z" />
    <glyph glyph-name="hbar" unicode="&#x127;" horiz-adv-x="611" 
d="M523 344v-344h-77v329q0 60 -36.5 99t-95.5 39q-63 0 -103 -41t-40 -103v-323h-77v598h-71v59h71v76h77v-76h148v-59h-148v-170q21 50 66 79.5t101 29.5q82 0 133.5 -55.5t51.5 -137.5z" />
    <glyph glyph-name="Itilde" unicode="&#x128;" horiz-adv-x="265" 
d="M172 0h-80v700h80v-700zM71 906q23 0 65 -30.5t53 -30.5q14 0 23.5 13.5t20.5 49.5l51 -12q-27 -105 -91 -105q-24 0 -65.5 30t-52.5 30q-14 0 -23.5 -13.5t-21.5 -49.5l-51 12q29 106 92 106z" />
    <glyph glyph-name="itilde" unicode="&#x129;" horiz-adv-x="253" 
d="M165 527v-527h-77v527h77zM65 733q23 0 65 -30.5t53 -30.5q14 0 23.5 13.5t20.5 49.5l51 -12q-27 -105 -91 -105q-24 0 -65.5 30t-52.5 30q-14 0 -23.5 -13.5t-21.5 -49.5l-51 12q29 106 92 106z" />
    <glyph glyph-name="Imacron" unicode="&#x12a;" horiz-adv-x="265" 
d="M172 0h-80v700h80v-700zM256 868v-55h-248v55h248z" />
    <glyph glyph-name="imacron" unicode="&#x12b;" horiz-adv-x="253" 
d="M165 527v-527h-77v527h77zM250 695v-55h-248v55h248z" />
    <glyph glyph-name="Ibreve" unicode="&#x12c;" horiz-adv-x="265" 
d="M172 0h-80v700h80v-700zM132 841q68 0 88 75l55 -17q-13 -53 -52.5 -83t-90.5 -30t-90.5 30t-52.5 83l55 17q21 -75 88 -75z" />
    <glyph glyph-name="ibreve" unicode="&#x12d;" horiz-adv-x="253" 
d="M165 527v-527h-77v527h77zM126 667q68 0 88 75l55 -17q-13 -53 -52.5 -83t-90.5 -30t-90.5 30t-52.5 83l55 17q21 -75 88 -75z" />
    <glyph glyph-name="Iogonek" unicode="&#x12e;" horiz-adv-x="265" 
d="M172 0q-80 -67 -80 -124q0 -49 50 -49q22 0 36 5l8 -45q-24 -8 -52 -8q-46 0 -71 23.5t-25 61.5q0 67 77 136h-23v700h80v-700z" />
    <glyph glyph-name="iogonek" unicode="&#x12f;" horiz-adv-x="253" 
d="M127 630q-21 0 -36.5 15.5t-15.5 35.5q0 22 15.5 37t36.5 15q20 0 35 -15t15 -37q0 -20 -15 -35.5t-35 -15.5zM165 0q-80 -67 -80 -124q0 -49 50 -49q22 0 36 5l8 -45q-24 -8 -52 -8q-46 0 -71 23.5t-25 61.5q0 67 77 136h-20v527h77v-527z" />
    <glyph glyph-name="Idotaccent" unicode="&#x130;" horiz-adv-x="265" 
d="M172 0h-80v700h80v-700zM132 798q-20 0 -35 15t-15 36t15 35.5t35 14.5t34.5 -14.5t14.5 -35.5t-14.5 -36t-34.5 -15z" />
    <glyph glyph-name="dotlessi" unicode="&#x131;" horiz-adv-x="253" 
d="M165 527v-527h-77v527h77z" />
    <glyph glyph-name="IJ" unicode="&#x132;" horiz-adv-x="767" 
d="M172 0h-80v700h80v-700zM284 48l47 58q50 -44 123 -44q67 0 108.5 44t41.5 123v471h80v-476q0 -109 -64 -172t-164 -63q-104 0 -172 59z" />
    <glyph glyph-name="ij" unicode="&#x133;" horiz-adv-x="505" 
d="M127 630q-21 0 -36.5 15.5t-15.5 35.5q0 22 15.5 37t36.5 15q20 0 35 -15t15 -37q0 -20 -15 -35.5t-35 -15.5zM165 527v-527h-77v527h77zM380 630q-21 0 -36.5 15.5t-15.5 35.5q0 22 15.5 37t36.5 15q20 0 35 -15t15 -37q0 -20 -15 -35.5t-35 -15.5zM314 -215h-51v67h34
q44 0 44 40v635h77v-646q0 -43 -28 -69.5t-76 -26.5z" />
    <glyph glyph-name="Jcircumflex" unicode="&#x134;" horiz-adv-x="502" 
d="M19 48l47 58q50 -44 123 -44q67 0 108.5 44t41.5 123v471h80v-476q0 -109 -64 -172t-164 -63q-104 0 -172 59zM304 785h-71l109 130h78l109 -130h-71l-77 84z" />
    <glyph glyph-name="jcircumflex" unicode="&#x135;" horiz-adv-x="253" 
d="M61 -215h-51v67h34q44 0 44 40v635h77v-646q0 -43 -28 -69.5t-76 -26.5zM50 612h-71l109 130h78l109 -130h-71l-77 84z" />
    <glyph glyph-name="uni0136" unicode="&#x136;" horiz-adv-x="609" 
d="M172 0h-80v700h80v-318l340 318h106l-374 -344l380 -356h-113l-339 323v-323zM272 -222q22 3 37 17.5t15 30.5q0 8 -23 22.5t-23 36.5q0 17 12.5 29.5t29.5 12.5q23 0 37 -18.5t14 -50.5q0 -44 -27 -76.5t-72 -37.5v34z" />
    <glyph glyph-name="uni0137" unicode="&#x137;" horiz-adv-x="505" 
d="M506 527l-268 -253l281 -274h-105l-249 248v-248h-77v733h77v-440l242 234h99zM233 -222q22 3 37 17.5t15 30.5q0 8 -23 22.5t-23 36.5q0 17 12.5 29.5t29.5 12.5q23 0 37 -18.5t14 -50.5q0 -44 -27 -76.5t-72 -37.5v34z" />
    <glyph glyph-name="kgreenlandic" unicode="&#x138;" horiz-adv-x="506" 
d="M165 527v-234l242 234h99l-268 -253l281 -274h-105l-249 248v-248h-77v527h77z" />
    <glyph glyph-name="Lacute" unicode="&#x139;" horiz-adv-x="571" 
d="M535 71v-71h-443v700h80v-629h363zM185 915h92l-129 -130h-77z" />
    <glyph glyph-name="lacute" unicode="&#x13a;" horiz-adv-x="253" 
d="M165 0h-77v733h77v-733zM180 947h92l-129 -130h-77z" />
    <glyph glyph-name="uni013B" unicode="&#x13b;" horiz-adv-x="571" 
d="M535 71v-71h-443v700h80v-629h363zM270 -222q22 3 37 17.5t15 30.5q0 8 -23 22.5t-23 36.5q0 17 12.5 29.5t29.5 12.5q23 0 37 -18.5t14 -50.5q0 -44 -27 -76.5t-72 -37.5v34z" />
    <glyph glyph-name="uni013C" unicode="&#x13c;" horiz-adv-x="253" 
d="M165 0h-77v733h77v-733zM77 -222q22 3 37 17.5t15 30.5q0 8 -23 22.5t-23 36.5q0 17 12.5 29.5t29.5 12.5q23 0 37 -18.5t14 -50.5q0 -44 -27 -76.5t-72 -37.5v34z" />
    <glyph glyph-name="Lcaron" unicode="&#x13d;" horiz-adv-x="571" 
d="M535 71v-71h-443v700h80v-629h363zM364 495l19 205h79l-38 -205h-60z" />
    <glyph glyph-name="lcaron" unicode="&#x13e;" horiz-adv-x="347" 
d="M260 528l19 205h79l-38 -205h-60zM165 0h-77v733h77v-733z" />
    <glyph glyph-name="Ldot" unicode="&#x13f;" horiz-adv-x="571" 
d="M535 71v-71h-443v700h80v-629h363zM409 311q-20 0 -35 15t-15 36t15 35.5t35 14.5t34.5 -14.5t14.5 -35.5t-14.5 -36t-34.5 -15z" />
    <glyph glyph-name="ldot" unicode="&#x140;" horiz-adv-x="334" 
d="M165 0h-77v733h77v-733zM289 285q-20 0 -35 15t-15 36t15 35.5t35 14.5t34.5 -14.5t14.5 -35.5t-14.5 -36t-34.5 -15z" />
    <glyph glyph-name="Lslash" unicode="&#x141;" horiz-adv-x="585" 
d="M23 179v74l76 63v384h80v-318l165 136v-74l-165 -136v-237h363v-71h-443v242z" />
    <glyph glyph-name="lslash" unicode="&#x142;" horiz-adv-x="269" 
d="M172 0h-77v297l-83 -73v73l83 73v363h77v-296l83 73v-72l-83 -73v-365z" />
    <glyph glyph-name="Nacute" unicode="&#x143;" horiz-adv-x="742" 
d="M168 0h-76v700h89l393 -586l-1 586h76v-700h-87l-395 587zM424 915h92l-129 -130h-77z" />
    <glyph glyph-name="nacute" unicode="&#x144;" 
d="M517 344v-344h-77v329q0 60 -36.5 99t-95.5 39q-63 0 -103 -41t-40 -103v-323h-77v527h77v-99q21 50 66 79.5t101 29.5q82 0 133.5 -55.5t51.5 -137.5zM356 741h92l-129 -130h-77z" />
    <glyph glyph-name="uni0145" unicode="&#x145;" horiz-adv-x="742" 
d="M168 0h-76v700h89l393 -586l-1 586h76v-700h-87l-395 587zM322 -222q22 3 37 17.5t15 30.5q0 8 -23 22.5t-23 36.5q0 17 12.5 29.5t29.5 12.5q23 0 37 -18.5t14 -50.5q0 -44 -27 -76.5t-72 -37.5v34z" />
    <glyph glyph-name="uni0146" unicode="&#x146;" 
d="M517 344v-344h-77v329q0 60 -36.5 99t-95.5 39q-63 0 -103 -41t-40 -103v-323h-77v527h77v-99q21 50 66 79.5t101 29.5q82 0 133.5 -55.5t51.5 -137.5zM254 -222q22 3 37 17.5t15 30.5q0 8 -23 22.5t-23 36.5q0 17 12.5 29.5t29.5 12.5q23 0 37 -18.5t14 -50.5
q0 -44 -27 -76.5t-72 -37.5v34z" />
    <glyph glyph-name="Ncaron" unicode="&#x147;" horiz-adv-x="742" 
d="M168 0h-76v700h89l393 -586l-1 586h76v-700h-87l-395 587zM450 915h70l-109 -130h-78l-109 130h71l77 -85z" />
    <glyph glyph-name="ncaron" unicode="&#x148;" 
d="M517 344v-344h-77v329q0 60 -36.5 99t-95.5 39q-63 0 -103 -41t-40 -103v-323h-77v527h77v-99q21 50 66 79.5t101 29.5q82 0 133.5 -55.5t51.5 -137.5zM382 741h70l-109 -130h-78l-109 130h71l77 -85z" />
    <glyph glyph-name="Eng" unicode="&#x14a;" horiz-adv-x="744" 
d="M575 -109v111l-407 581v-583h-76v700h86l397 -567l1 567h75v-821q0 -42 -27 -68t-74 -26h-50v67h32q43 0 43 39z" />
    <glyph glyph-name="eng" unicode="&#x14b;" 
d="M414 -215h-51v67h34q43 0 43 40v437q0 60 -36.5 99t-95.5 39q-63 0 -103 -41t-40 -103v-323h-77v527h77v-99q21 50 66 79.5t101 29.5q82 0 133.5 -55.5t51.5 -137.5v-463q0 -43 -27.5 -69.5t-75.5 -26.5z" />
    <glyph glyph-name="Omacron" unicode="&#x14c;" horiz-adv-x="740" 
d="M64 390q0 145 85 233t221 88q137 0 221.5 -88t84.5 -233v-80q0 -145 -84.5 -233t-221.5 -88q-136 0 -221 88t-85 233v80zM144 385v-70q0 -119 62 -186t164 -67q103 0 164.5 67t61.5 186v70q0 119 -61.5 186t-164.5 67t-164.5 -67t-61.5 -186zM494 868v-55h-248v55h248z
" />
    <glyph glyph-name="omacron" unicode="&#x14d;" horiz-adv-x="574" 
d="M514 225q0 -105 -64 -170t-163 -65t-163 65t-64 170v76q0 106 63.5 170.5t163.5 64.5q99 0 163 -65t64 -170v-76zM438 296q0 77 -41.5 124.5t-109.5 47.5q-69 0 -110 -47t-41 -125v-65q0 -78 41 -125.5t110 -47.5q68 0 109.5 47.5t41.5 125.5v65zM411 695v-55h-248v55
h248z" />
    <glyph glyph-name="Obreve" unicode="&#x14e;" horiz-adv-x="740" 
d="M64 390q0 145 85 233t221 88q137 0 221.5 -88t84.5 -233v-80q0 -145 -84.5 -233t-221.5 -88q-136 0 -221 88t-85 233v80zM144 385v-70q0 -119 62 -186t164 -67q103 0 164.5 67t61.5 186v70q0 119 -61.5 186t-164.5 67t-164.5 -67t-61.5 -186zM370 841q68 0 88 75l55 -17
q-13 -53 -52.5 -83t-90.5 -30t-90.5 30t-52.5 83l55 17q21 -75 88 -75z" />
    <glyph glyph-name="obreve" unicode="&#x14f;" horiz-adv-x="574" 
d="M514 225q0 -105 -64 -170t-163 -65t-163 65t-64 170v76q0 106 63.5 170.5t163.5 64.5q99 0 163 -65t64 -170v-76zM438 296q0 77 -41.5 124.5t-109.5 47.5q-69 0 -110 -47t-41 -125v-65q0 -78 41 -125.5t110 -47.5q68 0 109.5 47.5t41.5 125.5v65zM287 668q68 0 88 75
l55 -17q-13 -53 -52.5 -83t-90.5 -30t-90.5 30t-52.5 83l55 17q21 -75 88 -75z" />
    <glyph glyph-name="Ohungarumlaut" unicode="&#x150;" horiz-adv-x="740" 
d="M64 390q0 145 85 233t221 88q137 0 221.5 -88t84.5 -233v-80q0 -145 -84.5 -233t-221.5 -88q-136 0 -221 88t-85 233v80zM144 385v-70q0 -119 62 -186t164 -67q103 0 164.5 67t61.5 186v70q0 119 -61.5 186t-164.5 67t-164.5 -67t-61.5 -186zM347 915h84l-126 -128h-71z
M513 915h84l-125 -128h-72z" />
    <glyph glyph-name="ohungarumlaut" unicode="&#x151;" horiz-adv-x="574" 
d="M514 225q0 -105 -64 -170t-163 -65t-163 65t-64 170v76q0 106 63.5 170.5t163.5 64.5q99 0 163 -65t64 -170v-76zM438 296q0 77 -41.5 124.5t-109.5 47.5q-69 0 -110 -47t-41 -125v-65q0 -78 41 -125.5t110 -47.5q68 0 109.5 47.5t41.5 125.5v65zM264 742h84l-126 -128
h-71zM430 742h84l-125 -128h-72z" />
    <glyph glyph-name="OE" unicode="&#x152;" horiz-adv-x="1019" 
d="M64 390q0 143 81.5 226.5t224.5 83.5h591v-71h-360v-243h350v-70h-350v-245h360v-71h-591q-143 0 -224.5 84t-81.5 227v79zM375 71h146v558h-146q-110 0 -170.5 -63t-60.5 -178v-75q0 -114 60.5 -178t170.5 -64z" />
    <glyph glyph-name="oe" unicode="&#x153;" horiz-adv-x="930" 
d="M668 -9q-62 0 -111.5 29.5t-77.5 81.5q-28 -53 -78 -82.5t-113 -29.5q-98 0 -162 65t-64 170v76q0 105 63.5 170t162.5 65q63 0 112.5 -29t77.5 -82q28 52 76.5 81.5t110.5 29.5q91 0 150 -65t59 -166v-65h-356v-13q0 -75 42.5 -122t109.5 -47q85 0 141 72l54 -45
q-75 -94 -197 -94zM663 469q-63 0 -104 -46.5t-41 -119.5h282v4q0 72 -38.5 117t-98.5 45zM441 296q0 77 -41.5 124.5t-110.5 47.5q-68 0 -109 -47.5t-41 -124.5v-65q0 -78 41 -125.5t109 -47.5q69 0 110.5 47.5t41.5 125.5v65z" />
    <glyph glyph-name="Racute" unicode="&#x154;" horiz-adv-x="620" 
d="M172 0h-80v700h263q89 0 148.5 -58.5t59.5 -143.5q0 -69 -42 -121.5t-109 -69.5l187 -307h-91l-180 300h-156v-300zM348 629h-176v-261h176q59 0 97 37.5t38 92.5t-38 93t-97 38zM362 915h92l-129 -130h-77z" />
    <glyph glyph-name="racute" unicode="&#x155;" horiz-adv-x="375" 
d="M345 456h-50q-55 0 -92.5 -41t-37.5 -102v-313h-77v527h76v-106q16 50 52 80t85 30h44v-75zM272 741h92l-129 -130h-77z" />
    <glyph glyph-name="uni0156" unicode="&#x156;" horiz-adv-x="620" 
d="M172 0h-80v700h263q89 0 148.5 -58.5t59.5 -143.5q0 -69 -42 -121.5t-109 -69.5l187 -307h-91l-180 300h-156v-300zM348 629h-176v-261h176q59 0 97 37.5t38 92.5t-38 93t-97 38zM276 -222q22 3 37 17.5t15 30.5q0 8 -23 22.5t-23 36.5q0 17 12.5 29.5t29.5 12.5
q23 0 37 -18.5t14 -50.5q0 -44 -27 -76.5t-72 -37.5v34z" />
    <glyph glyph-name="uni0157" unicode="&#x157;" horiz-adv-x="375" 
d="M345 456h-50q-55 0 -92.5 -41t-37.5 -102v-313h-77v527h76v-106q16 50 52 80t85 30h44v-75zM77 -222q22 3 37 17.5t15 30.5q0 8 -23 22.5t-23 36.5q0 17 12.5 29.5t29.5 12.5q23 0 37 -18.5t14 -50.5q0 -44 -27 -76.5t-72 -37.5v34z" />
    <glyph glyph-name="Rcaron" unicode="&#x158;" horiz-adv-x="620" 
d="M172 0h-80v700h263q89 0 148.5 -58.5t59.5 -143.5q0 -69 -42 -121.5t-109 -69.5l187 -307h-91l-180 300h-156v-300zM348 629h-176v-261h176q59 0 97 37.5t38 92.5t-38 93t-97 38zM388 915h70l-109 -130h-78l-109 130h71l77 -85z" />
    <glyph glyph-name="rcaron" unicode="&#x159;" horiz-adv-x="375" 
d="M345 456h-50q-55 0 -92.5 -41t-37.5 -102v-313h-77v527h76v-106q16 50 52 80t85 30h44v-75zM298 741h70l-109 -130h-78l-109 130h71l77 -85z" />
    <glyph glyph-name="Sacute" unicode="&#x15a;" horiz-adv-x="604" 
d="M48 210h79q11 -71 60.5 -110.5t126.5 -39.5q71 0 112.5 32.5t41.5 86.5q0 89 -125 122l-121 32q-82 22 -124.5 68.5t-42.5 114.5q0 86 63.5 140t161.5 54q102 0 171 -59.5t81 -158.5h-79q-11 71 -56.5 110.5t-118.5 39.5q-63 0 -103.5 -33t-40.5 -86q0 -86 114 -116
l125 -34q175 -47 175 -185q0 -88 -64 -142.5t-169 -54.5q-110 0 -183.5 60t-83.5 159zM339 915h92l-129 -130h-77z" />
    <glyph glyph-name="sacute" unicode="&#x15b;" horiz-adv-x="488" 
d="M257 -10q-87 0 -146.5 47.5t-71.5 122.5h75q9 -46 47 -76t96 -30q48 0 78 23t30 58q0 59 -90 85l-89 23q-138 36 -138 142q0 68 49 109.5t128 41.5q81 0 139.5 -46.5t68.5 -121.5h-76q-8 45 -45 75t-87 30q-46 0 -73.5 -22t-27.5 -57q0 -59 85 -82l87 -23
q70 -18 107.5 -56t37.5 -91q0 -68 -51.5 -110t-132.5 -42zM284 741h92l-129 -130h-77z" />
    <glyph glyph-name="Scircumflex" unicode="&#x15c;" horiz-adv-x="604" 
d="M48 210h79q11 -71 60.5 -110.5t126.5 -39.5q71 0 112.5 32.5t41.5 86.5q0 89 -125 122l-121 32q-82 22 -124.5 68.5t-42.5 114.5q0 86 63.5 140t161.5 54q102 0 171 -59.5t81 -158.5h-79q-11 71 -56.5 110.5t-118.5 39.5q-63 0 -103.5 -33t-40.5 -86q0 -86 114 -116
l125 -34q175 -47 175 -185q0 -88 -64 -142.5t-169 -54.5q-110 0 -183.5 60t-83.5 159zM210 785h-71l109 130h78l109 -130h-71l-77 84z" />
    <glyph glyph-name="scircumflex" unicode="&#x15d;" horiz-adv-x="488" 
d="M257 -10q-87 0 -146.5 47.5t-71.5 122.5h75q9 -46 47 -76t96 -30q48 0 78 23t30 58q0 59 -90 85l-89 23q-138 36 -138 142q0 68 49 109.5t128 41.5q81 0 139.5 -46.5t68.5 -121.5h-76q-8 45 -45 75t-87 30q-46 0 -73.5 -22t-27.5 -57q0 -59 85 -82l87 -23
q70 -18 107.5 -56t37.5 -91q0 -68 -51.5 -110t-132.5 -42zM155 612h-71l109 130h78l109 -130h-71l-77 84z" />
    <glyph glyph-name="uni015E" unicode="&#x15e;" horiz-adv-x="604" 
d="M48 210h79q11 -71 60.5 -110.5t126.5 -39.5q71 0 112.5 32.5t41.5 86.5q0 89 -125 122l-121 32q-82 22 -124.5 68.5t-42.5 114.5q0 86 63.5 140t161.5 54q102 0 171 -59.5t81 -158.5h-79q-11 71 -56.5 110.5t-118.5 39.5q-63 0 -103.5 -33t-40.5 -86q0 -86 114 -116
l125 -34q175 -47 175 -185q0 -84 -59 -138.5t-158 -58.5l-14 -46q40 -3 64 -25.5t24 -57.5q0 -38 -30 -64t-74 -26q-71 0 -105 47l37 31q27 -33 66 -33q24 0 38.5 13t14.5 33t-16.5 32.5t-43.5 12.5h-33l25 84q-99 9 -163 67.5t-73 150.5z" />
    <glyph glyph-name="uni015F" unicode="&#x15f;" horiz-adv-x="488" 
d="M348 -138q0 -38 -30 -64t-74 -26q-71 0 -105 47l37 31q27 -33 66 -33q24 0 38.5 13t14.5 33t-16.5 32.5t-43.5 12.5h-33l25 84q-75 8 -126 54t-62 114h75q9 -46 47 -76t96 -30q48 0 78 23t30 58q0 59 -90 85l-89 23q-138 36 -138 142q0 68 49 109.5t128 41.5
q81 0 139.5 -46.5t68.5 -121.5h-76q-8 45 -45 75t-87 30q-46 0 -73.5 -22t-27.5 -57q0 -59 85 -82l87 -23q70 -18 107.5 -56t37.5 -91q0 -64 -46.5 -105.5t-121.5 -46.5l-13 -45q40 -3 64 -25.5t24 -57.5z" />
    <glyph glyph-name="Scaron" unicode="&#x160;" horiz-adv-x="604" 
d="M48 210h79q11 -71 60.5 -110.5t126.5 -39.5q71 0 112.5 32.5t41.5 86.5q0 89 -125 122l-121 32q-82 22 -124.5 68.5t-42.5 114.5q0 86 63.5 140t161.5 54q102 0 171 -59.5t81 -158.5h-79q-11 71 -56.5 110.5t-118.5 39.5q-63 0 -103.5 -33t-40.5 -86q0 -86 114 -116
l125 -34q175 -47 175 -185q0 -88 -64 -142.5t-169 -54.5q-110 0 -183.5 60t-83.5 159zM365 915h70l-109 -130h-78l-109 130h71l77 -85z" />
    <glyph glyph-name="scaron" unicode="&#x161;" horiz-adv-x="488" 
d="M257 -10q-87 0 -146.5 47.5t-71.5 122.5h75q9 -46 47 -76t96 -30q48 0 78 23t30 58q0 59 -90 85l-89 23q-138 36 -138 142q0 68 49 109.5t128 41.5q81 0 139.5 -46.5t68.5 -121.5h-76q-8 45 -45 75t-87 30q-46 0 -73.5 -22t-27.5 -57q0 -59 85 -82l87 -23
q70 -18 107.5 -56t37.5 -91q0 -68 -51.5 -110t-132.5 -42zM310 741h70l-109 -130h-78l-109 130h71l77 -85z" />
    <glyph glyph-name="uni0162" unicode="&#x162;" horiz-adv-x="621" 
d="M26 629v71h569v-71h-245v-629h-14l-16 -55q40 -3 64 -25.5t24 -57.5q0 -38 -30 -64t-74 -26q-71 0 -105 47l37 31q27 -33 66 -33q24 0 38.5 13t14.5 33t-16.5 32.5t-43.5 12.5h-33l27 92h-19v629h-244z" />
    <glyph glyph-name="uni0163" unicode="&#x163;" horiz-adv-x="389" 
d="M31 459v68h108v158h76v-158h141v-68h-141v-343q0 -48 53 -48h88v-68h-87l-16 -55q40 -3 64 -25.5t24 -57.5q0 -38 -30 -64t-74 -26q-71 0 -105 47l37 31q27 -33 66 -33q24 0 38.5 13t14.5 33t-16.5 32.5t-43.5 12.5h-33l28 95q-40 7 -62 34.5t-22 67.5v354h-108z" />
    <glyph glyph-name="Tcaron" unicode="&#x164;" horiz-adv-x="621" 
d="M26 629v71h569v-71h-245v-629h-80v629h-244zM389 915h70l-109 -130h-78l-109 130h71l77 -85z" />
    <glyph glyph-name="tcaron" unicode="&#x165;" horiz-adv-x="389" 
d="M285 603l20 184h77l-39 -184h-58zM253 0q-53 0 -83.5 29t-30.5 76v354h-108v68h108v158h76v-158h141v-68h-141v-343q0 -48 53 -48h88v-68h-103z" />
    <glyph glyph-name="Tbar" unicode="&#x166;" horiz-adv-x="621" 
d="M119 313v69h151v247h-244v71h569v-71h-245v-247h153v-69h-153v-313h-80v313h-151z" />
    <glyph glyph-name="tbar" unicode="&#x167;" horiz-adv-x="396" 
d="M253 0q-53 0 -83.5 29t-30.5 76v148h-108v65h108v141h-108v68h108v158h76v-158h141v-68h-141v-141h141v-65h-141v-137q0 -48 53 -48h88v-68h-103z" />
    <glyph glyph-name="Utilde" unicode="&#x168;" horiz-adv-x="709" 
d="M162 264q0 -91 53 -146.5t134 -55.5q80 0 134 56t54 146v436h80v-700h-80v107q-30 -52 -82.5 -84.5t-118.5 -32.5q-109 0 -181.5 74.5t-72.5 193.5v442h80v-436zM289 906q23 0 65 -30.5t53 -30.5q14 0 23.5 13.5t20.5 49.5l51 -12q-27 -105 -91 -105q-24 0 -65.5 30
t-52.5 30q-14 0 -23.5 -13.5t-21.5 -49.5l-51 12q29 106 92 106z" />
    <glyph glyph-name="utilde" unicode="&#x169;" 
d="M88 182v345h77v-330q0 -59 36.5 -98t95.5 -39q63 0 103 40.5t40 103.5v323h77v-527h-77v99q-21 -51 -65.5 -80t-100.5 -29q-83 0 -134.5 55t-51.5 137zM242 733q24 0 65 -30.5t53 -30.5q14 0 23.5 13.5t20.5 49.5l51 -12q-27 -105 -91 -105q-24 0 -65.5 30t-52.5 30
q-14 0 -23.5 -13.5t-21.5 -49.5l-51 12q29 106 92 106z" />
    <glyph glyph-name="Umacron" unicode="&#x16a;" horiz-adv-x="709" 
d="M162 264q0 -91 53 -146.5t134 -55.5q80 0 134 56t54 146v436h80v-700h-80v107q-30 -52 -82.5 -84.5t-118.5 -32.5q-109 0 -181.5 74.5t-72.5 193.5v442h80v-436zM474 868v-55h-248v55h248z" />
    <glyph glyph-name="umacron" unicode="&#x16b;" 
d="M88 182v345h77v-330q0 -59 36.5 -98t95.5 -39q63 0 103 40.5t40 103.5v323h77v-527h-77v99q-21 -51 -65.5 -80t-100.5 -29q-83 0 -134.5 55t-51.5 137zM427 695v-55h-248v55h248z" />
    <glyph glyph-name="Ubreve" unicode="&#x16c;" horiz-adv-x="709" 
d="M162 264q0 -91 53 -146.5t134 -55.5q80 0 134 56t54 146v436h80v-700h-80v107q-30 -52 -82.5 -84.5t-118.5 -32.5q-109 0 -181.5 74.5t-72.5 193.5v442h80v-436zM350 841q68 0 88 75l55 -17q-13 -53 -52.5 -83t-90.5 -30t-90.5 30t-52.5 83l55 17q21 -75 88 -75z" />
    <glyph glyph-name="ubreve" unicode="&#x16d;" 
d="M88 182v345h77v-330q0 -59 36.5 -98t95.5 -39q63 0 103 40.5t40 103.5v323h77v-527h-77v99q-21 -51 -65.5 -80t-100.5 -29q-83 0 -134.5 55t-51.5 137zM303 667q68 0 88 75l55 -17q-13 -53 -52.5 -83t-90.5 -30t-90.5 30t-52.5 83l55 17q21 -75 88 -75z" />
    <glyph glyph-name="Uring" unicode="&#x16e;" horiz-adv-x="709" 
d="M162 264q0 -91 53 -146.5t134 -55.5q80 0 134 56t54 146v436h80v-700h-80v107q-30 -52 -82.5 -84.5t-118.5 -32.5q-109 0 -181.5 74.5t-72.5 193.5v442h80v-436zM350 768q-43 0 -74 30t-31 72t31 72t74 30t74 -30t31 -72t-31 -72t-74 -30zM350 809q26 0 44 17.5t18 43.5
t-18 43.5t-44 17.5t-44 -17.5t-18 -43.5t18 -43.5t44 -17.5z" />
    <glyph glyph-name="uring" unicode="&#x16f;" 
d="M88 182v345h77v-330q0 -59 36.5 -98t95.5 -39q63 0 103 40.5t40 103.5v323h77v-527h-77v99q-21 -51 -65.5 -80t-100.5 -29q-83 0 -134.5 55t-51.5 137zM303 594q-43 0 -74 30t-31 72t31 72t74 30t74 -30t31 -72t-31 -72t-74 -30zM303 635q26 0 44 17.5t18 43.5t-18 43.5
t-44 17.5t-44 -17.5t-18 -43.5t18 -43.5t44 -17.5z" />
    <glyph glyph-name="Uhungarumlaut" unicode="&#x170;" horiz-adv-x="709" 
d="M162 264q0 -91 53 -146.5t134 -55.5q80 0 134 56t54 146v436h80v-700h-80v107q-30 -52 -82.5 -84.5t-118.5 -32.5q-109 0 -181.5 74.5t-72.5 193.5v442h80v-436zM327 915h84l-126 -128h-71zM493 915h84l-125 -128h-72z" />
    <glyph glyph-name="uhungarumlaut" unicode="&#x171;" 
d="M88 182v345h77v-330q0 -59 36.5 -98t95.5 -39q63 0 103 40.5t40 103.5v323h77v-527h-77v99q-21 -51 -65.5 -80t-100.5 -29q-83 0 -134.5 55t-51.5 137zM279 741h84l-126 -128h-71zM445 741h84l-125 -128h-72z" />
    <glyph glyph-name="Uogonek" unicode="&#x172;" horiz-adv-x="709" 
d="M162 264q0 -91 53 -146.5t134 -55.5q80 0 134 56t54 146v436h80v-700q-80 -67 -80 -124q0 -49 50 -49q22 0 36 5l8 -45q-24 -8 -52 -8q-46 0 -71 23.5t-25 61.5q0 67 77 136h-23v107q-30 -52 -82.5 -84.5t-118.5 -32.5q-109 0 -181.5 74.5t-72.5 193.5v442h80v-436z" />
    <glyph glyph-name="uogonek" unicode="&#x173;" 
d="M88 182v345h77v-330q0 -59 36.5 -98t95.5 -39q63 0 103 40.5t40 103.5v323h77v-527q-80 -67 -80 -124q0 -49 50 -49q22 0 36 5l8 -45q-24 -8 -52 -8q-46 0 -71 23.5t-25 61.5q0 67 77 136h-20v99q-21 -51 -65.5 -80t-100.5 -29q-83 0 -134.5 55t-51.5 137z" />
    <glyph glyph-name="Wcircumflex" unicode="&#x174;" horiz-adv-x="945" 
d="M509 700l185 -579l143 579h79l-183 -700h-76l-184 579l-185 -579h-76l-183 700h83l143 -579l184 579h70zM397 785h-71l109 130h78l109 -130h-71l-77 84z" />
    <glyph glyph-name="wcircumflex" unicode="&#x175;" horiz-adv-x="742" 
d="M339 527h65l130 -407l110 407h77l-148 -527h-69l-133 413l-134 -413h-69l-148 527h79l110 -409zM294 612h-71l109 130h78l109 -130h-71l-77 84z" />
    <glyph glyph-name="Ycircumflex" unicode="&#x176;" horiz-adv-x="618" 
d="M349 0h-80v292l-268 408h94l216 -333l214 333h92l-268 -411v-289zM233 785h-71l109 130h78l109 -130h-71l-77 84z" />
    <glyph glyph-name="ycircumflex" unicode="&#x177;" horiz-adv-x="506" 
d="M178 -92l39 99l-212 520h81l171 -421l164 421h80l-255 -641q-19 -51 -49.5 -76t-79.5 -25h-68v67h56q51 0 73 56zM179 612h-71l109 130h78l109 -130h-71l-77 84z" />
    <glyph glyph-name="Ydieresis" unicode="&#x178;" horiz-adv-x="618" 
d="M349 0h-80v292l-268 408h94l216 -333l214 333h92l-268 -411v-289zM222 798q-20 0 -35 15t-15 36t15 35.5t35 14.5t35 -14.5t15 -35.5t-15 -36t-35 -15zM396 798q-20 0 -35 15t-15 36t15 35.5t35 14.5t35 -14.5t15 -35.5t-15 -36t-35 -15z" />
    <glyph glyph-name="Zacute" unicode="&#x179;" horiz-adv-x="558" 
d="M44 629v71h472v-55l-380 -574h382v-71h-483v54l380 575h-371zM329 915h92l-129 -130h-77z" />
    <glyph glyph-name="zacute" unicode="&#x17a;" horiz-adv-x="473" 
d="M43 459v68h381v-57l-291 -402h298v-68h-392v56l293 403h-289zM289 741h92l-129 -130h-77z" />
    <glyph glyph-name="Zdotaccent" unicode="&#x17b;" horiz-adv-x="558" 
d="M44 629v71h472v-55l-380 -574h382v-71h-483v54l380 575h-371zM276 798q-20 0 -35 15t-15 36t15 35.5t35 14.5t34.5 -14.5t14.5 -35.5t-14.5 -36t-34.5 -15z" />
    <glyph glyph-name="zdotaccent" unicode="&#x17c;" horiz-adv-x="473" 
d="M43 459v68h381v-57l-291 -402h298v-68h-392v56l293 403h-289zM236 625q-20 0 -35 15t-15 36t15 35.5t35 14.5t34.5 -14.5t14.5 -35.5t-14.5 -36t-34.5 -15z" />
    <glyph glyph-name="Zcaron" unicode="&#x17d;" horiz-adv-x="558" 
d="M44 629v71h472v-55l-380 -574h382v-71h-483v54l380 575h-371zM355 915h70l-109 -130h-78l-109 130h71l77 -85z" />
    <glyph glyph-name="zcaron" unicode="&#x17e;" horiz-adv-x="473" 
d="M43 459v68h381v-57l-291 -402h298v-68h-392v56l293 403h-289zM315 741h70l-109 -130h-78l-109 130h71l77 -85z" />
    <glyph glyph-name="florin" unicode="&#x192;" horiz-adv-x="386" 
d="M58 -95l82 553h-108v69h119l16 111q17 108 107 108h108v-68h-94q-35 0 -44 -52l-15 -99h125v-69h-135l-84 -565q-17 -108 -107 -108h-107v68h94q35 0 43 52z" />
    <glyph glyph-name="uni0218" unicode="&#x218;" horiz-adv-x="604" 
d="M48 210h79q11 -71 60.5 -110.5t126.5 -39.5q71 0 112.5 32.5t41.5 86.5q0 89 -125 122l-121 32q-82 22 -124.5 68.5t-42.5 114.5q0 86 63.5 140t161.5 54q102 0 171 -59.5t81 -158.5h-79q-11 71 -56.5 110.5t-118.5 39.5q-63 0 -103.5 -33t-40.5 -86q0 -86 114 -116
l125 -34q175 -47 175 -185q0 -88 -64 -142.5t-169 -54.5q-110 0 -183.5 60t-83.5 159zM259 -222q22 3 37 17.5t15 30.5q0 8 -23 22.5t-23 36.5q0 17 12.5 29.5t29.5 12.5q23 0 37 -18.5t14 -50.5q0 -44 -27 -76.5t-72 -37.5v34z" />
    <glyph glyph-name="uni0219" unicode="&#x219;" horiz-adv-x="488" 
d="M257 -10q-87 0 -146.5 47.5t-71.5 122.5h75q9 -46 47 -76t96 -30q48 0 78 23t30 58q0 59 -90 85l-89 23q-138 36 -138 142q0 68 49 109.5t128 41.5q81 0 139.5 -46.5t68.5 -121.5h-76q-8 45 -45 75t-87 30q-46 0 -73.5 -22t-27.5 -57q0 -59 85 -82l87 -23
q70 -18 107.5 -56t37.5 -91q0 -68 -51.5 -110t-132.5 -42zM202 -222q22 3 37 17.5t15 30.5q0 8 -23 22.5t-23 36.5q0 17 12.5 29.5t29.5 12.5q23 0 37 -18.5t14 -50.5q0 -44 -27 -76.5t-72 -37.5v34z" />
    <glyph glyph-name="uni021A" unicode="&#x21a;" horiz-adv-x="621" 
d="M26 629v71h569v-71h-245v-629h-80v629h-244zM262 -222q22 3 37 17.5t15 30.5q0 8 -23 22.5t-23 36.5q0 17 12.5 29.5t29.5 12.5q23 0 37 -18.5t14 -50.5q0 -44 -27 -76.5t-72 -37.5v34z" />
    <glyph glyph-name="uni021B" unicode="&#x21b;" horiz-adv-x="389" 
d="M253 0q-53 0 -83.5 29t-30.5 76v354h-108v68h108v158h76v-158h141v-68h-141v-343q0 -48 53 -48h88v-68h-103zM195 -222q22 3 37 17.5t15 30.5q0 8 -23 22.5t-23 36.5q0 17 12.5 29.5t29.5 12.5q23 0 37 -18.5t14 -50.5q0 -44 -27 -76.5t-72 -37.5v34z" />
    <glyph glyph-name="uni0237" unicode="&#x237;" horiz-adv-x="253" 
d="M61 -215h-51v67h34q44 0 44 40v635h77v-646q0 -43 -28 -69.5t-76 -26.5z" />
    <glyph glyph-name="circumflex" unicode="&#x2c6;" horiz-adv-x="500" 
d="M174 588h-71l109 130h78l109 -130h-71l-77 84z" />
    <glyph glyph-name="caron" unicode="&#x2c7;" horiz-adv-x="500" 
d="M329 718h70l-109 -130h-78l-109 130h71l77 -85z" />
    <glyph glyph-name="breve" unicode="&#x2d8;" horiz-adv-x="500" 
d="M250 644q68 0 88 75l55 -17q-13 -53 -52.5 -83t-90.5 -30t-90.5 30t-52.5 83l55 17q21 -75 88 -75z" />
    <glyph glyph-name="dotaccent" unicode="&#x2d9;" horiz-adv-x="248" 
d="M124 601q-20 0 -35 15t-15 36t15 35.5t35 14.5t34.5 -14.5t14.5 -35.5t-14.5 -36t-34.5 -15z" />
    <glyph glyph-name="ring" unicode="&#x2da;" horiz-adv-x="500" 
d="M250 571q-43 0 -74 30t-31 72t31 72t74 30t74 -30t31 -72t-31 -72t-74 -30zM250 612q26 0 44 17.5t18 43.5t-18 43.5t-44 17.5t-44 -17.5t-18 -43.5t18 -43.5t44 -17.5z" />
    <glyph glyph-name="ogonek" unicode="&#x2db;" horiz-adv-x="500" 
d="M308 0q-80 -67 -80 -124q0 -49 50 -49q22 0 36 5l8 -45q-24 -8 -52 -8q-46 0 -71 23.5t-25 61.5t21.5 73.5t77.5 81.5z" />
    <glyph glyph-name="tilde" unicode="&#x2dc;" horiz-adv-x="500" 
d="M183 709q23 0 65 -30.5t53 -30.5q14 0 23.5 13.5t20.5 49.5l51 -12q-27 -105 -91 -105q-24 0 -65.5 30t-52.5 30q-14 0 -23.5 -13.5t-21.5 -49.5l-51 12q29 106 92 106z" />
    <glyph glyph-name="hungarumlaut" unicode="&#x2dd;" horiz-adv-x="509" 
d="M225 718h84l-126 -128h-71zM391 718h84l-125 -128h-72z" />
    <glyph glyph-name="uni09F3" unicode="&#x9f3;" horiz-adv-x="607" 
d="M181 162q0 -52 29 -79t81 -27q90 0 153 62t63 151q0 64 -32.5 109t-78.5 45q-28 0 -59 -18l-29 62q47 26 89 26q78 0 131.5 -65.5t53.5 -158.5q0 -116 -85 -198t-208 -82q-85 0 -134 46.5t-49 114.5v254h-77v66h77v128q0 32 -35 32h-42v70h60q43 0 67.5 -24t24.5 -63
v-143h69v-66h-69v-242z" />
    <glyph glyph-name="Wgrave" unicode="&#x1e80;" horiz-adv-x="945" 
d="M509 700l185 -579l143 579h79l-183 -700h-76l-184 579l-185 -579h-76l-183 700h83l143 -579l184 579h70zM418 915l114 -130h-78l-128 130h92z" />
    <glyph glyph-name="wgrave" unicode="&#x1e81;" horiz-adv-x="742" 
d="M339 527h65l130 -407l110 407h77l-148 -527h-69l-133 413l-134 -413h-69l-148 527h79l110 -409zM315 742l114 -130h-78l-128 130h92z" />
    <glyph glyph-name="Wacute" unicode="&#x1e82;" horiz-adv-x="945" 
d="M509 700l185 -579l143 579h79l-183 -700h-76l-184 579l-185 -579h-76l-183 700h83l143 -579l184 579h70zM526 915h92l-129 -130h-77z" />
    <glyph glyph-name="wacute" unicode="&#x1e83;" horiz-adv-x="742" 
d="M339 527h65l130 -407l110 407h77l-148 -527h-69l-133 413l-134 -413h-69l-148 527h79l110 -409zM423 742h92l-129 -130h-77z" />
    <glyph glyph-name="Wdieresis" unicode="&#x1e84;" horiz-adv-x="945" 
d="M509 700l185 -579l143 579h79l-183 -700h-76l-184 579l-185 -579h-76l-183 700h83l143 -579l184 579h70zM386 798q-20 0 -35 15t-15 36t15 35.5t35 14.5t35 -14.5t15 -35.5t-15 -36t-35 -15zM560 798q-20 0 -35 15t-15 36t15 35.5t35 14.5t35 -14.5t15 -35.5t-15 -36
t-35 -15z" />
    <glyph glyph-name="wdieresis" unicode="&#x1e85;" horiz-adv-x="742" 
d="M339 527h65l130 -407l110 407h77l-148 -527h-69l-133 413l-134 -413h-69l-148 527h79l110 -409zM283 625q-20 0 -35 15t-15 36t15 35.5t35 14.5t35 -14.5t15 -35.5t-15 -36t-35 -15zM457 625q-20 0 -35 15t-15 36t15 35.5t35 14.5t35 -14.5t15 -35.5t-15 -36t-35 -15z
" />
    <glyph glyph-name="Ygrave" unicode="&#x1ef2;" horiz-adv-x="618" 
d="M349 0h-80v292l-268 408h94l216 -333l214 333h92l-268 -411v-289zM254 915l114 -130h-78l-128 130h92z" />
    <glyph glyph-name="ygrave" unicode="&#x1ef3;" horiz-adv-x="506" 
d="M178 -92l39 99l-212 520h81l171 -421l164 421h80l-255 -641q-19 -51 -49.5 -76t-79.5 -25h-68v67h56q51 0 73 56zM200 742l114 -130h-78l-128 130h92z" />
    <glyph glyph-name="uni2002" unicode="&#x2002;" horiz-adv-x="500" 
 />
    <glyph glyph-name="uni2003" unicode="&#x2003;" horiz-adv-x="1000" 
 />
    <glyph glyph-name="uni2009" unicode="&#x2009;" horiz-adv-x="175" 
 />
    <glyph glyph-name="uni200A" unicode="&#x200a;" horiz-adv-x="100" 
 />
    <glyph glyph-name="uni200B" unicode="&#x200b;" horiz-adv-x="0" 
 />
    <glyph glyph-name="endash" unicode="&#x2013;" horiz-adv-x="606" 
d="M66 264v69h474v-69h-474z" />
    <glyph glyph-name="emdash" unicode="&#x2014;" horiz-adv-x="806" 
d="M66 264v69h674v-69h-674z" />
    <glyph glyph-name="uni2015" unicode="&#x2015;" horiz-adv-x="1006" 
d="M66 264v69h874v-69h-874z" />
    <glyph glyph-name="quoteleft" unicode="&#x2018;" horiz-adv-x="219" 
d="M161 689q-28 -5 -48 -29.5t-20 -48.5q0 -12 13.5 -21t27.5 -21.5t14 -32.5t-14.5 -34t-33.5 -14q-27 0 -43.5 21.5t-16.5 59.5q0 63 32 107.5t89 54.5v-42z" />
    <glyph glyph-name="quoteright" unicode="&#x2019;" horiz-adv-x="219" 
d="M58 531q28 5 48 29.5t20 48.5q0 9 -8.5 17.5t-19 14t-19 16.5t-8.5 27q0 20 14.5 34t33.5 14q27 0 43.5 -21.5t16.5 -59.5q0 -63 -32 -107.5t-89 -54.5v42z" />
    <glyph glyph-name="quotesinglbase" unicode="&#x201a;" horiz-adv-x="219" 
d="M44 -109q28 5 48 29.5t20 48.5q0 9 -8.5 17.5t-19 14t-19 16.5t-8.5 27q0 20 14.5 34t33.5 14q27 0 43.5 -21.5t16.5 -59.5q0 -63 -32 -107.5t-89 -54.5v42z" />
    <glyph glyph-name="quotedblleft" unicode="&#x201c;" horiz-adv-x="389" 
d="M161 689q-28 -5 -48 -29.5t-20 -48.5q0 -12 13.5 -21t27.5 -21.5t14 -32.5t-14.5 -34t-33.5 -14q-27 0 -43.5 21.5t-16.5 59.5q0 63 32 107.5t89 54.5v-42zM331 689q-28 -5 -48 -29.5t-20 -48.5q0 -12 13.5 -21t27.5 -21.5t14 -32.5t-14.5 -34t-33.5 -14
q-27 0 -43.5 21.5t-16.5 59.5q0 63 32 107.5t89 54.5v-42z" />
    <glyph glyph-name="quotedblright" unicode="&#x201d;" horiz-adv-x="389" 
d="M228 531q28 5 48 29.5t20 48.5q0 9 -8.5 17.5t-19 14t-19 16.5t-8.5 27q0 20 14.5 34t33.5 14q27 0 43.5 -21.5t16.5 -59.5q0 -63 -32 -107.5t-89 -54.5v42zM58 531q28 5 48 29.5t20 48.5q0 9 -8.5 17.5t-19 14t-19 16.5t-8.5 27q0 20 14.5 34t33.5 14q27 0 43.5 -21.5
t16.5 -59.5q0 -63 -32 -107.5t-89 -54.5v42z" />
    <glyph glyph-name="quotedblbase" unicode="&#x201e;" horiz-adv-x="389" 
d="M214 -109q28 5 48 29.5t20 48.5q0 12 -13.5 21t-27.5 21.5t-14 32.5t14.5 34t33.5 14q27 0 43.5 -21.5t16.5 -59.5q0 -63 -32 -107.5t-89 -54.5v42zM44 -109q28 5 48 29.5t20 48.5q0 9 -8.5 17.5t-19 14t-19 16.5t-8.5 27q0 20 14.5 34t33.5 14q27 0 43.5 -21.5
t16.5 -59.5q0 -63 -32 -107.5t-89 -54.5v42z" />
    <glyph glyph-name="dagger" unicode="&#x2020;" horiz-adv-x="397" 
d="M165 0v441h-126v62h126v197h67v-197h127v-62h-127v-441h-67z" />
    <glyph glyph-name="daggerdbl" unicode="&#x2021;" horiz-adv-x="397" 
d="M165 0v197h-126v62h126v182h-126v62h126v197h67v-197h127v-62h-127v-182h127v-62h-127v-197h-67z" />
    <glyph glyph-name="bullet" unicode="&#x2022;" horiz-adv-x="270" 
d="M136 413q38 0 65.5 -28t27.5 -66q0 -40 -27.5 -68t-65.5 -28q-39 0 -67 28t-28 68q0 38 28 66t67 28z" />
    <glyph glyph-name="ellipsis" unicode="&#x2026;" horiz-adv-x="637" 
d="M106 94q21 0 36 -15t15 -37q0 -21 -15 -36t-36 -15t-36 15t-15 36q0 22 15 37t36 15zM318 94q21 0 36 -15t15 -37q0 -21 -15 -36t-36 -15t-36 15t-15 36q0 22 15 37t36 15zM531 94q21 0 36 -15t15 -37q0 -21 -15 -36t-36 -15t-36 15t-15 36q0 22 15 37t36 15z" />
    <glyph glyph-name="guilsinglleft" unicode="&#x2039;" horiz-adv-x="386" 
d="M355 527l-240 -262l244 -265h-92l-246 264l246 263h88z" />
    <glyph glyph-name="guilsinglright" unicode="&#x203a;" horiz-adv-x="386" 
d="M25 0l240 262l-244 265h92l246 -264l-246 -263h-88z" />
    <glyph glyph-name="fraction" unicode="&#x2044;" horiz-adv-x="561" 
d="M112 0h-65l383 700h66z" />
    <glyph glyph-name="uni2070" unicode="&#x2070;" horiz-adv-x="359" 
d="M38 458v100q0 68 39 108.5t102 40.5q64 0 103 -40.5t39 -108.5v-100q0 -68 -39 -109t-103 -41q-63 0 -102 41t-39 109zM262 460v96q0 46 -22.5 72.5t-60.5 26.5t-60 -26.5t-22 -72.5v-96q0 -47 22 -73t60 -26q39 0 61 26t22 73z" />
    <glyph glyph-name="uni2074" unicode="&#x2074;" horiz-adv-x="345" 
d="M211 315v97h-188v45l171 243h77v-237h48v-51h-48v-97h-60zM87 463h124v180z" />
    <glyph glyph-name="uni2075" unicode="&#x2075;" horiz-adv-x="327" 
d="M171 560q54 0 88 -34.5t34 -86.5q0 -55 -37.5 -93t-95.5 -38q-96 0 -134 77l49 27q26 -53 81 -53q34 0 56 22t22 55q0 32 -21 53t-56 21q-39 0 -67 -27l-49 8l9 209h217v-52h-166l-4 -116q29 28 74 28z" />
    <glyph glyph-name="uni2076" unicode="&#x2076;" horiz-adv-x="346" 
d="M184 655q-40 0 -64.5 -34t-24.5 -100v-21q12 32 38 49.5t58 17.5q51 0 85.5 -36t34.5 -87q0 -59 -36.5 -97t-92.5 -38q-66 0 -105.5 49t-39.5 131v30q0 89 39 138t107 49q78 0 119 -63l-41 -33q-28 45 -77 45zM179 360q33 0 54.5 22.5t21.5 56.5t-21.5 56t-54.5 22
t-54.5 -22t-21.5 -56t21.5 -56.5t54.5 -22.5z" />
    <glyph glyph-name="uni2077" unicode="&#x2077;" horiz-adv-x="315" 
d="M292 655l-173 -340h-69l176 333h-202v52h268v-45z" />
    <glyph glyph-name="uni2078" unicode="&#x2078;" horiz-adv-x="341" 
d="M171 308q-59 0 -97 32t-38 81q0 33 21 58.5t55 34.5q-28 11 -45.5 34t-17.5 52q0 45 35 75.5t87 30.5t86.5 -30.5t34.5 -75.5q0 -30 -17 -52.5t-46 -33.5q34 -9 54.5 -34t20.5 -59q0 -49 -37.5 -81t-95.5 -32zM171 536q27 0 45 17t18 43t-17.5 42.5t-45.5 16.5t-46 -16.5
t-18 -42.5t18 -43t46 -17zM171 488q-32 0 -53.5 -18.5t-21.5 -46.5t21.5 -46.5t53.5 -18.5t53 18.5t21 46.5t-21 46.5t-53 18.5z" />
    <glyph glyph-name="uni2079" unicode="&#x2079;" horiz-adv-x="346" 
d="M164 360q38 0 62 34.5t24 99.5v21q-11 -32 -37.5 -49.5t-57.5 -17.5q-51 0 -86 36t-35 87q0 59 37 97t93 38q65 0 104.5 -49t39.5 -131v-30q0 -88 -38.5 -137.5t-104.5 -49.5q-84 0 -124 72l48 27q26 -48 75 -48zM167 655q-33 0 -55 -22.5t-22 -56.5t22 -56t55 -22
q32 0 53.5 22t21.5 56t-21.5 56.5t-53.5 22.5z" />
    <glyph glyph-name="uni2080" unicode="&#x2080;" horiz-adv-x="359" 
d="M38 143v100q0 68 39 108.5t102 40.5q64 0 103 -40.5t39 -108.5v-100q0 -68 -39 -109t-103 -41q-63 0 -102 41t-39 109zM262 145v96q0 46 -22.5 72.5t-60.5 26.5t-60 -26.5t-22 -72.5v-96q0 -47 22 -73t60 -26q39 0 61 26t22 73z" />
    <glyph glyph-name="uni2081" unicode="&#x2081;" horiz-adv-x="274" 
d="M248 52v-52h-220v52h80v281h-71v52h131v-333h80z" />
    <glyph glyph-name="uni2082" unicode="&#x2082;" horiz-adv-x="309" 
d="M274 278q1 -31 -12.5 -58t-45.5 -61l-101 -108l164 1v-52h-247v39l139 150q44 47 44 85q0 29 -19.5 47.5t-48.5 18.5q-51 0 -80 -53l-47 26q40 78 129 78q56 0 90.5 -32t34.5 -81z" />
    <glyph glyph-name="uni2083" unicode="&#x2083;" horiz-adv-x="325" 
d="M156 391q53 -1 87.5 -31t34.5 -75q0 -28 -15.5 -50t-42.5 -33q31 -11 51 -37t20 -58q0 -49 -37.5 -81.5t-95.5 -32.5q-98 0 -137 77l50 26q26 -52 86 -52q32 0 52.5 19t20.5 47q0 27 -18 44.5t-47 17.5h-52v49h47q25 0 42 16.5t17 41.5q0 27 -19.5 44t-48.5 17
q-52 0 -76 -50l-49 25q17 35 50.5 55.5t79.5 20.5z" />
    <glyph glyph-name="uni2084" unicode="&#x2084;" horiz-adv-x="345" 
d="M211 0v97h-188v45l171 243h77v-237h48v-51h-48v-97h-60zM87 148h124v180z" />
    <glyph glyph-name="uni2085" unicode="&#x2085;" horiz-adv-x="327" 
d="M171 245q54 0 88 -34.5t34 -86.5q0 -55 -37.5 -93t-95.5 -38q-96 0 -134 77l49 27q26 -53 81 -53q34 0 56 22t22 55q0 32 -21 53t-56 21q-39 0 -67 -27l-49 8l9 209h217v-52h-166l-4 -116q29 28 74 28z" />
    <glyph glyph-name="uni2086" unicode="&#x2086;" horiz-adv-x="346" 
d="M184 340q-40 0 -64.5 -34t-24.5 -100v-21q12 32 38 49.5t58 17.5q51 0 85.5 -36t34.5 -87q0 -59 -36.5 -97t-92.5 -38q-66 0 -105.5 49t-39.5 131v30q0 89 39 138t107 49q78 0 119 -63l-41 -33q-28 45 -77 45zM179 45q33 0 54.5 22.5t21.5 56.5t-21.5 56t-54.5 22
t-54.5 -22t-21.5 -56t21.5 -56.5t54.5 -22.5z" />
    <glyph glyph-name="uni2087" unicode="&#x2087;" horiz-adv-x="315" 
d="M292 340l-173 -340h-69l176 333h-202v52h268v-45z" />
    <glyph glyph-name="uni2088" unicode="&#x2088;" horiz-adv-x="341" 
d="M171 -7q-59 0 -97 32t-38 81q0 33 21 58.5t55 34.5q-28 11 -45.5 34t-17.5 52q0 45 35 75.5t87 30.5t86.5 -30.5t34.5 -75.5q0 -30 -17 -52.5t-46 -33.5q34 -9 54.5 -34t20.5 -59q0 -49 -37.5 -81t-95.5 -32zM171 221q27 0 45 17t18 43t-17.5 42.5t-45.5 16.5t-46 -16.5
t-18 -42.5t18 -43t46 -17zM171 173q-32 0 -53.5 -18.5t-21.5 -46.5t21.5 -46.5t53.5 -18.5t53 18.5t21 46.5t-21 46.5t-53 18.5z" />
    <glyph glyph-name="uni2089" unicode="&#x2089;" horiz-adv-x="346" 
d="M164 45q38 0 62 34.5t24 99.5v21q-11 -32 -37.5 -49.5t-57.5 -17.5q-51 0 -86 36t-35 87q0 59 37 97t93 38q65 0 104.5 -49t39.5 -131v-30q0 -88 -38.5 -137.5t-104.5 -49.5q-84 0 -124 72l48 27q26 -48 75 -48zM167 340q-33 0 -55 -22.5t-22 -56.5t22 -56t55 -22
q32 0 53.5 22t21.5 56t-21.5 56.5t-53.5 22.5z" />
    <glyph glyph-name="uni20A9" unicode="&#x20a9;" horiz-adv-x="964" 
d="M24 311h112l-21 80h-91v57h76l-67 252h85l61 -252h190l81 252h67l81 -252h190l61 252h81l-67 -252h77v-57h-92l-21 -80h113v-57h-128l-67 -254h-74l-82 254h-215l-81 -254h-74l-67 254h-128v57zM436 448h91l-45 142zM212 311h113l25 80h-157zM392 311h179l-26 80h-127z
M642 311h112l20 80h-157zM226 254l34 -143l46 143h-80zM661 254l45 -141l35 141h-80z" />
    <glyph glyph-name="Euro" unicode="&#x20ac;" horiz-adv-x="705" 
d="M382 311l-20 -57h-179q14 -91 68.5 -141.5t132.5 -50.5q73 0 124.5 44.5t70.5 125.5h78q-20 -113 -94 -178t-177 -65q-112 0 -190.5 71t-94.5 194h-90v57h87v80h-87v57h91q16 121 94 192t190 71q104 0 177.5 -65t93.5 -178h-78q-19 81 -70.5 125.5t-124.5 44.5
q-78 0 -132 -50t-68 -140h247l-21 -57h-231v-80h203z" />
    <glyph glyph-name="uni20B9" unicode="&#x20b9;" horiz-adv-x="569" 
d="M484 0h-97l-345 305v49h182q52 0 89 29.5t48 76.5h-319v64h320q-10 49 -47.5 80.5t-90.5 31.5h-182v64h488v-64h-152q49 -45 60 -112h92v-64h-93q-12 -73 -70 -120t-138 -47h-75z" />
    <glyph glyph-name="trademark" unicode="&#x2122;" horiz-adv-x="663" 
d="M318 700h62l85 -211l83 211h62v-279h-48l2 205l-83 -205h-35l-82 205l1 -205h-47v279zM27 700h243v-42h-97v-237h-50v237h-96v42z" />
    <glyph glyph-name="uni2190" unicode="&#x2190;" horiz-adv-x="1001" 
d="M103 350l273 375h86l-247 -338h707v-74h-707l247 -338h-86z" />
    <glyph glyph-name="uni2191" unicode="&#x2191;" horiz-adv-x="1000" 
d="M500 736l375 -273v-87l-338 248v-707h-74v707l-338 -248v87z" />
    <glyph glyph-name="uni2192" unicode="&#x2192;" horiz-adv-x="1001" 
d="M539 725h84l274 -375l-274 -375h-84l248 339h-708v72h708z" />
    <glyph glyph-name="uni2193" unicode="&#x2193;" horiz-adv-x="1000" 
d="M875 240v-84l-375 -274l-375 274v84l339 -248v708h72v-708z" />
    <glyph glyph-name="minus" unicode="&#x2212;" horiz-adv-x="549" 
d="M483 392v-62h-417v62h417z" />
    <glyph glyph-name="approxequal" unicode="&#x2248;" horiz-adv-x="547" 
d="M164 435q-43 0 -99 -34v60q54 33 103 33q35 0 107.5 -27.5t109.5 -27.5q39 0 97 35v-61q-52 -32 -103 -32q-35 0 -107 27t-108 27zM164 275q-41 0 -99 -35v61q56 33 103 33q35 0 107.5 -28t109.5 -28q38 0 97 36v-61q-51 -33 -103 -33q-35 0 -107 27.5t-108 27.5z" />
    <glyph glyph-name="notequal" unicode="&#x2260;" horiz-adv-x="553" 
d="M67 132l89 115h-88v59h133l78 100h-211v59h256l90 116h73l-90 -116h88v-59h-133l-78 -100h211v-59h-256l-89 -115h-73z" />
    <glyph glyph-name="lessequal" unicode="&#x2264;" horiz-adv-x="538" 
d="M456 512l-324 -145l324 -143v-73l-402 184v64l402 184v-71zM54 247l402 -184v-70l-402 184v70z" />
    <glyph glyph-name="greaterequal" unicode="&#x2265;" horiz-adv-x="538" 
d="M71 511v72l402 -184v-64l-402 -184v72l324 143zM473 247v-70l-402 -184v70z" />
    <glyph glyph-name="check" unicode="&#x2713;" horiz-adv-x="1002" 
d="M918 636v-103l-542 -541l-292 291v103l292 -291z" />
    <glyph glyph-name="close" unicode="&#x2715;" horiz-adv-x="1002" 
d="M862 659l-309 -307l309 -307l-52 -53l-308 309l-307 -309l-52 53l308 307l-308 307l52 52l307 -309l308 309z" />
    <glyph glyph-name="fi" unicode="&#xfb01;" horiz-adv-x="621" 
d="M33 459v68h108v110q0 49 29.5 79t81.5 30h223v-68h-212q-46 0 -46 -52v-99h318v-527h-77v459h-241v-459h-76v459h-108z" />
    <glyph glyph-name="fl" unicode="&#xfb02;" horiz-adv-x="622" 
d="M33 459v68h108v110q0 49 29.5 79t81.5 30h283v-746h-77v678h-195q-46 0 -46 -52v-99h137v-68h-137v-459h-76v459h-108z" />
    <glyph glyph-name="Uber" horiz-adv-x="2119" 
d="M154 268q0 -84 48.5 -135t123.5 -51q74 0 123 52t49 134v432h105v-700h-104v65q-74 -77 -185 -77q-114 0 -189.5 76t-75.5 198v438h105v-432zM681 0v700h101v-255q74 76 181 76q112 0 190 -78t78 -189t-78 -188.5t-190 -77.5q-108 0 -182 76v-64h-100zM780 254
q0 -74 51.5 -125.5t124.5 -51.5q72 0 123.5 52t51.5 125q0 74 -51.5 125.5t-123.5 51.5q-73 0 -124.5 -51.5t-51.5 -125.5zM1271 255q0 109 75.5 187t186.5 78q110 0 182.5 -75.5t72.5 -189.5v-33h-415q11 -63 58 -104t111 -41q91 0 147 75l73 -54q-82 -109 -220 -109
q-115 0 -193 76t-78 190zM1531 432q-56 0 -99.5 -36t-56.5 -94h311q-13 58 -56 94t-99 36zM2101 420h-42q-50 0 -82 -35.5t-32 -94.5v-290h-101v510h100v-63q41 67 122 67h35v-94z" />
    <glyph glyph-name="idotaccent" horiz-adv-x="253" 
d="M127 630q-21 0 -36.5 15.5t-15.5 35.5q0 22 15.5 37t36.5 15q20 0 35 -15t15 -37q0 -20 -15 -35.5t-35 -15.5zM165 527v-527h-77v527h77z" />
    <glyph glyph-name="cordinal" horiz-adv-x="392" 
d="M206 325q-71 0 -116 46t-45 122v48q0 76 45 122t116 46q60 0 101.5 -35t52.5 -95h-66q-9 34 -32 53.5t-56 19.5q-44 0 -70 -31t-26 -83v-42q0 -52 26 -82.5t70 -30.5q33 0 56.5 19t31.5 52h66q-11 -59 -53 -94t-101 -35z" />
    <glyph glyph-name="a.school" horiz-adv-x="606" 
d="M520 0h-77v94q-26 -49 -70.5 -76.5t-101.5 -27.5q-91 0 -150 65t-59 169v79q0 104 58.5 168.5t150.5 64.5q117 0 172 -101v92h77v-527zM443 296q0 78 -41.5 125t-111.5 47q-69 0 -110.5 -47.5t-41.5 -124.5v-65q0 -78 41.5 -125.5t110.5 -47.5q70 0 111.5 47.5
t41.5 125.5v65z" />
    <glyph glyph-name="aacute.school" horiz-adv-x="606" 
d="M520 0h-77v94q-26 -49 -70.5 -76.5t-101.5 -27.5q-91 0 -150 65t-59 169v79q0 104 58.5 168.5t150.5 64.5q117 0 172 -101v92h77v-527zM443 296q0 78 -41.5 125t-111.5 47q-69 0 -110.5 -47.5t-41.5 -124.5v-65q0 -78 41.5 -125.5t110.5 -47.5q70 0 111.5 47.5
t41.5 125.5v65zM346 741h92l-129 -130h-77z" />
    <glyph glyph-name="abreve.school" horiz-adv-x="606" 
d="M520 0h-77v94q-26 -49 -70.5 -76.5t-101.5 -27.5q-91 0 -150 65t-59 169v79q0 104 58.5 168.5t150.5 64.5q117 0 172 -101v92h77v-527zM443 296q0 78 -41.5 125t-111.5 47q-69 0 -110.5 -47.5t-41.5 -124.5v-65q0 -78 41.5 -125.5t110.5 -47.5q70 0 111.5 47.5
t41.5 125.5v65zM292 667q68 0 88 75l55 -17q-13 -53 -52.5 -83t-90.5 -30t-90.5 30t-52.5 83l55 17q21 -75 88 -75z" />
    <glyph glyph-name="acircumflex.school" horiz-adv-x="606" 
d="M520 0h-77v94q-26 -49 -70.5 -76.5t-101.5 -27.5q-91 0 -150 65t-59 169v79q0 104 58.5 168.5t150.5 64.5q117 0 172 -101v92h77v-527zM443 296q0 78 -41.5 125t-111.5 47q-69 0 -110.5 -47.5t-41.5 -124.5v-65q0 -78 41.5 -125.5t110.5 -47.5q70 0 111.5 47.5
t41.5 125.5v65zM216 612h-71l109 130h78l109 -130h-71l-77 84z" />
    <glyph glyph-name="adieresis.school" horiz-adv-x="606" 
d="M520 0h-77v94q-26 -49 -70.5 -76.5t-101.5 -27.5q-91 0 -150 65t-59 169v79q0 104 58.5 168.5t150.5 64.5q117 0 172 -101v92h77v-527zM443 296q0 78 -41.5 125t-111.5 47q-69 0 -110.5 -47.5t-41.5 -124.5v-65q0 -78 41.5 -125.5t110.5 -47.5q70 0 111.5 47.5
t41.5 125.5v65zM206 624q-20 0 -35 15t-15 36t15 35.5t35 14.5t35 -14.5t15 -35.5t-15 -36t-35 -15zM380 624q-20 0 -35 15t-15 36t15 35.5t35 14.5t35 -14.5t15 -35.5t-15 -36t-35 -15z" />
    <glyph glyph-name="agrave.school" horiz-adv-x="606" 
d="M520 0h-77v94q-26 -49 -70.5 -76.5t-101.5 -27.5q-91 0 -150 65t-59 169v79q0 104 58.5 168.5t150.5 64.5q117 0 172 -101v92h77v-527zM443 296q0 78 -41.5 125t-111.5 47q-69 0 -110.5 -47.5t-41.5 -124.5v-65q0 -78 41.5 -125.5t110.5 -47.5q70 0 111.5 47.5
t41.5 125.5v65zM237 741l114 -130h-78l-128 130h92z" />
    <glyph glyph-name="amacron.school" horiz-adv-x="606" 
d="M520 0h-77v94q-26 -49 -70.5 -76.5t-101.5 -27.5q-91 0 -150 65t-59 169v79q0 104 58.5 168.5t150.5 64.5q117 0 172 -101v92h77v-527zM443 296q0 78 -41.5 125t-111.5 47q-69 0 -110.5 -47.5t-41.5 -124.5v-65q0 -78 41.5 -125.5t110.5 -47.5q70 0 111.5 47.5
t41.5 125.5v65zM416 695v-55h-248v55h248z" />
    <glyph glyph-name="aogonek.school" horiz-adv-x="606" 
d="M520 0q-80 -67 -80 -124q0 -49 50 -49q22 0 36 5l8 -45q-24 -8 -52 -8q-46 0 -71 23.5t-25 61.5q0 67 77 136h-20v94q-26 -49 -70.5 -76.5t-101.5 -27.5q-91 0 -150 65t-59 169v79q0 104 58.5 168.5t150.5 64.5q117 0 172 -101v92h77v-527zM443 296q0 78 -41.5 125
t-111.5 47q-69 0 -110.5 -47.5t-41.5 -124.5v-65q0 -78 41.5 -125.5t110.5 -47.5q70 0 111.5 47.5t41.5 125.5v65z" />
    <glyph glyph-name="aring.school" horiz-adv-x="606" 
d="M520 0h-77v94q-26 -49 -70.5 -76.5t-101.5 -27.5q-91 0 -150 65t-59 169v79q0 104 58.5 168.5t150.5 64.5q117 0 172 -101v92h77v-527zM443 296q0 78 -41.5 125t-111.5 47q-69 0 -110.5 -47.5t-41.5 -124.5v-65q0 -78 41.5 -125.5t110.5 -47.5q70 0 111.5 47.5
t41.5 125.5v65zM292 594q-43 0 -74 30t-31 72t31 72t74 30t74 -30t31 -72t-31 -72t-74 -30zM292 635q26 0 44 17.5t18 43.5t-18 43.5t-44 17.5t-44 -17.5t-18 -43.5t18 -43.5t44 -17.5z" />
    <glyph glyph-name="atilde.school" horiz-adv-x="606" 
d="M520 0h-77v94q-26 -49 -70.5 -76.5t-101.5 -27.5q-91 0 -150 65t-59 169v79q0 104 58.5 168.5t150.5 64.5q117 0 172 -101v92h77v-527zM443 296q0 78 -41.5 125t-111.5 47q-69 0 -110.5 -47.5t-41.5 -124.5v-65q0 -78 41.5 -125.5t110.5 -47.5q70 0 111.5 47.5
t41.5 125.5v65zM231 733q23 0 65 -30.5t53 -30.5q14 0 23.5 13.5t20.5 49.5l51 -12q-27 -105 -91 -105q-24 0 -65.5 30t-52.5 30q-14 0 -23.5 -13.5t-21.5 -49.5l-51 12q29 106 92 106z" />
    <glyph glyph-name="caronSlovak" horiz-adv-x="167" 
d="M29 495l19 205h79l-38 -205h-60z" />
    <glyph glyph-name="uni00200326" horiz-adv-x="210" 
d="M51 -222q22 3 37 17.5t15 30.5q0 8 -23 22.5t-23 36.5q0 17 12.5 29.5t29.5 12.5q23 0 37 -18.5t14 -50.5q0 -44 -27 -76.5t-72 -37.5v34z" />
    <glyph glyph-name="colon.alt" horiz-adv-x="212" 
d="M106 219q21 0 36 -15t15 -37q0 -21 -15 -36t-36 -15t-36 15t-15 36q0 22 15 37t36 15zM106 551q21 0 36 -15t15 -37q0 -21 -15 -36t-36 -15t-36 15t-15 36q0 22 15 37t36 15z" />
    <glyph glyph-name="reversequoteleft" horiz-adv-x="219" 
d="M161 544v-42q-54 7 -87.5 52t-33.5 110q0 37 16 59t44 22q20 0 34 -14.5t14 -33.5q0 -16 -9 -27t-19 -16.5t-19 -13.5t-9 -17q0 -26 21.5 -50.5t47.5 -28.5z" />
    <glyph glyph-name="reversequotedblleft" horiz-adv-x="385" 
d="M161 544v-42q-54 7 -87.5 52t-33.5 110q0 37 16 59t44 22q20 0 34 -14.5t14 -33.5q0 -16 -9 -27t-19 -16.5t-19 -13.5t-9 -17q0 -26 21.5 -50.5t47.5 -28.5zM327 544v-42q-54 7 -87.5 52t-33.5 110q0 37 16 59t44 22q20 0 34 -14.5t14 -33.5q0 -16 -9 -27t-19 -16.5
t-19 -13.5t-9 -17q0 -26 21.5 -50.5t47.5 -28.5z" />
    <glyph glyph-name="at.cap" horiz-adv-x="837" 
d="M404 170q-73 0 -123.5 51t-50.5 123t50.5 122.5t123.5 50.5q68 0 117 -49v42h63v-222q0 -24 15 -40t42 -16q37 0 60.5 38t23.5 97q0 129 -87 211.5t-221 82.5q-128 0 -217 -90.5t-89 -221.5q0 -130 88.5 -220t215.5 -90q124 0 210 72l36 -38q-103 -84 -244 -84
q-150 0 -255 105t-105 255q0 151 105.5 256.5t256.5 105.5q156 0 258.5 -97t102.5 -245q0 -86 -42.5 -137.5t-101.5 -51.5q-74 0 -101 55q-49 -65 -131 -65zM408 227q47 0 80.5 34.5t33.5 82.5t-33.5 82t-80.5 34t-80.5 -34t-33.5 -82q0 -49 33.5 -83t80.5 -34z" />
    <glyph glyph-name="dollar.alt" horiz-adv-x="549" 
d="M305 -64h-62v84q-84 12 -138.5 65.5t-63.5 133.5h76q11 -66 56 -103t116 -37q64 0 100 30t36 80q0 41 -27 68t-85 45l-108 32q-157 47 -157 173q0 78 55 127t140 52v76h62v-80q78 -14 128.5 -67t59.5 -132h-75q-11 66 -53.5 102.5t-110.5 36.5q-57 0 -94 -30.5t-37 -79.5
q0 -74 106 -107l112 -34q160 -48 160 -174q0 -78 -53 -127.5t-143 -53.5v-80z" />
    <glyph glyph-name="NTD" horiz-adv-x="1767" 
d="M1538 -59h-58v76q-77 12 -127 61t-58 123h69q8 -49 38.5 -81t77.5 -42v217l-35 10q-147 44 -147 159q0 72 51 117t131 48v71h58v-74q73 -13 119.5 -61.5t55.5 -121.5h-70q-16 99 -105 121v-214l35 -10q150 -44 150 -158q0 -73 -50 -118.5t-135 -49.5v-73zM162 0h-70v642
h82l360 -538v538h69v-642h-79l-363 539zM714 577v65h522v-65h-225v-577h-73v577h-224zM1467 369l13 -4v204q-50 -3 -81.5 -30.5t-31.5 -68.5q0 -38 24.5 -62t75.5 -39zM1547 278l-9 3v-207q54 3 84.5 30t30.5 70q0 75 -106 104z" />
    </font>
</defs>
</svg>
